<svg width="30" height="30" viewBox="0 0 30 30" fill="none" xmlns="http://www.w3.org/2000/svg">
<path d="M26.25 22.0312H20.625C20.5007 22.0312 20.3814 22.0806 20.2935 22.1685C20.2056 22.2564 20.1562 22.3757 20.1562 22.5V28.125C20.1567 28.2175 20.1846 28.3079 20.2363 28.3846C20.288 28.4614 20.3613 28.5211 20.4469 28.5562C20.5322 28.5921 20.6263 28.602 20.7173 28.5844C20.8082 28.5669 20.8919 28.5229 20.9578 28.4578L26.5828 22.8328C26.6479 22.7669 26.6919 22.6832 26.7094 22.5923C26.727 22.5013 26.7171 22.4072 26.6812 22.3219C26.6461 22.2363 26.5864 22.163 26.5096 22.1113C26.4329 22.0596 26.3425 22.0317 26.25 22.0312ZM13.5937 25.3125V15.4687C13.5937 15.0958 13.4456 14.7381 13.1819 14.4744C12.9181 14.2107 12.5605 14.0625 12.1875 14.0625H4.21875C3.84579 14.0625 3.4881 14.2107 3.22438 14.4744C2.96066 14.7381 2.8125 15.0958 2.8125 15.4687V25.3125C2.8125 25.6855 2.96066 26.0431 3.22438 26.3069C3.4881 26.5706 3.84579 26.7187 4.21875 26.7187H12.1875C12.5605 26.7187 12.9181 26.5706 13.1819 26.3069C13.4456 26.0431 13.5937 25.6855 13.5937 25.3125ZM6.5625 24.8437H5.15625V23.9062H6.5625V24.8437ZM6.5625 22.9687H5.15625V22.0312H6.5625V22.9687ZM6.5625 21.0937H5.15625V20.1562H6.5625V21.0937ZM8.90625 24.8437H7.5V23.9062H8.90625V24.8437ZM8.90625 22.9687H7.5V22.0312H8.90625V22.9687ZM8.90625 21.0937H7.5V20.1562H8.90625V21.0937ZM11.25 24.8437H9.84375V23.9062H11.25V24.8437ZM11.25 22.9687H9.84375V22.0312H11.25V22.9687ZM11.25 21.0937H9.84375V20.1562H11.25V21.0937ZM11.7187 18.75C11.718 18.8419 11.6903 18.9315 11.6391 19.0078C11.5966 19.0723 11.5389 19.1253 11.471 19.1621C11.4031 19.1989 11.3272 19.2183 11.25 19.2187H5.15625C5.03193 19.2187 4.9127 19.1694 4.82479 19.0815C4.73689 18.9935 4.6875 18.8743 4.6875 18.75V16.4062C4.68498 16.3844 4.68498 16.3624 4.6875 16.3406C4.70342 16.228 4.75975 16.125 4.84599 16.0508C4.93224 15.9767 5.04251 15.9364 5.15625 15.9375H11.25C11.32 15.9373 11.3892 15.9527 11.4525 15.9827C11.5158 16.0127 11.5715 16.0566 11.6156 16.1109C11.6828 16.1947 11.7192 16.2989 11.7187 16.4062V18.75ZM13.125 9.375H13.2609C13.5096 9.375 13.748 9.27623 13.9238 9.10041C14.0997 8.9246 14.1984 8.68614 14.1984 8.4375C14.1984 8.18886 14.0997 7.9504 13.9238 7.77459C13.748 7.59877 13.5096 7.5 13.2609 7.5H13.125V9.375ZM18.9234 9.56719C19.1926 9.85185 19.5288 10.0645 19.9014 10.1857C20.2739 10.3069 20.6709 10.3328 21.056 10.261C21.4411 10.1892 21.8021 10.022 22.106 9.77468C22.4098 9.52737 22.6468 9.20784 22.7953 8.84531L20.5031 7.32656L18.9234 9.56719ZM11.1141 5.625C11.1141 5.87364 11.2128 6.1121 11.3886 6.28791C11.5645 6.46373 11.8029 6.5625 12.0516 6.5625H12.1875V4.6875H12.0516C11.8029 4.6875 11.5645 4.78627 11.3886 4.96209C11.2128 5.1379 11.1141 5.37636 11.1141 5.625Z" fill="black"/>
<path d="M24.375 1.40625H9.375C8.7534 1.40625 8.15726 1.65318 7.71772 2.09272C7.27818 2.53226 7.03125 3.1284 7.03125 3.75V13.125H12.1875C12.8091 13.125 13.4052 13.3719 13.8448 13.8115C14.2843 14.251 14.5312 14.8471 14.5312 15.4688V25.3125C14.5312 25.9341 14.2843 26.5302 13.8448 26.9698C13.4052 27.4093 12.8091 27.6562 12.1875 27.6562H7.5C7.71831 27.9473 8.0014 28.1836 8.32684 28.3463C8.65229 28.509 9.01114 28.5938 9.375 28.5938H19.3031C19.2467 28.4439 19.2182 28.2851 19.2188 28.125V22.5C19.2188 22.127 19.3669 21.7694 19.6306 21.5056C19.8944 21.2419 20.252 21.0938 20.625 21.0938H26.25C26.4101 21.0932 26.5689 21.1217 26.7188 21.1781V3.75C26.7188 3.1284 26.4718 2.53226 26.0323 2.09272C25.5927 1.65318 24.9966 1.40625 24.375 1.40625ZM15.9375 16.4062H21.7687V17.3438H15.9375V16.4062ZM13.2609 6.5625C13.7582 6.5625 14.2351 6.76004 14.5868 7.11167C14.9384 7.46331 15.1359 7.94022 15.1359 8.4375C15.1359 8.93478 14.9384 9.41169 14.5868 9.76332C14.2351 10.115 13.7582 10.3125 13.2609 10.3125H13.125V11.4516H12.1875V10.3125H12.0516C11.5543 10.3125 11.0774 10.115 10.7257 9.76332C10.3741 9.41169 10.1766 8.93478 10.1766 8.4375H11.1141C11.1141 8.68614 11.2128 8.9246 11.3886 9.10041C11.5645 9.27623 11.8029 9.375 12.0516 9.375H12.1875V7.5H12.0516C11.5543 7.5 11.0774 7.30246 10.7257 6.95083C10.3741 6.59919 10.1766 6.12228 10.1766 5.625C10.1766 5.12772 10.3741 4.65081 10.7257 4.29917C11.0774 3.94754 11.5543 3.75 12.0516 3.75H12.1875V2.61094H13.125V3.75H13.2609C13.7582 3.75 14.2351 3.94754 14.5868 4.29917C14.9384 4.65081 15.1359 5.12772 15.1359 5.625H14.1984C14.1984 5.37636 14.0997 5.1379 13.9239 4.96209C13.748 4.78627 13.5096 4.6875 13.2609 4.6875H13.125V6.5625H13.2609ZM18.1313 22.0312H15.9375V21.0938H18.1313V22.0312ZM22.9688 19.6875H15.9375V18.75H22.9688V19.6875ZM22.9688 15H15.9375V14.0625H22.9688V15ZM20.625 11.25C19.976 11.25 19.3416 11.0576 18.802 10.697C18.2624 10.3365 17.8419 9.824 17.5935 9.22443C17.3452 8.62486 17.2802 7.96511 17.4068 7.32861C17.5334 6.69211 17.8459 6.10745 18.3048 5.64856C18.7637 5.18967 19.3484 4.87716 19.9849 4.75055C20.6214 4.62394 21.2811 4.68892 21.8807 4.93727C22.4802 5.18562 22.9927 5.60619 23.3533 6.14579C23.7138 6.68538 23.9062 7.31978 23.9062 7.96875C23.9063 8.83899 23.5605 9.67359 22.9452 10.2889C22.3298 10.9043 21.4952 11.25 20.625 11.25Z" fill="black"/>
</svg>
