<svg width="40" height="40" viewBox="0 0 40 40" fill="none" xmlns="http://www.w3.org/2000/svg">
<path d="M39.2528 9.87641C39.1665 9.74632 39.0494 9.63957 38.9119 9.56568C38.7744 9.49179 38.6207 9.45304 38.4646 9.45288H29.6881C29.7095 9.64821 29.7193 9.84463 29.7175 10.0411C29.7175 11.9132 28.9738 13.7087 27.6501 15.0325C26.3263 16.3562 24.5308 17.0999 22.6587 17.0999C20.7866 17.0999 18.9912 16.3562 17.6674 15.0325C16.3436 13.7087 15.5999 11.9132 15.5999 10.0411V9.45288H7.95284L7.28813 6.90582C7.0939 6.11805 6.64007 5.41862 5.99979 4.92027C5.35951 4.42192 4.57007 4.15367 3.75872 4.15876H1.17637C1.02036 4.15876 0.87074 4.22074 0.760425 4.33105C0.650109 4.44137 0.588135 4.59099 0.588135 4.747C0.588135 4.90301 0.650109 5.05263 0.760425 5.16294C0.87074 5.27326 1.02036 5.33523 1.17637 5.33523H3.82931C4.3724 5.33919 4.89866 5.52413 5.32482 5.8608C5.75098 6.19747 6.05271 6.66663 6.18225 7.19406L10.6411 24.2823L10.9646 25.5294L11.8999 29.1176C11.1731 29.2786 10.5193 29.6736 10.0387 30.2421C9.55818 30.8106 9.27745 31.521 9.23965 32.2645C9.20185 33.0079 9.40906 33.7431 9.82949 34.3574C10.2499 34.9717 10.8603 35.431 11.567 35.6649C12.2737 35.8988 13.0376 35.8943 13.7414 35.6521C14.4453 35.4099 15.0503 34.9435 15.4634 34.3243C15.8766 33.7051 16.0752 32.9674 16.0286 32.2245C15.9821 31.4816 15.693 30.7745 15.2058 30.2117H28.8234C28.3172 30.7982 28.0269 31.5403 28.0007 32.3146C27.9745 33.0889 28.214 33.8489 28.6795 34.4683C29.1449 35.0877 29.8082 35.5292 30.5592 35.7195C31.3103 35.9098 32.1038 35.8374 32.808 35.5144C33.5122 35.1913 34.0847 34.6371 34.4304 33.9437C34.7761 33.2504 34.8742 32.4596 34.7083 31.7028C34.5425 30.946 34.1227 30.2687 33.5187 29.7834C32.9147 29.2982 32.1629 29.0341 31.3881 29.0352H13.1528L12.3528 25.9646H31.5881C31.9346 25.9816 32.2771 25.8851 32.5637 25.6897C32.8503 25.4944 33.0654 25.2109 33.1764 24.8823C34.8705 20.9607 36.5705 17.0607 38.2764 13.1823L39.3352 10.7764V10.7058C39.3861 10.5705 39.4051 10.4253 39.3908 10.2815C39.3766 10.1377 39.3293 9.99905 39.2528 9.87641Z" fill="white"/>
<path d="M22.6647 15.9175C23.4372 15.9175 24.2021 15.7654 24.9158 15.4697C25.6294 15.1741 26.2779 14.7408 26.8241 14.1946C27.3704 13.6484 27.8037 12.9999 28.0993 12.2862C28.3949 11.5726 28.547 10.8076 28.547 10.0352C28.547 9.83515 28.547 9.64104 28.5176 9.44692C28.3654 8.00149 27.6834 6.66359 26.6032 5.69117C25.523 4.71875 24.1211 4.18066 22.6676 4.18066C21.2142 4.18066 19.8122 4.71875 18.732 5.69117C17.6518 6.66359 16.9699 8.00149 16.8176 9.44692V10.0352C16.8176 11.5892 17.4325 13.08 18.528 14.1822C19.6236 15.2843 21.1107 15.9082 22.6647 15.9175ZM19.8647 9.44692H22.0764V7.24104C22.0764 7.08503 22.1384 6.93541 22.2487 6.82509C22.3591 6.71478 22.5087 6.6528 22.6647 6.6528C22.8207 6.6528 22.9703 6.71478 23.0806 6.82509C23.1909 6.93541 23.2529 7.08503 23.2529 7.24104V9.4528H25.4588C25.6148 9.4528 25.7644 9.51478 25.8747 9.62509C25.9851 9.73541 26.047 9.88503 26.047 10.041C26.047 10.197 25.9851 10.3467 25.8747 10.457C25.7644 10.5673 25.6148 10.6293 25.4588 10.6293H23.2529V12.8352C23.2529 12.9912 23.1909 13.1408 23.0806 13.2511C22.9703 13.3614 22.8207 13.4234 22.6647 13.4234C22.5087 13.4234 22.3591 13.3614 22.2487 13.2511C22.1384 13.1408 22.0764 12.9912 22.0764 12.8352V10.6293H19.8647C19.7087 10.6293 19.5591 10.5673 19.4487 10.457C19.3384 10.3467 19.2765 10.197 19.2765 10.041C19.2765 9.88503 19.3384 9.73541 19.4487 9.62509C19.5591 9.51478 19.7087 9.4528 19.8647 9.4528V9.44692Z" fill="white"/>
</svg>
