<svg width="65" height="65" viewBox="0 0 65 65" fill="none" xmlns="http://www.w3.org/2000/svg">
<path d="M41.6406 5.07812H23.3594C18.5126 5.08377 13.866 7.01164 10.4388 10.4388C7.01164 13.866 5.08377 18.5126 5.07812 23.3594V41.6406C5.08377 46.4874 7.01164 51.134 10.4388 54.5612C13.866 57.9884 18.5126 59.9162 23.3594 59.9219H41.6406C46.4874 59.9162 51.134 57.9884 54.5612 54.5612C57.9884 51.134 59.9162 46.4874 59.9219 41.6406V23.3594C59.9162 18.5126 57.9884 13.866 54.5612 10.4388C51.134 7.01164 46.4874 5.08377 41.6406 5.07812ZM55.8594 41.6406C55.8553 45.4104 54.356 49.0247 51.6903 51.6903C49.0247 54.356 45.4104 55.8553 41.6406 55.8594H29.4531C25.1434 55.8594 21.0101 54.1473 17.9626 51.0999C14.9152 48.0524 13.2031 43.9191 13.2031 39.6094C13.2031 35.1041 13.5515 31.0497 9.14062 27.688V23.3594C9.14466 19.5896 10.644 15.9753 13.3097 13.3097C15.9753 10.644 19.5896 9.14466 23.3594 9.14062H41.6406C45.4104 9.14466 49.0247 10.644 51.6903 13.3097C54.356 15.9753 55.8553 19.5896 55.8594 23.3594V41.6406ZM46.4547 32.5C46.4547 33.0387 46.2407 33.5554 45.8597 33.9363C45.4788 34.3172 44.9622 34.5312 44.4234 34.5312H24.9326L31.6875 42.5841C31.8684 42.787 32.0067 43.0242 32.0943 43.2815C32.1819 43.5388 32.2169 43.8111 32.1973 44.0822C32.1778 44.3534 32.104 44.6178 31.9803 44.8599C31.8567 45.1019 31.6857 45.3167 31.4775 45.4915C31.2694 45.6663 31.0282 45.7976 30.7684 45.8775C30.5086 45.9574 30.2354 45.9843 29.965 45.9567C29.6945 45.929 29.4324 45.8474 29.1941 45.7166C28.9558 45.5859 28.7462 45.4086 28.5777 45.1953L19.0196 33.8061C19.0135 33.799 19.0105 33.7898 19.0044 33.7827C18.981 33.7543 18.9617 33.7238 18.9404 33.6944C18.9048 33.6466 18.8734 33.5928 18.8388 33.5461C18.8185 33.5116 18.7941 33.4801 18.7748 33.4445C18.7555 33.409 18.7495 33.3856 18.7352 33.3552C18.7104 33.3026 18.6887 33.2487 18.6702 33.1937C18.656 33.1541 18.6367 33.1165 18.6255 33.0759C18.6144 33.0352 18.6123 33.0149 18.6052 32.9834C18.5913 32.9282 18.5804 32.8723 18.5727 32.8159C18.5656 32.7752 18.5555 32.7346 18.5514 32.693C18.5473 32.6513 18.5514 32.6198 18.5514 32.5833C18.5514 32.5467 18.5423 32.5284 18.5423 32.5C18.5423 32.4716 18.5494 32.4452 18.5514 32.4167C18.5534 32.3883 18.5514 32.3436 18.5514 32.307C18.5514 32.2705 18.5656 32.2248 18.5727 32.1841C18.5804 32.1277 18.5913 32.0718 18.6052 32.0166C18.6123 31.9851 18.6164 31.9546 18.6255 31.9241C18.6347 31.8937 18.656 31.8459 18.6702 31.8063C18.6845 31.7667 18.7109 31.6966 18.7352 31.6448C18.7495 31.6144 18.7596 31.5849 18.7748 31.5555C18.7901 31.526 18.8185 31.4884 18.8388 31.4539C18.8693 31.4031 18.9008 31.3523 18.9404 31.3056C18.9617 31.2762 18.981 31.2457 19.0044 31.2173C19.0105 31.2102 19.0135 31.201 19.0196 31.1939L28.5777 19.8047C28.9292 19.4104 29.4206 19.1686 29.9475 19.1305C30.4744 19.0925 30.9954 19.2612 31.3999 19.6009C31.8045 19.9406 32.0608 20.4245 32.1145 20.9501C32.1682 21.4756 32.015 22.0014 31.6875 22.4159L24.9326 30.4688H44.4234C44.9622 30.4688 45.4788 30.6828 45.8597 31.0637C46.2407 31.4446 46.4547 31.9613 46.4547 32.5Z" fill="#222222"/>
</svg>
