<svg width="120" height="120" viewBox="0 0 120 120" fill="none" xmlns="http://www.w3.org/2000/svg">
<path d="M95.2274 97.5132H84.568C84.3815 97.5132 84.2027 97.4391 84.0708 97.3072C83.939 97.1754 83.8649 96.9965 83.8649 96.8101C83.8649 96.6236 83.939 96.4447 84.0708 96.3129C84.2027 96.181 84.3815 96.1069 84.568 96.1069H95.2274C95.4139 96.1069 95.5927 96.181 95.7246 96.3129C95.8564 96.4447 95.9305 96.6236 95.9305 96.8101C95.9305 96.9965 95.8564 97.1754 95.7246 97.3072C95.5927 97.4391 95.4139 97.5132 95.2274 97.5132ZM35.136 50.9944C35.136 50.9944 34.7985 49.56 38.7641 48.2944C42.7297 47.0288 44.9235 45.51 45.3453 43.7382C45.3453 43.7382 46.2735 48.2944 47.961 49.1382C47.961 49.1382 50.0703 42.5569 45.1766 40.1944C40.2828 37.8319 34.7141 41.2069 32.436 45.5944C30.1578 49.9819 30.5797 50.8257 28.2172 53.5257C26.6844 55.2774 15.6453 61.3725 24.2516 68.0382C24.2516 68.0382 30.3266 59.1788 33.7016 59.8538C33.7016 59.8538 34.8699 54.7796 34.7075 54.1948C34.5505 53.6286 31.341 51.1972 32.4024 48.7072C32.4467 48.5948 32.5126 48.4924 32.5964 48.4055C32.6803 48.3187 32.7804 48.2493 32.8911 48.2011C33.3793 48.0068 34.277 48.1604 35.136 50.9944Z" fill="white"/>
<path d="M38.1988 66.7852C37.0363 66.7854 35.5272 64.5272 33.5933 59.8988C33.5832 59.8705 33.5843 59.8394 33.5964 59.8119C33.6085 59.7843 33.6308 59.7626 33.6586 59.751C33.6863 59.7394 33.7175 59.739 33.7455 59.7497C33.7736 59.7605 33.7965 59.7817 33.8094 59.8088C36.2333 65.6096 37.5946 66.6722 38.3143 66.5405C39.3932 66.3432 39.7321 63.2883 39.7717 62.1279C39.6774 60.9882 39.8339 59.8416 40.2304 58.7689C40.2406 58.7432 40.2597 58.7219 40.2842 58.709C40.3087 58.6961 40.337 58.6924 40.364 58.6986C42.2155 59.1059 43.7615 58.8111 44.9577 57.8227C47.9741 55.3297 47.8452 49.2031 47.8433 49.1415C47.8429 49.1261 47.8455 49.1107 47.851 49.0963C47.8565 49.0819 47.8648 49.0687 47.8754 49.0575C47.886 49.0464 47.8987 49.0374 47.9128 49.0311C47.9269 49.0248 47.9421 49.0214 47.9575 49.021C47.9882 49.0213 48.0177 49.0333 48.04 49.0545C48.0623 49.0756 48.0758 49.1045 48.0777 49.1351C48.0847 49.3911 48.212 55.4368 45.1072 58.0032C43.8744 59.022 42.2952 59.3398 40.4132 58.9489C40.0603 59.9669 39.9214 61.0468 40.0054 62.1209C39.9997 62.3138 39.8406 66.4997 38.3565 66.7709C38.3045 66.7804 38.2517 66.7852 38.1988 66.7852Z" fill="white"/>
<path d="M43.9874 53.9946C43.7291 53.9913 43.4756 53.9246 43.2491 53.8004C43.0226 53.6761 42.8302 53.498 42.6887 53.2819C42.6724 53.2561 42.6667 53.225 42.6729 53.1951C42.6791 53.1653 42.6967 53.139 42.722 53.1219C42.7473 53.1048 42.7782 53.0983 42.8082 53.1036C42.8382 53.109 42.865 53.1258 42.8828 53.1506C43.0684 53.4346 43.3542 53.6381 43.6832 53.7206C43.7981 53.7562 43.919 53.7686 44.0387 53.7569C44.1584 53.7452 44.2746 53.7098 44.3805 53.6526C44.4765 53.576 44.5564 53.481 44.6153 53.3731C44.6743 53.2653 44.7112 53.1468 44.7238 53.0245C44.7789 52.6939 44.7409 52.3545 44.6139 52.0444C44.5602 51.8737 44.5126 51.7012 44.4714 51.5271C44.3404 50.9569 44.1611 50.1764 44.4777 49.4299C44.5884 49.1523 44.7581 48.9019 44.9749 48.6962C45.1918 48.4905 45.4507 48.3343 45.7337 48.2383C46.1389 48.1235 46.5704 48.1443 46.9626 48.2976C46.9915 48.3089 47.0148 48.3312 47.0273 48.3597C47.0398 48.3882 47.0405 48.4204 47.0293 48.4494C47.018 48.4784 46.9956 48.5017 46.9672 48.5142C46.9387 48.5267 46.9065 48.5274 46.8775 48.5161C46.5338 48.3813 46.1554 48.3627 45.8001 48.4631C45.5503 48.5492 45.3221 48.6883 45.1312 48.8709C44.9403 49.0535 44.7911 49.2752 44.6938 49.5208C44.4065 50.1979 44.5759 50.9358 44.6999 51.4744C44.7437 51.6654 44.7939 51.8306 44.8382 51.9759C44.9777 52.3229 45.0177 52.702 44.9537 53.0704C44.9358 53.2234 44.8872 53.3711 44.8109 53.5048C44.7345 53.6385 44.632 53.7554 44.5094 53.8486C44.3535 53.9476 44.1721 53.9984 43.9874 53.9946ZM43.517 48.8104C43.4973 48.8104 43.4779 48.8055 43.4606 48.7959C43.4433 48.7864 43.4287 48.7727 43.4181 48.7561C42.5652 47.4201 40.4591 48.2315 40.438 48.2395C40.4237 48.2455 40.4082 48.2486 40.3926 48.2486C40.377 48.2486 40.3616 48.2454 40.3473 48.2394C40.3329 48.2333 40.3199 48.2244 40.309 48.2133C40.2981 48.2021 40.2895 48.1889 40.2838 48.1744C40.2781 48.1599 40.2753 48.1444 40.2757 48.1288C40.276 48.1132 40.2795 48.0979 40.2858 48.0836C40.2922 48.0694 40.3013 48.0566 40.3127 48.0459C40.324 48.0353 40.3374 48.027 40.352 48.0215C40.375 48.0122 42.6601 47.1333 43.6157 48.6302C43.627 48.6479 43.6333 48.6683 43.634 48.6893C43.6347 48.7103 43.6298 48.7311 43.6197 48.7495C43.6096 48.768 43.5948 48.7833 43.5767 48.794C43.5586 48.8048 43.538 48.8104 43.517 48.8104Z" fill="white"/>
<path d="M42.7801 50.7777C42.8502 50.2934 42.664 49.8657 42.3643 49.8223C42.0645 49.7789 41.7647 50.1363 41.6946 50.6205C41.6245 51.1048 41.8106 51.5325 42.1104 51.5759C42.4102 51.6193 42.71 51.2619 42.7801 50.7777Z" fill="black"/>
<path d="M46.7716 51.3554C46.8417 50.8712 46.6555 50.4434 46.3557 50.4001C46.0559 50.3567 45.7561 50.714 45.686 51.1983C45.6159 51.6825 45.8021 52.1103 46.1019 52.1536C46.4016 52.197 46.7015 51.8397 46.7716 51.3554Z" fill="black"/>
<path d="M42.364 55.4428L42.3537 55.4423C41.4593 55.3638 40.8589 55.0769 40.5689 54.5903C40.4571 54.3718 40.3941 54.1315 40.3844 53.8861C40.3747 53.6408 40.4185 53.3963 40.5127 53.1696C40.525 53.141 40.5482 53.1186 40.5771 53.1071C40.606 53.0957 40.6383 53.0962 40.6668 53.1085C40.6953 53.1208 40.7178 53.144 40.7292 53.1729C40.7407 53.2018 40.7402 53.2341 40.7278 53.2626C40.725 53.2692 40.4478 53.9308 40.7714 54.472C41.0208 54.8892 41.5601 55.1371 42.3741 55.2089C42.4041 55.2115 42.4319 55.2257 42.4518 55.2484C42.4716 55.2711 42.482 55.3005 42.4807 55.3306C42.4794 55.3607 42.4666 55.3892 42.4448 55.4101C42.4231 55.431 42.3942 55.4427 42.364 55.4428ZM40.339 58.6865C38.7564 58.4894 37.3132 57.6821 36.3171 56.4365C36.7924 58.6044 38.0612 60.5162 39.8742 61.7962C39.8081 60.7385 39.9665 59.6787 40.339 58.6865Z" fill="white"/>
<path d="M34.0646 80.6806C32.0576 80.6806 30.4092 80.6712 29.981 80.6426C29.9093 80.6383 29.8398 80.6168 29.7781 80.5798C29.7165 80.5429 29.6647 80.4917 29.6271 80.4305C29.0278 79.5127 30.3942 75.496 30.7256 74.5594C28.8385 74.3771 22.3484 71.37 22.0646 71.2383C22.0491 71.2311 22.0354 71.2206 22.0244 71.2076C22.0134 71.1945 22.0054 71.1792 22.0009 71.1627C21.9964 71.1463 21.9956 71.129 21.9985 71.1122C22.0014 71.0954 22.008 71.0794 22.0177 71.0654L24.1552 67.9716C24.1734 67.9475 24.2002 67.9313 24.2301 67.9264C24.2599 67.9216 24.2905 67.9285 24.3154 67.9457C24.3403 67.9629 24.3575 67.9891 24.3636 68.0187C24.3696 68.0483 24.364 68.0792 24.3478 68.1047L22.2896 71.0839C23.2526 71.5266 29.4197 74.3335 30.8888 74.3335C30.9076 74.3335 30.9261 74.338 30.9428 74.3467C30.9595 74.3554 30.9739 74.368 30.9847 74.3834C30.9955 74.3988 31.0024 74.4166 31.0049 74.4352C31.0074 74.4539 31.0053 74.4728 30.9989 74.4905C30.5065 75.8536 29.3349 79.5544 29.8235 80.3023C29.8412 80.3331 29.8663 80.359 29.8966 80.3776C29.9268 80.3962 29.9613 80.4069 29.9967 80.4087C31.197 80.4884 42.4784 80.415 43.4257 80.409C43.7674 79.8917 46.5324 75.6425 46.0784 74.3391C45.5787 72.9047 45.2393 72.0265 45.2358 72.0179C45.2259 71.9922 45.2253 71.9638 45.2342 71.9378C45.243 71.9117 45.2608 71.8896 45.2843 71.8754L47.056 70.8017C46.7499 70.0479 44.4802 64.7782 39.8126 61.8961C39.7861 61.8798 39.7672 61.8536 39.7601 61.8233C39.7529 61.793 39.7581 61.7611 39.7744 61.7347C39.7907 61.7082 39.8169 61.6893 39.8472 61.6821C39.8775 61.6749 39.9094 61.6801 39.9359 61.6965C45.0153 64.8331 47.2887 70.7499 47.311 70.8094C47.3206 70.835 47.321 70.8631 47.3121 70.889C47.3032 70.9149 47.2856 70.9368 47.2622 70.951L45.4896 72.0251C45.7698 72.7671 46.0398 73.5129 46.2996 74.2622C46.819 75.7533 43.7185 80.3944 43.5863 80.5911C43.5756 80.6069 43.5613 80.6199 43.5444 80.6289C43.5276 80.638 43.5088 80.6427 43.4897 80.6429C43.1604 80.6452 37.9432 80.6806 34.0646 80.6806Z" fill="white"/>
<path d="M33.3112 68.6007L31.005 74.4507L29.4192 74.0897L33.3112 68.6007ZM45.2608 72.0601L42.7718 67.9116L46.0033 71.6101L45.2608 72.0601Z" fill="white"/>
<path d="M56.9907 93.611C56.2262 93.611 55.4753 93.1015 55.2268 92.9156C55.1075 93.0428 54.9606 93.141 54.7973 93.2025C54.6341 93.264 54.4589 93.2871 54.2853 93.2702C53.2583 93.1432 52.3292 91.4955 51.7142 90.4052C51.5721 90.1366 51.4149 89.8763 51.2434 89.6254C51.0348 89.3576 50.4416 89.6925 49.6904 90.1172C48.7288 90.6604 47.4076 91.4055 45.9995 91.3584L45.537 91.3436C35.2363 91.0233 17.7526 90.1647 16.3902 88.0132C14.7674 85.4515 22.5446 72.0363 22.8765 71.4663C22.8843 71.453 22.8946 71.4414 22.9069 71.4321C22.9191 71.4227 22.9331 71.4159 22.948 71.412C22.9629 71.4081 22.9784 71.4072 22.9937 71.4093C23.0089 71.4114 23.0236 71.4165 23.0369 71.4242C23.0502 71.432 23.0619 71.4423 23.0712 71.4546C23.0805 71.4669 23.0873 71.4808 23.0912 71.4957C23.0951 71.5106 23.096 71.5262 23.0939 71.5414C23.0919 71.5567 23.0868 71.5714 23.079 71.5847C22.9984 71.7229 15.0409 85.4451 16.588 87.8878C17.541 89.3925 28.0951 90.5667 45.5443 91.1093L46.0072 91.124C47.3518 91.1653 48.5853 90.4725 49.5751 89.9133C50.4578 89.414 51.0953 89.0531 51.4283 89.4818C51.6077 89.7413 51.7713 90.0113 51.9184 90.2904C52.5102 91.3394 53.4043 92.925 54.3142 93.0377C54.4695 93.05 54.6254 93.0236 54.7682 92.9611C54.9109 92.8985 55.0359 92.8017 55.1321 92.6791C55.1525 92.6576 55.1803 92.6446 55.2099 92.6428C55.2395 92.641 55.2687 92.6506 55.2915 92.6695C55.3032 92.6789 56.4563 93.6122 57.3798 93.3187C57.852 93.1678 58.1933 92.714 58.3946 91.9699C58.3996 91.9517 58.409 91.9349 58.4218 91.9211C58.4347 91.9072 58.4507 91.8967 58.4685 91.8904C58.4864 91.8841 58.5055 91.8822 58.5242 91.8848C58.5429 91.8875 58.5607 91.8946 58.576 91.9057C58.5885 91.9144 59.81 92.7806 60.6882 92.4002C61.1685 92.1911 61.4687 91.6387 61.5812 90.7582C61.6921 89.7996 61.5485 88.8287 61.1647 87.9433C60.6863 86.8078 59.6898 84.7458 58.392 83.6965C58.3697 83.6783 58.3549 83.6525 58.3504 83.6241C58.3458 83.5956 58.3519 83.5665 58.3675 83.5423C58.3831 83.5181 58.407 83.5004 58.4347 83.4927C58.4625 83.485 58.4921 83.4878 58.5179 83.5005C58.6632 83.5732 62.0935 85.2954 63.5242 86.6418C64.2627 87.3375 64.9909 87.3729 65.3844 87.0989C65.8281 86.7902 65.8998 86.1157 65.5717 85.3383C64.7792 83.4614 59.9795 79.7376 59.1781 79.5422C59.1568 79.5369 59.1374 79.5258 59.1221 79.51C59.1068 79.4942 59.0962 79.4745 59.0916 79.453C59.087 79.4315 59.0885 79.4092 59.0959 79.3885C59.1034 79.3678 59.1166 79.3497 59.1338 79.3361C59.1514 79.3223 60.8928 77.9552 61.1347 76.665C61.2941 75.814 61.1891 75.157 60.8464 74.8626C60.5645 74.6205 60.117 74.6043 59.5166 74.8143C58.7743 75.074 58.0095 75.5906 57.2699 76.0898C56.3373 76.7193 55.3733 77.3702 54.3957 77.561C53.2838 77.778 52.1544 77.91 51.3301 78.0065C50.8503 78.0628 50.4716 78.1071 50.217 78.1518C48.7335 78.4136 45.1159 79.1777 43.5688 80.6116C43.546 80.6327 43.5157 80.644 43.4846 80.6428C43.4535 80.6416 43.4242 80.6281 43.4031 80.6053C43.3819 80.5825 43.3707 80.5522 43.3719 80.5211C43.3731 80.49 43.3866 80.4607 43.4094 80.4396C45.0022 78.9635 48.6723 78.1868 50.1763 77.9212C50.4376 77.875 50.8194 77.8303 51.3027 77.7738C52.1235 77.6777 53.2478 77.546 54.351 77.3308C55.2817 77.1492 56.2257 76.5119 57.1386 75.8955C57.8907 75.3879 58.6684 74.8629 59.4392 74.5933C60.1245 74.3531 60.6493 74.3843 60.999 74.6847C61.4131 75.0403 61.543 75.7589 61.3651 76.7081C61.1492 77.8596 59.8885 79.0106 59.4367 79.3917C60.6983 79.9802 65.0171 83.4222 65.7875 85.2473C66.2342 86.3053 65.9413 86.9969 65.518 87.2911C65.0467 87.619 64.1978 87.5976 63.3634 86.8125C62.3549 85.8633 60.2631 84.6879 59.1488 84.0933C60.1241 85.1601 60.8849 86.6754 61.3808 87.8524C61.7805 88.7759 61.9298 89.7884 61.8137 90.7879C61.6902 91.7564 61.3426 92.3711 60.781 92.6151C59.9579 92.9733 58.9405 92.4166 58.5756 92.1865C58.3461 92.9212 57.9683 93.3771 57.4506 93.5421C57.3018 93.5887 57.1466 93.612 56.9907 93.611Z" fill="white"/>
<path d="M55.2171 92.877C55.202 92.8771 55.187 92.8741 55.1731 92.8683C55.1442 92.8567 55.1212 92.8341 55.1091 92.8055C55.097 92.7768 55.0967 92.7446 55.1084 92.7158C55.5391 91.6555 53.4959 88.2019 52.6725 86.9607C52.6637 86.9479 52.6575 86.9334 52.6543 86.9182C52.6511 86.903 52.651 86.8873 52.6539 86.872C52.6569 86.8567 52.6628 86.8422 52.6715 86.8292C52.6801 86.8163 52.6912 86.8052 52.7042 86.7966C52.7171 86.788 52.7317 86.782 52.747 86.7791C52.7623 86.7762 52.778 86.7763 52.7932 86.7795C52.8084 86.7827 52.8229 86.789 52.8357 86.7978C52.8485 86.8067 52.8594 86.818 52.8677 86.8311C52.9915 87.0174 55.8907 91.4126 55.3256 92.8041C55.3168 92.8257 55.3018 92.8441 55.2825 92.8571C55.2632 92.8701 55.2404 92.877 55.2171 92.877ZM58.5075 92.1179C58.4781 92.1179 58.4498 92.1068 58.4282 92.0869C58.4066 92.0671 58.3933 92.0398 58.3908 92.0105C58.1435 89.0424 55.2206 85.1916 55.1911 85.153C55.1811 85.1408 55.1737 85.1268 55.1693 85.1117C55.1649 85.0966 55.1636 85.0808 55.1654 85.0652C55.1672 85.0495 55.1721 85.0344 55.1799 85.0208C55.1877 85.0071 55.1981 84.9952 55.2106 84.9856C55.2231 84.9761 55.2374 84.9691 55.2526 84.9652C55.2678 84.9613 55.2837 84.9605 55.2992 84.9628C55.3148 84.9652 55.3297 84.9706 55.3431 84.9788C55.3565 84.9871 55.3681 84.9979 55.3772 85.0107C55.4991 85.1701 58.3713 88.9543 58.6242 91.9908C58.6268 92.0218 58.617 92.0525 58.597 92.0762C58.5769 92.1 58.5483 92.1148 58.5173 92.1174C58.5141 92.1177 58.5108 92.1178 58.5075 92.1179ZM50.7511 78.0751C50.7309 78.0751 50.711 78.0699 50.6934 78.0599C50.6757 78.05 50.661 78.0357 50.6506 78.0183L46.5581 71.2405C46.542 71.2139 46.5372 71.1819 46.5446 71.1517C46.552 71.1215 46.5711 71.0955 46.5977 71.0794C46.6243 71.0633 46.6563 71.0585 46.6865 71.0659C46.7166 71.0733 46.7427 71.0924 46.7588 71.1191L50.8514 77.8972C50.8621 77.9149 50.8679 77.9352 50.8682 77.956C50.8685 77.9767 50.8633 77.9972 50.8531 78.0153C50.8429 78.0333 50.8281 78.0484 50.8101 78.0588C50.7922 78.0693 50.7718 78.0748 50.7511 78.0748V78.0751ZM17.3327 94.4344C17.3222 94.4345 17.3117 94.4331 17.3016 94.4305C17.2867 94.4264 17.2728 94.4194 17.2606 94.41C17.2485 94.4005 17.2383 94.3888 17.2307 94.3754C17.2231 94.362 17.2181 94.3472 17.2162 94.332C17.2143 94.3167 17.2154 94.3012 17.2195 94.2863L18.6837 88.9733C18.6919 88.9433 18.7118 88.9179 18.7388 88.9025C18.7658 88.8872 18.7979 88.8832 18.8278 88.8915C18.8578 88.8997 18.8832 88.9196 18.8986 88.9466C18.9139 88.9736 18.9179 89.0057 18.9096 89.0356L17.4457 94.3487C17.4389 94.3734 17.4241 94.3952 17.4037 94.4107C17.3833 94.4263 17.3584 94.4344 17.3327 94.4344ZM46.0031 94.4344C45.9721 94.4344 45.9422 94.4221 45.9203 94.4001C45.8983 94.3781 45.8859 94.3483 45.8859 94.3173V91.2413C45.8859 91.2102 45.8983 91.1804 45.9203 91.1585C45.9422 91.1365 45.9721 91.1241 46.0031 91.1241C46.0342 91.1241 46.064 91.1365 46.086 91.1585C46.108 91.1804 46.1203 91.2102 46.1203 91.2413V94.3175C46.1203 94.3486 46.108 94.3784 46.086 94.4004C46.064 94.4223 46.0342 94.4344 46.0031 94.4344Z" fill="white"/>
<path d="M108.514 94.4343H14.3516C14.3205 94.4343 14.2907 94.422 14.2687 94.4C14.2467 94.378 14.2344 94.3482 14.2344 94.3171C14.2344 94.2861 14.2467 94.2562 14.2687 94.2343C14.2907 94.2123 14.3205 94.2 14.3516 94.2H108.514C108.545 94.2 108.575 94.2123 108.597 94.2343C108.619 94.2562 108.631 94.2861 108.631 94.3171C108.631 94.3482 108.619 94.378 108.597 94.4C108.575 94.422 108.545 94.4343 108.514 94.4343Z" fill="black"/>
<path d="M101.758 90.5381H70.6389L75.3264 68.0381H106.25C106.32 68.0381 106.388 68.0536 106.451 68.0835C106.514 68.1135 106.57 68.1571 106.614 68.2111C106.658 68.2652 106.689 68.3283 106.705 68.396C106.722 68.4637 106.723 68.5343 106.709 68.6025L102.216 90.165C102.195 90.2704 102.137 90.3651 102.053 90.433C101.97 90.501 101.865 90.5381 101.758 90.5381Z" fill="#FED44A"/>
<path d="M73.4255 68.4112L68.9332 89.9737C68.919 90.0419 68.9202 90.1124 68.9366 90.1801C68.9531 90.2478 68.9844 90.311 69.0284 90.3651C69.0724 90.4191 69.1278 90.4627 69.1907 90.4926C69.2536 90.5226 69.3224 90.5381 69.3921 90.5381H70.639L75.3265 68.0381H73.8844C73.7767 68.0381 73.6722 68.0752 73.5886 68.1431C73.5051 68.2111 73.4474 68.3058 73.4255 68.4112Z" fill="black"/>
<path d="M97.8049 97.5132H90.364L85.6765 84.0132H93.443C93.5404 84.0132 93.6354 84.0435 93.7148 84.0999C93.7942 84.1564 93.854 84.2362 93.886 84.3282L98.2477 96.8907C98.2722 96.9613 98.2795 97.0368 98.2689 97.1108C98.2583 97.1848 98.2302 97.2552 98.1869 97.3161C98.1435 97.377 98.0863 97.4267 98.0198 97.461C97.9534 97.4953 97.8797 97.5132 97.8049 97.5132Z" fill="#2CA68F"/>
<path d="M84.3218 84.6357L88.6835 97.1982C88.7155 97.2902 88.7753 97.37 88.8547 97.4264C88.9341 97.4829 89.0291 97.5132 89.1265 97.5132H90.364L85.6765 84.0132H84.7648C84.69 84.0132 84.6163 84.031 84.5498 84.0653C84.4834 84.0996 84.4261 84.1492 84.3827 84.2102C84.3394 84.2711 84.3112 84.3415 84.3006 84.4155C84.29 84.4896 84.2973 84.565 84.3218 84.6357Z" fill="black"/>
<path d="M89.3514 78.2194H88.1139C87.5237 78.2194 87.0452 78.6979 87.0452 79.2881C87.0452 79.8784 87.5237 80.3569 88.1139 80.3569H89.3514C89.9417 80.3569 90.4202 79.8784 90.4202 79.2881C90.4202 78.6979 89.9417 78.2194 89.3514 78.2194Z" fill="black"/>
<path d="M68.3727 29.2833H53.9148C53.7905 29.2833 53.6712 29.3327 53.5833 29.4206C53.4954 29.5085 53.446 29.6278 53.446 29.7521V40.1208C53.446 40.2451 53.4954 40.3644 53.5833 40.4523C53.6712 40.5402 53.7905 40.5896 53.9148 40.5896H62.8782L64.6928 43.4787C64.7144 43.5132 64.7447 43.5414 64.7805 43.5606C64.8164 43.5798 64.8567 43.5894 64.8973 43.5883C64.938 43.5872 64.9777 43.5756 65.0125 43.5545C65.0473 43.5335 65.0761 43.5037 65.0959 43.4682L66.7032 40.5896H68.3727C68.497 40.5896 68.6162 40.5402 68.7041 40.4523C68.792 40.3644 68.8414 40.2451 68.8414 40.1208V29.7521C68.8414 29.6278 68.792 29.5085 68.7041 29.4206C68.6162 29.3327 68.497 29.2833 68.3727 29.2833Z" fill="#FD6F41"/>
<path d="M97.018 39.0314H75.0078C74.8835 39.0314 74.7643 39.0808 74.6764 39.1687C74.5884 39.2566 74.5391 39.3758 74.5391 39.5001V51.7547C74.5391 51.879 74.5884 51.9982 74.6764 52.0861C74.7643 52.174 74.8835 52.2234 75.0078 52.2234H91.4532L93.0024 54.6893C93.0241 54.7237 93.0543 54.7519 93.0901 54.7711C93.126 54.7903 93.1662 54.7998 93.2068 54.7988C93.2474 54.7977 93.2871 54.7861 93.3219 54.7651C93.3567 54.7441 93.3855 54.7144 93.4053 54.679L94.7764 52.2234H97.0177C97.1421 52.2234 97.2613 52.174 97.3492 52.0861C97.4371 51.9982 97.4865 51.879 97.4865 51.7547V39.5001C97.4865 39.3758 97.4371 39.2566 97.3492 39.1687C97.2613 39.0808 97.1421 39.0314 97.0177 39.0314H97.018Z" fill="#C1E5D9"/>
<path d="M57.6001 35.854C58.5048 35.854 58.5064 34.4478 57.6001 34.4478C56.6952 34.4478 56.6938 35.854 57.6001 35.854ZM61.1439 35.854C62.0486 35.854 62.0502 34.4478 61.1439 34.4478C60.2389 34.4478 60.2375 35.854 61.1439 35.854ZM64.6876 35.854C65.5923 35.854 65.5939 34.4478 64.6876 34.4478C63.7827 34.4478 63.7813 35.854 64.6876 35.854ZM94.4907 43.8228H86.3907C86.3286 43.8228 86.269 43.7981 86.225 43.7541C86.1811 43.7102 86.1564 43.6505 86.1564 43.5884C86.1564 43.5262 86.1811 43.4666 86.225 43.4227C86.269 43.3787 86.3286 43.354 86.3907 43.354H94.4907C94.5529 43.354 94.6125 43.3787 94.6565 43.4227C94.7004 43.4666 94.7251 43.5262 94.7251 43.5884C94.7251 43.6505 94.7004 43.7102 94.6565 43.7541C94.6125 43.7981 94.5529 43.8228 94.4907 43.8228ZM94.4907 45.9595H86.3907C86.3286 45.9595 86.269 45.9349 86.225 45.8909C86.1811 45.8469 86.1564 45.7873 86.1564 45.7252C86.1564 45.663 86.1811 45.6034 86.225 45.5594C86.269 45.5155 86.3286 45.4908 86.3907 45.4908H94.4907C94.5529 45.4908 94.6125 45.5155 94.6565 45.5594C94.7004 45.6034 94.7251 45.663 94.7251 45.7252C94.7251 45.7873 94.7004 45.8469 94.6565 45.8909C94.6125 45.9349 94.5529 45.9595 94.4907 45.9595ZM94.4907 48.0961H86.3907C86.3286 48.0961 86.269 48.0714 86.225 48.0275C86.1811 47.9835 86.1564 47.9239 86.1564 47.8617C86.1564 47.7996 86.1811 47.74 86.225 47.696C86.269 47.6521 86.3286 47.6274 86.3907 47.6274H94.4907C94.5529 47.6274 94.6125 47.6521 94.6565 47.696C94.7004 47.74 94.7251 47.7996 94.7251 47.8617C94.7251 47.9239 94.7004 47.9835 94.6565 48.0275C94.6125 48.0714 94.5529 48.0961 94.4907 48.0961ZM83.7845 49.2221H77.6345C77.4481 49.2219 77.2693 49.1477 77.1375 49.0159C77.0057 48.8841 76.9316 48.7053 76.9314 48.5189V42.9314C76.9316 42.745 77.0057 42.5663 77.1375 42.4344C77.2693 42.3026 77.4481 42.2285 77.6345 42.2283H83.7845C83.9709 42.2285 84.1497 42.3026 84.2815 42.4344C84.4133 42.5663 84.4874 42.745 84.4876 42.9314V48.5189C84.4874 48.7053 84.4133 48.8841 84.2815 49.0159C84.1497 49.1477 83.9709 49.2219 83.7845 49.2221ZM77.6345 42.697C77.5724 42.6971 77.5128 42.7218 77.4688 42.7658C77.4249 42.8097 77.4002 42.8693 77.4001 42.9314V48.5189C77.4002 48.5811 77.4249 48.6406 77.4688 48.6846C77.5128 48.7285 77.5724 48.7532 77.6345 48.7533H83.7845C83.8466 48.7532 83.9062 48.7285 83.9502 48.6846C83.9941 48.6406 84.0188 48.5811 84.0189 48.5189V42.9314C84.0188 42.8693 83.9941 42.8097 83.9502 42.7658C83.9062 42.7218 83.8466 42.6971 83.7845 42.697H77.6345Z" fill="black"/>
<path d="M85.1624 47.0286H70.7437C70.6193 47.0286 70.5001 47.078 70.4122 47.1659C70.3243 47.2538 70.2749 47.373 70.2749 47.4973V57.4343C70.2749 57.5587 70.3243 57.6779 70.4122 57.7658C70.5001 57.8537 70.6193 57.9031 70.7437 57.9031H73.664L75.2284 60.3936C75.2501 60.428 75.2803 60.4562 75.3162 60.4755C75.3521 60.4947 75.3923 60.5042 75.433 60.5031C75.4737 60.5021 75.5134 60.4904 75.5482 60.4694C75.583 60.4483 75.6117 60.4186 75.6315 60.383L77.0162 57.9031H85.1624C85.2867 57.9031 85.4059 57.8537 85.4939 57.7658C85.5818 57.6779 85.6311 57.5587 85.6311 57.4343V47.4973C85.6311 47.373 85.5818 47.2538 85.4939 47.1659C85.4059 47.078 85.2867 47.0286 85.1624 47.0286Z" fill="#2CA68F"/>
<path d="M82.0031 50.6395H73.9031C73.8409 50.6395 73.7813 50.6148 73.7373 50.5709C73.6934 50.5269 73.6687 50.4673 73.6687 50.4052C73.6687 50.343 73.6934 50.2834 73.7373 50.2394C73.7813 50.1955 73.8409 50.1708 73.9031 50.1708H82.0031C82.0652 50.1708 82.1248 50.1955 82.1688 50.2394C82.2128 50.2834 82.2375 50.343 82.2375 50.4052C82.2375 50.4673 82.2128 50.5269 82.1688 50.5709C82.1248 50.6148 82.0652 50.6395 82.0031 50.6395ZM82.0031 52.7761H73.9031C73.8409 52.7761 73.7813 52.7514 73.7373 52.7074C73.6934 52.6635 73.6687 52.6039 73.6687 52.5417C73.6687 52.4796 73.6934 52.4199 73.7373 52.376C73.7813 52.332 73.8409 52.3073 73.9031 52.3073H82.0031C82.0652 52.3073 82.1248 52.332 82.1688 52.376C82.2128 52.4199 82.2375 52.4796 82.2375 52.5417C82.2375 52.6039 82.2128 52.6635 82.1688 52.7074C82.1248 52.7514 82.0652 52.7761 82.0031 52.7761ZM82.0031 54.9129H73.9031C73.8409 54.9129 73.7813 54.8882 73.7373 54.8442C73.6934 54.8003 73.6687 54.7407 73.6687 54.6785C73.6687 54.6164 73.6934 54.5567 73.7373 54.5128C73.7813 54.4688 73.8409 54.4441 73.9031 54.4441H82.0031C82.0652 54.4441 82.1248 54.4688 82.1688 54.5128C82.2128 54.5567 82.2375 54.6164 82.2375 54.6785C82.2375 54.7407 82.2128 54.8003 82.1688 54.8442C82.1248 54.8882 82.0652 54.9129 82.0031 54.9129Z" fill="black"/>
<path d="M11.4861 79.6064H24.6432V81.1074H11.4861V79.6064Z" fill="#FED44A"/>
<path d="M94.4907 62.6561H107.648V64.1571H94.4907V62.6561Z" fill="#674CFB"/>
<path d="M24.7869 34.4004H37.944V35.9013H24.7869V34.4004Z" fill="#FD6F41"/>
<path d="M82.0032 30.3595C81.7904 30.3595 81.5823 30.2964 81.4053 30.1781C81.2283 30.0599 81.0904 29.8918 81.0089 29.6951C80.9274 29.4985 80.9061 29.2821 80.9477 29.0733C80.9892 28.8645 81.0917 28.6728 81.2422 28.5223C81.3927 28.3717 81.5845 28.2692 81.7933 28.2277C82.002 28.1862 82.2184 28.2075 82.4151 28.289C82.6118 28.3704 82.7798 28.5084 82.8981 28.6853C83.0164 28.8623 83.0795 29.0704 83.0795 29.2833C83.0792 29.5686 82.9657 29.8422 82.7639 30.044C82.5621 30.2457 82.2886 30.3592 82.0032 30.3595ZM82.0032 28.4414C81.8367 28.4414 81.674 28.4908 81.5355 28.5833C81.3971 28.6758 81.2892 28.8073 81.2254 28.9611C81.1617 29.1149 81.1451 29.2842 81.1775 29.4475C81.21 29.6108 81.2902 29.7608 81.4079 29.8786C81.5257 29.9963 81.6757 30.0765 81.839 30.109C82.0023 30.1415 82.1716 30.1248 82.3254 30.0611C82.4792 29.9974 82.6107 29.8894 82.7032 29.751C82.7957 29.6126 82.8451 29.4498 82.8451 29.2833C82.8448 29.0601 82.756 28.8461 82.5982 28.6883C82.4404 28.5305 82.2264 28.4417 82.0032 28.4414ZM52.7701 60.1927C52.5573 60.1926 52.3492 60.1295 52.1723 60.0112C51.9953 59.8929 51.8574 59.7248 51.776 59.5282C51.6945 59.3315 51.6732 59.1151 51.7148 58.9064C51.7563 58.6976 51.8588 58.5059 52.0093 58.3554C52.1598 58.2049 52.3516 58.1024 52.5603 58.0609C52.7691 58.0193 52.9854 58.0406 53.1821 58.122C53.3787 58.2035 53.5468 58.3414 53.6651 58.5183C53.7834 58.6953 53.8465 58.9033 53.8466 59.1162C53.8463 59.4016 53.7328 59.6752 53.531 59.877C53.3291 60.0788 53.0555 60.1923 52.7701 60.1927ZM52.7701 58.2745C52.6036 58.2746 52.4408 58.324 52.3024 58.4165C52.164 58.5091 52.0561 58.6406 51.9925 58.7945C51.9288 58.9483 51.9122 59.1176 51.9447 59.2809C51.9772 59.4442 52.0574 59.5942 52.1752 59.7119C52.293 59.8296 52.443 59.9097 52.6063 59.9422C52.7696 59.9746 52.9389 59.9579 53.0927 59.8941C53.2465 59.8303 53.378 59.7224 53.4705 59.5839C53.5629 59.4455 53.6123 59.2827 53.6122 59.1162C53.6119 58.893 53.5231 58.679 53.3652 58.5212C53.2073 58.3634 52.9933 58.2747 52.7701 58.2745Z" fill="black"/>
<path d="M101.927 56.3006L100.211 55.8318L101.458 54.3506L101.927 56.3006Z" fill="#FD6F41"/>
<path d="M17.1365 66.3963L15.4209 65.9276L16.6678 64.4463L17.1365 66.3963ZM66.7516 23.366L65.036 22.8973L66.2829 21.416L66.7516 23.366Z" fill="#FED44A"/>
<path d="M32.223 41.3672L30.5073 40.8985L31.7542 39.4172L32.223 41.3672Z" fill="#674CFB"/>
<path d="M62.2906 98.584L60.575 98.1153L61.8218 96.634L62.2906 98.584Z" fill="#2CA68F"/>
</svg>
