<svg width="100" height="100" viewBox="0 0 100 100" fill="none" xmlns="http://www.w3.org/2000/svg">
<path d="M87.9519 1.46484H23.6941C22.1401 1.46484 20.6497 2.08217 19.5509 3.18101C18.452 4.27986 17.8347 5.77022 17.8347 7.32422V87.9311L11.9753 98.5352H76.2332C77.7872 98.5352 79.2775 97.9178 80.3764 96.819C81.4752 95.7201 82.0925 94.2298 82.0925 92.6758V15.1367" fill="white"/>
<path d="M69.5925 84.8633H5.53003V92.6758C5.53003 94.2298 6.14735 95.7201 7.2462 96.819C8.34505 97.9178 9.8354 98.5352 11.3894 98.5352H76.4285" fill="#DADADC"/>
<path d="M69.7878 84.8633V92.3828C69.7878 94.0145 70.436 95.5794 71.5898 96.7332C72.7436 97.887 74.3085 98.5352 75.9402 98.5352C77.5719 98.5352 79.1368 97.887 80.2905 96.7332C81.4443 95.5794 82.0925 94.0145 82.0925 92.3828V84.8633" fill="white"/>
<path d="M88.2812 1.46484C89.9225 1.46484 91.4967 2.11686 92.6573 3.27746C93.8179 4.43806 94.4699 6.01218 94.4699 7.65352V15.1367H82.0925V7.65352C82.0925 6.84081 82.2526 6.03606 82.5636 5.28521C82.8746 4.53437 83.3305 3.85214 83.9051 3.27746C84.4798 2.70279 85.1621 2.24694 85.9129 1.93593C86.6637 1.62492 87.4685 1.46484 88.2812 1.46484Z" fill="#DADADC"/>
<path d="M70.3489 10.2539H29.8704C28.2523 10.2539 26.9407 11.5656 26.9407 13.1836V20.9961C26.9407 22.6141 28.2523 23.9258 29.8704 23.9258H70.3489C71.9669 23.9258 73.2786 22.6141 73.2786 20.9961V13.1836C73.2786 11.5656 71.9669 10.2539 70.3489 10.2539Z" fill="white"/>
<path d="M22.7398 62.0117C34.4897 62.0117 44.0148 52.4866 44.0148 40.7367C44.0148 28.9869 34.4897 19.4617 22.7398 19.4617C10.99 19.4617 1.46484 28.9869 1.46484 40.7367C1.46484 52.4866 10.99 62.0117 22.7398 62.0117Z" fill="white"/>
<path d="M22.7397 19.4619C21.7597 19.4621 20.7809 19.5295 19.8101 19.6635C24.8963 20.3707 29.5551 22.8936 32.9269 26.7666C36.2987 30.6397 38.1559 35.6016 38.1559 40.7367C38.1559 45.8719 36.2987 50.8337 32.9269 54.7068C29.5551 58.5799 24.8963 61.1028 19.8101 61.81C22.6999 62.2118 25.6415 62.0149 28.4521 61.2316C31.2626 60.4483 33.882 59.0952 36.1474 57.2566C38.4128 55.418 40.2759 53.133 41.6207 50.5438C42.9655 47.9545 43.7634 45.1164 43.9648 42.2057C44.1662 39.295 43.7667 36.3739 42.7912 33.6242C41.8157 30.8744 40.2851 28.3547 38.2945 26.2216C36.3038 24.0885 33.8957 22.3877 31.2198 21.2248C28.5439 20.0619 25.6574 19.4619 22.7397 19.4619Z" fill="#E1E1E3" stroke="#E1E1E3" stroke-miterlimit="10"/>
<path d="M33.9442 40.7367C33.9445 39.9581 33.8713 39.1813 33.7257 38.4164L37.1411 35.7205L34.2847 30.7731L30.5196 32.2723C29.2975 31.0262 27.7988 30.0858 26.1452 29.5272L25.596 25.7567H19.8831L19.3343 29.5272C17.6806 30.0857 16.1819 31.0262 14.9597 32.2723L11.1946 30.7731L8.33838 35.7203L11.7536 38.4162C11.4623 39.9495 11.4623 41.5239 11.7536 43.0572L8.33838 45.7531L11.1946 50.7004L14.9597 49.2012C16.1818 50.4472 17.6805 51.3877 19.3341 51.9463L19.8833 55.717H25.5962L26.145 51.9463C27.7987 51.3877 29.2974 50.4473 30.5196 49.2012L34.2847 50.7006L37.1411 45.7533L33.7257 43.0572C33.8713 42.2924 33.9445 41.5153 33.9442 40.7367Z" fill="#EE553D"/>
<path d="M22.7398 45.4436C25.3393 45.4436 27.4466 43.3363 27.4466 40.7367C27.4466 38.1372 25.3393 36.0299 22.7398 36.0299C20.1403 36.0299 18.033 38.1372 18.033 40.7367C18.033 43.3363 20.1403 45.4436 22.7398 45.4436Z" fill="#F0F0F2"/>
<path d="M28.9113 40.7367C28.9113 39.5161 28.5493 38.3228 27.8711 37.3079C27.193 36.293 26.2291 35.5019 25.1013 35.0348C23.9736 34.5677 22.7327 34.4455 21.5355 34.6836C20.3383 34.9218 19.2386 35.5096 18.3755 36.3728C17.5124 37.2359 16.9246 38.3356 16.6865 39.5328C16.4484 40.73 16.5706 41.9709 17.0377 43.0987C17.5049 44.2264 18.296 45.1902 19.3109 45.8684C20.3259 46.5465 21.5191 46.9084 22.7398 46.9084C24.376 46.9065 25.9447 46.2557 27.1017 45.0987C28.2587 43.9417 28.9095 42.373 28.9113 40.7367ZM22.7398 43.9787C22.0986 43.9788 21.4717 43.7886 20.9386 43.4324C20.4054 43.0762 19.9898 42.5699 19.7444 41.9775C19.499 41.3851 19.4348 40.7333 19.5599 40.1044C19.6849 39.4755 19.9937 38.8978 20.4471 38.4444C20.9005 37.9909 21.4781 37.6821 22.107 37.557C22.7359 37.4319 23.3878 37.4961 23.9802 37.7415C24.5726 37.9869 25.0789 38.4024 25.4352 38.9355C25.7914 39.4687 25.9816 40.0955 25.9816 40.7367C25.9806 41.5962 25.6387 42.4202 25.031 43.028C24.4233 43.6358 23.5993 43.9777 22.7398 43.9787ZM27.0458 55.9281L27.4704 53.0105C28.6979 52.4908 29.8357 51.7806 30.8417 50.9061L33.7429 52.0615C34.0699 52.1917 34.4328 52.1998 34.7652 52.0844C35.0977 51.969 35.3775 51.7378 35.5534 51.433L38.4097 46.4857C38.5857 46.181 38.6461 45.823 38.5798 45.4773C38.5136 45.1316 38.325 44.8214 38.0488 44.6033L35.3046 42.4373C35.4437 41.3078 35.4437 40.1656 35.3046 39.0361L38.0488 36.8701C38.3249 36.6521 38.5134 36.3419 38.5797 35.9963C38.646 35.6507 38.5856 35.2928 38.4097 34.9881L35.5533 30.0406C35.3773 29.7359 35.0975 29.5046 34.765 29.3892C34.4326 29.2738 34.0697 29.282 33.7427 29.4121L30.8415 30.5674C29.8356 29.6928 28.6979 28.9826 27.4704 28.4629L27.0458 25.5455C26.9951 25.1973 26.8207 24.8789 26.5545 24.6487C26.2883 24.4185 25.9481 24.2918 25.5962 24.2918H19.8833C19.5314 24.2918 19.1912 24.4185 18.925 24.6487C18.6589 24.8789 18.4844 25.1973 18.4337 25.5455L18.0089 28.4629C16.7815 28.9826 15.6438 29.6928 14.6378 30.5674L11.7367 29.4121C11.4097 29.2818 11.0468 29.2736 10.7143 29.3891C10.3818 29.5045 10.102 29.7358 9.9261 30.0406L7.06966 34.9879C6.89366 35.2927 6.83329 35.6507 6.8996 35.9964C6.96592 36.342 7.15448 36.6523 7.43079 36.8703L10.1747 39.0363C10.0356 40.1657 10.0356 41.3079 10.1747 42.4373L7.4306 44.6033C7.15437 44.8214 6.96588 45.1316 6.8996 45.4772C6.83332 45.8228 6.89369 46.1808 7.06966 46.4855L9.9261 51.4328C10.102 51.7376 10.3818 51.9689 10.7143 52.0844C11.0468 52.1998 11.4097 52.1917 11.7367 52.0615L14.6376 50.9061C15.6437 51.7806 16.7814 52.4908 18.0089 53.0105L18.4337 55.9281C18.4844 56.2764 18.6589 56.5947 18.925 56.8249C19.1912 57.0552 19.5314 57.1818 19.8833 57.1818H25.5962C25.9481 57.1818 26.2883 57.0552 26.5545 56.8249C26.8207 56.5947 26.9951 56.2764 27.0458 55.9281ZM24.6956 51.7352L24.329 54.2521H21.1503L20.7837 51.7352C20.7446 51.4669 20.6319 51.2148 20.458 51.0068C20.2842 50.7989 20.056 50.6432 19.799 50.5572C18.3644 50.07 17.0641 49.2532 16.0025 48.1725C15.8002 47.9675 15.542 47.8266 15.2601 47.7676C14.9783 47.7085 14.6852 47.7339 14.4177 47.8404L11.8298 48.8709L10.2404 46.118L12.6611 44.207C12.8714 44.041 13.0322 43.8205 13.1258 43.5694C13.2195 43.3184 13.2425 43.0464 13.1923 42.7832C12.9357 41.4309 12.9357 40.0425 13.1923 38.6902C13.2425 38.427 13.2194 38.1551 13.1258 37.904C13.0321 37.653 12.8714 37.4324 12.6611 37.2664L10.2404 35.3557L11.8298 32.6025L14.4177 33.6332C14.6852 33.7398 14.9782 33.7652 15.2601 33.7061C15.5419 33.647 15.8001 33.5062 16.0023 33.3012C17.0642 32.2205 18.3646 31.4037 19.7992 30.9164C20.0562 30.8304 20.2843 30.6747 20.4582 30.4667C20.632 30.2587 20.7447 30.0065 20.7837 29.7383L21.1503 27.2215H24.329L24.6956 29.7383C24.7347 30.0065 24.8475 30.2586 25.0213 30.4666C25.1952 30.6746 25.4233 30.8302 25.6804 30.9162C27.115 31.4036 28.4154 32.2204 29.4773 33.3012C29.6795 33.5062 29.9376 33.647 30.2194 33.706C30.5012 33.7651 30.7942 33.7398 31.0616 33.6332L33.6495 32.6025L35.2392 35.3555L32.8181 37.2664C32.6077 37.4325 32.4469 37.6531 32.3532 37.9042C32.2595 38.1553 32.2366 38.4273 32.2868 38.6906C32.5437 40.0426 32.5437 41.4308 32.2868 42.7828C32.2366 43.0461 32.2596 43.3181 32.3532 43.5692C32.4469 43.8204 32.6077 44.041 32.8181 44.207L35.2392 46.118L33.6495 48.8709L31.0616 47.8402C30.7941 47.7338 30.5012 47.7086 30.2194 47.7676C29.9376 47.8266 29.6794 47.9674 29.4771 48.1723C28.4154 49.2531 27.115 50.07 25.6804 50.5572C25.4233 50.6432 25.1952 50.7989 25.0213 51.0068C24.8475 51.2148 24.7347 51.4669 24.6956 51.7352ZM73.2785 42.9688H51.5624C51.1739 42.9688 50.8013 43.1231 50.5266 43.3978C50.2519 43.6725 50.0976 44.0451 50.0976 44.4336C50.0976 44.8221 50.2519 45.1947 50.5266 45.4694C50.8013 45.7441 51.1739 45.8984 51.5624 45.8984H73.2785C73.667 45.8984 74.0395 45.7441 74.3142 45.4694C74.589 45.1947 74.7433 44.8221 74.7433 44.4336C74.7433 44.0451 74.589 43.6725 74.3142 43.3978C74.0395 43.1231 73.667 42.9688 73.2785 42.9688ZM88.2812 0C88.2076 0 88.1347 0.00351562 88.0615 0.00566406C88.0249 0.00292969 87.9882 0 87.9511 0H23.6933C21.7515 0.00217121 19.8898 0.774525 18.5167 2.14761C17.1436 3.5207 16.3712 5.38238 16.3691 7.32422V18.9066C11.6466 20.2852 7.49845 23.1581 4.54714 27.0941C1.59583 31.0301 0.000488281 35.8171 0.000488281 40.7367C0.000488281 45.6563 1.59583 50.4433 4.54714 54.3793C7.49845 58.3154 11.6466 61.1882 16.3691 62.5668V83.3984H5.53001C5.14151 83.3984 4.76892 83.5528 4.49421 83.8275C4.2195 84.1022 4.06517 84.4748 4.06517 84.8633V92.6758C4.06734 94.6176 4.83969 96.4793 6.21278 97.8524C7.58587 99.2255 9.44755 99.9978 11.3894 100H76.4284C76.4817 99.9999 76.5349 99.9969 76.5878 99.991C78.4659 99.8978 80.2364 99.0867 81.5335 97.7253C82.8306 96.3639 83.5551 94.5562 83.5574 92.6758V16.6016H94.4699C94.8584 16.6016 95.2309 16.4472 95.5057 16.1725C95.7804 15.8978 95.9347 15.5252 95.9347 15.1367V7.65352C95.9324 5.62438 95.1253 3.67899 93.6905 2.24418C92.2557 0.809355 90.3103 0.00227459 88.2812 0ZM2.92962 40.7367C2.92962 36.8186 4.09147 32.9885 6.26823 29.7308C8.445 26.473 11.5389 23.9339 15.1588 22.4345C18.7786 20.9351 22.7618 20.5428 26.6045 21.3072C30.4473 22.0716 33.9772 23.9583 36.7477 26.7288C39.5182 29.4993 41.4049 33.0292 42.1693 36.8719C42.9337 40.7147 42.5414 44.6979 41.042 48.3177C39.5426 51.9376 37.0035 55.0315 33.7457 57.2083C30.4879 59.385 26.6579 60.5469 22.7398 60.5469C17.4876 60.5409 12.4523 58.4519 8.73845 54.7381C5.02461 51.0242 2.93556 45.9889 2.92962 40.7367ZM28.4062 18.7117V13.1836C28.4066 12.7952 28.5611 12.4229 28.8357 12.1482C29.1103 11.8736 29.4827 11.7192 29.871 11.7188H70.3495C70.7379 11.7192 71.1103 11.8736 71.3849 12.1482C71.6595 12.4229 71.814 12.7952 71.8144 13.1836V20.9961C71.814 21.3845 71.6595 21.7568 71.3849 22.0314C71.1103 22.3061 70.7379 22.4605 70.3495 22.4609H36.255C33.9054 20.7161 31.24 19.443 28.4062 18.7117ZM11.3894 97.0703C10.2243 97.069 9.10731 96.6055 8.28347 95.7817C7.45962 94.9579 6.9962 93.8409 6.99485 92.6758V86.3281H68.323V92.3828C68.3218 94.0828 68.8923 95.7337 69.9427 97.0703H11.3894ZM80.6277 7.65352V92.3828C80.6277 93.626 80.1338 94.8183 79.2547 95.6974C78.3757 96.5764 77.1834 97.0703 75.9402 97.0703C74.697 97.0703 73.5047 96.5764 72.6256 95.6974C71.7465 94.8183 71.2527 93.626 71.2527 92.3828V84.8633C71.2527 84.4748 71.0983 84.1022 70.8236 83.8275C70.5489 83.5528 70.1763 83.3984 69.7878 83.3984C69.755 83.3984 69.7226 83.4012 69.6902 83.4033C69.6577 83.4014 69.6257 83.3984 69.5925 83.3984H19.2988V63.2164C23.9509 63.931 28.7102 63.1837 32.9195 61.0778C37.1288 58.9719 40.5806 55.6113 42.7983 51.4598C45.016 47.3083 45.8903 42.5707 45.3004 37.9011C44.7105 33.2315 42.6856 28.8602 39.5052 25.3906H70.3495C71.5146 25.3893 72.6316 24.9259 73.4555 24.102C74.2793 23.2782 74.7427 22.1612 74.7441 20.9961V13.1836C74.7427 12.0185 74.2793 10.9015 73.4555 10.0777C72.6316 9.25383 71.5146 8.79041 70.3495 8.78906H29.871C28.7059 8.79041 27.589 9.25383 26.7651 10.0777C25.9413 10.9015 25.4778 12.0185 25.4765 13.1836V18.1621C23.4225 17.9137 21.3442 17.9456 19.2988 18.257V7.32422C19.3001 6.15913 19.7635 5.04214 20.5874 4.2183C21.4112 3.39446 22.5282 2.93103 23.6933 2.92969H82.2661C81.2038 4.27495 80.6265 5.93935 80.6277 7.65352ZM93.005 13.6719H83.5574V7.65352C83.5574 6.40068 84.055 5.19915 84.9409 4.31326C85.8268 3.42738 87.0283 2.92969 88.2812 2.92969C89.534 2.92969 90.7355 3.42738 91.6214 4.31326C92.5073 5.19915 93.005 6.40068 93.005 7.65352V13.6719ZM73.2785 34.1797H51.7577C51.3692 34.1797 50.9967 34.334 50.7219 34.6087C50.4472 34.8834 50.2929 35.256 50.2929 35.6445C50.2929 36.033 50.4472 36.4056 50.7219 36.6803C50.9967 36.955 51.3692 37.1094 51.7577 37.1094H73.2785C73.667 37.1094 74.0395 36.955 74.3142 36.6803C74.589 36.4056 74.7433 36.033 74.7433 35.6445C74.7433 35.256 74.589 34.8834 74.3142 34.6087C74.0395 34.334 73.667 34.1797 73.2785 34.1797ZM73.2785 60.5469H41.0519C40.6634 60.5469 40.2908 60.7012 40.0161 60.9759C39.7414 61.2506 39.587 61.6232 39.587 62.0117C39.587 62.4002 39.7414 62.7728 40.0161 63.0475C40.2908 63.3222 40.6634 63.4766 41.0519 63.4766H73.2785C73.667 63.4766 74.0395 63.3222 74.3142 63.0475C74.589 62.7728 74.7433 62.4002 74.7433 62.0117C74.7433 61.6232 74.589 61.2506 74.3142 60.9759C74.0395 60.7012 73.667 60.5469 73.2785 60.5469ZM73.2785 51.7578H48.0468C47.6583 51.7578 47.2857 51.9121 47.011 52.1869C46.7363 52.4616 46.582 52.8342 46.582 53.2227C46.582 53.6112 46.7363 53.9837 47.011 54.2585C47.2857 54.5332 47.6583 54.6875 48.0468 54.6875H73.2785C73.667 54.6875 74.0395 54.5332 74.3142 54.2585C74.589 53.9837 74.7433 53.6112 74.7433 53.2227C74.7433 52.8342 74.589 52.4616 74.3142 52.1869C74.0395 51.9121 73.667 51.7578 73.2785 51.7578ZM73.2785 69.3359H26.4034C26.0149 69.3359 25.6424 69.4903 25.3676 69.765C25.0929 70.0397 24.9386 70.4123 24.9386 70.8008C24.9386 71.1893 25.0929 71.5619 25.3676 71.8366C25.6424 72.1113 26.0149 72.2656 26.4034 72.2656H73.2785C73.667 72.2656 74.0395 72.1113 74.3142 71.8366C74.589 71.5619 74.7433 71.1893 74.7433 70.8008C74.7433 70.4123 74.589 70.0397 74.3142 69.765C74.0395 69.4903 73.667 69.3359 73.2785 69.3359Z" fill="#3C3B41"/>
</svg>
