<svg width="100" height="100" viewBox="0 0 100 100" fill="none" xmlns="http://www.w3.org/2000/svg">
<g clip-path="url(#clip0_2_773)">
<path d="M32.8943 86.4043L41.6455 96.4223L62.6025 93.5436L61.5662 84.2164L32.8943 86.4043Z" fill="white"/>
<path d="M95.6055 86.8164H4.39453V26.2695C4.39453 24.7155 5.01186 23.2252 6.1107 22.1263C7.20955 21.0275 8.6999 20.4102 10.2539 20.4102H89.7461C91.3001 20.4102 92.7905 21.0275 93.8893 22.1263C94.9881 23.2252 95.6055 24.7155 95.6055 26.2695V86.8164Z" fill="#AEADB3"/>
<path d="M87.793 78.2227V29.0039C87.793 28.5724 87.4432 28.2227 87.0117 28.2227L12.9883 28.2227C12.5568 28.2227 12.207 28.5724 12.207 29.0039V78.2227C12.207 78.6541 12.5568 79.0039 12.9883 79.0039H87.0117C87.4432 79.0039 87.793 78.6541 87.793 78.2227Z" fill="white"/>
<path d="M92.6758 98.5352H7.32422C5.77022 98.5352 4.27986 97.9178 3.18101 96.819C2.08217 95.7201 1.46484 94.2298 1.46484 92.6758V86.8164H38.2812L43.2826 91.8178C43.832 92.3671 44.5772 92.6758 45.3541 92.6758H54.6459C55.4228 92.6758 56.168 92.3671 56.7174 91.8178L61.7188 86.8164H98.5352V92.6758C98.5352 94.2298 97.9178 95.7201 96.819 96.819C95.7201 97.9178 94.2298 98.5352 92.6758 98.5352Z" fill="#8B8893"/>
<path d="M76.2695 79.0039H23.7305V28.4064L39.5508 12.5861H73.3398C74.1168 12.5861 74.862 12.8948 75.4114 13.4442C75.9609 13.9936 76.2695 14.7388 76.2695 15.5158V79.0039Z" fill="white"/>
<path d="M39.5508 21.3752H67.2852C67.6478 21.3752 67.9955 21.5192 68.2519 21.7756C68.5083 22.032 68.6523 22.3798 68.6523 22.7424V27.0392C68.6523 27.4018 68.5083 27.7496 68.2519 28.006C67.9955 28.2624 67.6478 28.4064 67.2852 28.4064H39.5508V21.3752Z" fill="#C8C5CC"/>
<path d="M39.5508 12.5861V28.4064H23.7305L39.5508 12.5861Z" fill="#DADADC"/>
<path d="M85.6266 89.444C92.7558 89.444 98.5352 83.6646 98.5352 76.5354C98.5352 69.4061 92.7558 63.6268 85.6266 63.6268C78.4974 63.6268 72.718 69.4061 72.718 76.5354C72.718 83.6646 78.4974 89.444 85.6266 89.444Z" fill="#24B378"/>
<path d="M85.6266 63.6268C84.827 63.6276 84.0292 63.7023 83.2434 63.85C86.2018 64.4054 88.873 65.9772 90.795 68.2936C92.7171 70.6101 93.7691 73.5254 93.7691 76.5355C93.7691 79.5455 92.7171 82.4608 90.795 84.7773C88.873 87.0937 86.2018 88.6656 83.2434 89.2209C85.0087 89.5528 86.8238 89.5126 88.5726 89.1029C90.3215 88.6933 91.9656 87.9231 93.3998 86.8417C94.834 85.7603 96.0267 84.3916 96.9017 82.8229C97.7766 81.2542 98.3146 79.5202 98.4811 77.7317C98.6476 75.9433 98.4391 74.1398 97.8688 72.4365C97.2985 70.7333 96.379 69.1678 95.1691 67.8402C93.9592 66.5126 92.4856 65.4522 90.8424 64.7266C89.1993 64.0011 87.4228 63.6265 85.6266 63.6268Z" fill="#19AC66"/>
<path d="M82.3686 81.2242C82.5046 81.3602 82.6661 81.4682 82.8438 81.5418C83.0215 81.6154 83.212 81.6533 83.4044 81.6533C83.5968 81.6533 83.7873 81.6154 83.965 81.5418C84.1427 81.4682 84.3042 81.3602 84.4402 81.2242L91.7463 73.9184C92.021 73.6436 92.1754 73.271 92.1754 72.8825C92.1754 72.4939 92.0211 72.1213 91.7464 71.8466C91.4717 71.5718 91.0991 71.4175 90.7105 71.4174C90.322 71.4174 89.9494 71.5718 89.6746 71.8465L83.4043 78.1168L81.5785 76.2908C81.3038 76.0161 80.9311 75.8618 80.5426 75.8618C80.1541 75.8618 79.7815 76.0162 79.5067 76.2909C79.232 76.5657 79.0777 76.9383 79.0777 77.3268C79.0777 77.7154 79.2321 78.088 79.5068 78.3627L82.3686 81.2242ZM32.5195 38.5152H67.8338C68.2223 38.5152 68.5949 38.3609 68.8696 38.0862C69.1443 37.8115 69.2986 37.4389 69.2986 37.0504C69.2986 36.6619 69.1443 36.2893 68.8696 36.0146C68.5949 35.7399 68.2223 35.5855 67.8338 35.5855H32.5195C32.131 35.5855 31.7584 35.7399 31.4837 36.0146C31.209 36.2893 31.0547 36.6619 31.0547 37.0504C31.0547 37.4389 31.209 37.8115 31.4837 38.0862C31.7584 38.3609 32.131 38.5152 32.5195 38.5152ZM98.5352 85.3516H96.9664C98.9149 82.8549 99.9816 79.7832 99.9997 76.6162C100.018 73.4492 98.9864 70.3655 97.0666 67.8467C97.0678 67.8223 97.0703 67.798 97.0703 67.7734V26.2695C97.0681 24.3277 96.2958 22.466 94.9227 21.0929C93.5496 19.7198 91.6879 18.9475 89.7461 18.9453H77.7344V15.5158C77.733 14.3507 77.2696 13.2337 76.4458 12.4099C75.6219 11.586 74.5049 11.1226 73.3398 11.1213H39.5508C39.5019 11.1213 39.4531 11.1238 39.4045 11.1287C39.3691 11.1322 39.3346 11.1385 39.3 11.1443C39.2875 11.1465 39.2746 11.1476 39.2623 11.1502C39.221 11.1586 39.1801 11.1689 39.1396 11.1808C39.1346 11.1824 39.1291 11.1834 39.124 11.1849C39.083 11.1974 39.043 11.2123 39.0035 11.2279C38.9988 11.2299 38.9938 11.2312 38.9893 11.2334C38.9521 11.2486 38.9164 11.2662 38.8811 11.2844C38.8738 11.2881 38.8664 11.291 38.8596 11.2949C38.8275 11.3119 38.7971 11.331 38.7666 11.3504C38.7564 11.3568 38.7461 11.3621 38.7361 11.3689C38.7078 11.3879 38.6809 11.4088 38.6541 11.4297C38.6432 11.4381 38.6316 11.4457 38.6209 11.4545C38.5879 11.4814 38.5564 11.5103 38.5262 11.5404C38.5225 11.5437 38.5184 11.5469 38.515 11.5502L31.1199 18.9453H10.2539C8.31207 18.9475 6.45039 19.7198 5.0773 21.0929C3.70421 22.466 2.93186 24.3277 2.92969 26.2695V85.3516H1.46484C1.07634 85.3516 0.703754 85.5059 0.429043 85.7806C0.154331 86.0553 0 86.4279 0 86.8164L0 92.6758C0.00217121 94.6176 0.774525 96.4793 2.14761 97.8524C3.5207 99.2255 5.38238 99.9978 7.32422 100H92.6758C94.6176 99.9978 96.4793 99.2255 97.8524 97.8524C99.2255 96.4793 99.9978 94.6176 100 92.6758V86.8164C100 86.4279 99.8457 86.0553 99.571 85.7806C99.2962 85.5059 98.9237 85.3516 98.5352 85.3516ZM77.7344 21.875H89.7461C90.9112 21.8763 92.0282 22.3398 92.852 23.1636C93.6759 23.9874 94.1393 25.1044 94.1406 26.2695V64.9641C92.6763 63.882 91.0191 63.0891 89.2578 62.6277V28.2226C89.2578 27.8341 89.1035 27.4616 88.8288 27.1868C88.5541 26.9121 88.1815 26.7578 87.793 26.7578H77.7344V21.875ZM77.7344 29.6875H86.3281V62.1797C86.0944 62.1682 85.8605 62.1623 85.6266 62.1621C82.8202 62.1596 80.0753 62.9836 77.7344 64.5312V29.6875ZM85.6266 65.0918C87.8899 65.0918 90.1025 65.763 91.9844 67.0204C93.8663 68.2779 95.3331 70.0652 96.1992 72.1562C97.0654 74.2473 97.292 76.5483 96.8504 78.7682C96.4088 80.988 95.3189 83.0271 93.7184 84.6276C92.118 86.228 90.0789 87.3179 87.859 87.7594C85.6391 88.201 83.3382 87.9743 81.2471 87.1081C79.156 86.2419 77.3688 84.7751 76.1113 82.8932C74.8539 81.0113 74.1828 78.7987 74.1828 76.5353C74.1863 73.5014 75.3931 70.5926 77.5384 68.4473C79.6838 66.3019 82.5926 65.0952 85.6266 65.0918ZM41.0156 22.8398H67.1875V26.9414H41.0156V22.8398ZM67.2852 29.8711C68.036 29.8702 68.7558 29.5715 69.2867 29.0406C69.8177 28.5097 70.1163 27.7899 70.1172 27.0391V22.7422C70.1163 21.9913 69.8177 21.2715 69.2867 20.7406C68.7558 20.2097 68.036 19.911 67.2852 19.9101H41.0156V14.0508H73.3398C73.7282 14.0512 74.1006 14.2056 74.3752 14.4803C74.6498 14.7549 74.8043 15.1272 74.8047 15.5156V67.0918C72.5135 69.7041 71.2511 73.0608 71.2531 76.5355C71.2531 76.8734 71.2689 77.2074 71.2922 77.5393H25.1953V29.8713L67.2852 29.8711ZM38.0859 16.1226V26.9416H27.2668L38.0859 16.1226ZM5.85938 26.2695C5.86072 25.1044 6.32414 23.9874 7.14799 23.1636C7.97183 22.3398 9.08882 21.8763 10.2539 21.875H28.1902L23.3074 26.7578H12.207C11.8185 26.7578 11.4459 26.9121 11.1712 27.1868C10.8965 27.4616 10.7422 27.8341 10.7422 28.2226V79.0039C10.7422 79.3924 10.8965 79.765 11.1712 80.0397C11.4459 80.3144 11.8185 80.4687 12.207 80.4687H71.8047C72.3105 82.2407 73.1533 83.8986 74.2867 85.3516H5.85938V26.2695ZM22.2656 29.6875V77.5391H13.6719V29.6875H22.2656ZM58.1822 88.2812L55.6816 90.782C55.5459 90.9184 55.3845 91.0266 55.2067 91.1002C55.0289 91.1738 54.8383 91.2115 54.6459 91.2109H45.3541C45.1617 91.2114 44.971 91.1738 44.7932 91.1001C44.6155 91.0265 44.454 90.9183 44.3184 90.7818L41.8178 88.2812H58.1822ZM97.0703 92.6758C97.069 93.8409 96.6055 94.9579 95.7817 95.7817C94.9579 96.6055 93.8409 97.069 92.6758 97.0703H7.32422C6.15913 97.069 5.04214 96.6055 4.2183 95.7817C3.39446 94.9579 2.93103 93.8409 2.92969 92.6758V88.2812H37.6746L42.2467 92.8535C42.6538 93.2629 43.1381 93.5874 43.6715 93.8083C44.2048 94.0293 44.7768 94.1422 45.3541 94.1406H54.6459C55.2232 94.1422 55.7951 94.0292 56.3285 93.8083C56.8619 93.5874 57.3462 93.2629 57.7533 92.8535L62.3256 88.2812H77.3576C79.776 89.9908 82.6649 90.9088 85.6266 90.9088C88.5882 90.9088 91.4771 89.9908 93.8955 88.2812H97.0703V92.6758ZM69.2986 54.5615C69.2986 54.173 69.1443 53.8004 68.8696 53.5257C68.5949 53.251 68.2223 53.0967 67.8338 53.0967H59.2687C58.8802 53.0967 58.5077 53.251 58.233 53.5257C57.9582 53.8004 57.8039 54.173 57.8039 54.5615C57.8039 54.95 57.9582 55.3226 58.233 55.5973C58.5077 55.872 58.8802 56.0264 59.2687 56.0264H60.826C61.4151 56.0271 61.9927 56.19 62.4954 56.4974C62.9981 56.8047 63.4064 57.2445 63.6756 57.7685H59.2687C58.8802 57.7685 58.5077 57.9229 58.233 58.1976C57.9582 58.4723 57.8039 58.8449 57.8039 59.2334C57.8039 59.6219 57.9582 59.9945 58.233 60.2692C58.5077 60.5439 58.8802 60.6982 59.2687 60.6982H63.6754C63.4062 61.2223 62.9979 61.6621 62.4952 61.9694C61.9925 62.2767 61.4149 62.4397 60.8258 62.4404H59.2687C58.9819 62.4404 58.7013 62.5246 58.4618 62.6826C58.2223 62.8406 58.0345 63.0654 57.9217 63.3292C57.8089 63.593 57.776 63.8841 57.8271 64.1664C57.8783 64.4487 58.0112 64.7097 58.2094 64.9172L64.4385 71.4387C64.5709 71.5795 64.7299 71.6927 64.9063 71.7717C65.0827 71.8508 65.273 71.8941 65.4662 71.8993C65.6595 71.9045 65.8518 71.8714 66.0322 71.8018C66.2126 71.7323 66.3774 71.6278 66.5172 71.4943C66.657 71.3608 66.769 71.2009 66.8467 71.0239C66.9244 70.8469 66.9663 70.6563 66.97 70.4631C66.9737 70.2698 66.9391 70.0777 66.8683 69.8979C66.7974 69.718 66.6916 69.554 66.557 69.4152L62.4777 65.1443C63.5242 64.8493 64.474 64.2826 65.2305 63.5017C65.987 62.7208 66.5233 61.7535 66.785 60.6982H67.8338C68.2223 60.6982 68.5949 60.5439 68.8696 60.2692C69.1443 59.9945 69.2986 59.6219 69.2986 59.2334C69.2986 58.8449 69.1443 58.4723 68.8696 58.1976C68.5949 57.9229 68.2223 57.7685 67.8338 57.7685H66.7846C66.6334 57.1535 66.3875 56.5657 66.0555 56.0264H67.8338C68.2223 56.0264 68.5949 55.872 68.8696 55.5973C69.1443 55.3226 69.2986 54.95 69.2986 54.5615ZM32.5195 64.8822H52.132C52.5205 64.8822 52.8931 64.7279 53.1678 64.4532C53.4425 64.1785 53.5969 63.8059 53.5969 63.4174C53.5969 63.0289 53.4425 62.6563 53.1678 62.3816C52.8931 62.1069 52.5205 61.9525 52.132 61.9525H32.5195C32.131 61.9525 31.7584 62.1069 31.4837 62.3816C31.209 62.6563 31.0547 63.0289 31.0547 63.4174C31.0547 63.8059 31.209 64.1785 31.4837 64.4532C31.7584 64.7279 32.131 64.8822 32.5195 64.8822ZM32.5195 47.3041H67.8338C68.2223 47.3041 68.5949 47.1498 68.8696 46.875C69.1443 46.6003 69.2986 46.2278 69.2986 45.8393C69.2986 45.4507 69.1443 45.0782 68.8696 44.8034C68.5949 44.5287 68.2223 44.3744 67.8338 44.3744H32.5195C32.131 44.3744 31.7584 44.5287 31.4837 44.8034C31.209 45.0782 31.0547 45.4507 31.0547 45.8393C31.0547 46.2278 31.209 46.6003 31.4837 46.875C31.7584 47.1498 32.131 47.3041 32.5195 47.3041ZM32.5195 56.0932H53.4094C53.7979 56.0932 54.1705 55.9388 54.4452 55.6641C54.7199 55.3894 54.8742 55.0168 54.8742 54.6283C54.8742 54.2398 54.7199 53.8672 54.4452 53.5925C54.1705 53.3178 53.7979 53.1635 53.4094 53.1635H32.5195C32.131 53.1635 31.7584 53.3178 31.4837 53.5925C31.209 53.8672 31.0547 54.2398 31.0547 54.6283C31.0547 55.0168 31.209 55.3894 31.4837 55.6641C31.7584 55.9388 32.131 56.0932 32.5195 56.0932Z" fill="#3C3B41"/>
</g>
<defs>
<clipPath id="clip0_2_773">
<rect width="100" height="100" fill="white"/>
</clipPath>
</defs>
</svg>
