<svg width="150" height="89" viewBox="0 0 150 89" fill="none" xmlns="http://www.w3.org/2000/svg">
<g clip-path="url(#clip0_14_3883)">
<path d="M7.53476 80.1716C2.99041 75.9793 -0.0112186 69.9174 0.873337 63.7968C2.69835 51.2202 -5.53794 35.2395 7.76394 30.5484C14.4882 28.1728 13.3773 10.7053 18.7811 5.84231C28.1003 -2.5421 43.026 8.09632 72.5336 6.51027C101.421 4.95636 114.192 -10.1761 133.963 11.8511C149.384 29.0308 137.724 38.4339 148.636 54.2302C155.314 63.9016 135.394 84.4336 135.394 84.4336L12.0973 84.3805L7.53476 80.1716Z" fill="#F8F8FF"/>
<path d="M8.63306 87.1113C8.63306 87.1113 9.89072 69.5041 19.7424 71.2508C29.5354 72.9864 28.4063 81.8711 33.437 80.7532C38.4676 79.6352 38.877 67.6469 40.8432 53.3641C42.5494 40.9705 49.3422 44.7659 50.6082 48.7624C51.6731 52.1134 52.0923 62.6568 56.1447 63.3555C60.1972 64.0542 61.5946 56.089 61.8741 52.1763C62.1536 48.2636 63.551 32.3332 68.6515 32.1236C73.4725 31.9251 75.5686 39.0407 75.5686 52.5955C75.5686 66.1503 76.1276 74.9539 78.3635 78.5872C80.5993 82.2204 83.5338 81.2423 84.4422 80.7532C85.5727 80.1439 88.9837 74.395 89.8222 60.1415C90.6606 45.888 96.2502 47.9841 97.5079 50.0802C98.7655 52.1763 102.189 63.7049 106.381 63.4254C110.574 63.1459 111.761 60.421 112.46 53.9929C113.159 47.5649 114.194 31.6484 119.517 31.8441C125.031 32.0467 127.247 57.2237 127.154 64.792C127.035 74.3405 134.19 85.6441 138.661 85.6441" fill="url(#paint0_linear_14_3883)"/>
<path d="M8.63306 87.1113C8.63306 87.1113 9.89072 69.5041 19.7424 71.2508C29.5354 72.9864 28.4063 81.8711 33.437 80.7532C38.4676 79.6352 38.877 67.6469 40.8432 53.3641C42.5494 40.9705 49.3422 44.7659 50.6082 48.7624C51.6731 52.1134 52.0923 62.6568 56.1447 63.3555C60.1972 64.0542 61.5946 56.089 61.8741 52.1763C62.1536 48.2636 63.551 32.3332 68.6515 32.1236C73.4725 31.9251 75.5686 39.0407 75.5686 52.5955C75.5686 66.1503 76.1276 74.9539 78.3635 78.5872C80.5993 82.2204 83.5338 81.2423 84.4422 80.7532C85.5727 80.1439 88.9837 74.395 89.8222 60.1415C90.6606 45.888 96.2502 47.9841 97.5079 50.0802C98.7655 52.1763 102.189 63.7049 106.381 63.4254C110.574 63.1459 111.761 60.421 112.46 53.9929C113.159 47.5649 114.194 31.6484 119.517 31.8441C125.031 32.0467 127.247 57.2237 127.154 64.792C127.035 74.3405 134.19 85.6441 138.661 85.6441" stroke="#BAC6F2" stroke-width="5" stroke-miterlimit="10"/>
<path d="M33.0876 82.4999C34.0909 82.4999 34.9042 81.6866 34.9042 80.6833C34.9042 79.68 34.0909 78.8667 33.0876 78.8667C32.0843 78.8667 31.271 79.68 31.271 80.6833C31.271 81.6866 32.0843 82.4999 33.0876 82.4999Z" fill="#BAC6F2"/>
<path d="M8.49753 88.7548C9.50083 88.7548 10.3142 87.9415 10.3142 86.9382C10.3142 85.9349 9.50083 85.1216 8.49753 85.1216C7.49424 85.1216 6.68091 85.9349 6.68091 86.9382C6.68091 87.9415 7.49424 88.7548 8.49753 88.7548Z" fill="#BAC6F2"/>
<path d="M57.2627 64.8925C58.266 64.8925 59.0793 64.0792 59.0793 63.0759C59.0793 62.0726 58.266 61.2593 57.2627 61.2593C56.2594 61.2593 55.446 62.0726 55.446 63.0759C55.446 64.0792 56.2594 64.8925 57.2627 64.8925Z" fill="#BAC6F2"/>
<path d="M46.092 46.8798C47.0953 46.8798 47.9086 46.0665 47.9086 45.0632C47.9086 44.0599 47.0953 43.2466 46.092 43.2466C45.0887 43.2466 44.2754 44.0599 44.2754 45.0632C44.2754 46.0665 45.0887 46.8798 46.092 46.8798Z" fill="#BAC6F2"/>
<path d="M69.3069 34.1318C70.3102 34.1318 71.1235 33.3185 71.1235 32.3152C71.1235 31.3119 70.3102 30.4985 69.3069 30.4985C68.3036 30.4985 67.4902 31.3119 67.4902 32.3152C67.4902 33.3185 68.3036 34.1318 69.3069 34.1318Z" fill="#BAC6F2"/>
<path d="M95.1323 50.7788C96.1356 50.7788 96.9489 49.9654 96.9489 48.9621C96.9489 47.9588 96.1356 47.1455 95.1323 47.1455C94.129 47.1455 93.3157 47.9588 93.3157 48.9621C93.3157 49.9654 94.129 50.7788 95.1323 50.7788Z" fill="#BAC6F2"/>
<path d="M107.541 65.2026C108.545 65.2026 109.358 64.3893 109.358 63.386C109.358 62.3827 108.545 61.5693 107.541 61.5693C106.538 61.5693 105.725 62.3827 105.725 63.386C105.725 64.3893 106.538 65.2026 107.541 65.2026Z" fill="#BAC6F2"/>
<path d="M119.194 33.9345C120.198 33.9345 121.011 33.1212 121.011 32.1179C121.011 31.1146 120.198 30.3013 119.194 30.3013C118.191 30.3013 117.378 31.1146 117.378 32.1179C117.378 33.1212 118.191 33.9345 119.194 33.9345Z" fill="#BAC6F2"/>
<path d="M138.606 87.6118C139.609 87.6118 140.422 86.7984 140.422 85.7951C140.422 84.7918 139.609 83.9785 138.606 83.9785C137.602 83.9785 136.789 84.7918 136.789 85.7951C136.789 86.7984 137.602 87.6118 138.606 87.6118Z" fill="#BAC6F2"/>
<path d="M82.416 82.6396C83.4193 82.6396 84.2326 81.8263 84.2326 80.823C84.2326 79.8197 83.4193 79.0063 82.416 79.0063C81.4127 79.0063 80.5994 79.8197 80.5994 80.823C80.5994 81.8263 81.4127 82.6396 82.416 82.6396Z" fill="#BAC6F2"/>
<path d="M29.1471 31.9559C32.8416 31.9559 35.8365 28.9609 35.8365 25.2665C35.8365 21.5721 32.8416 18.5771 29.1471 18.5771C25.4527 18.5771 22.4578 21.5721 22.4578 25.2665C22.4578 28.9609 25.4527 31.9559 29.1471 31.9559Z" fill="white"/>
<path d="M35.8293 30.5863C38.498 30.5863 40.6615 28.4229 40.6615 25.7541C40.6615 23.0853 38.498 20.9219 35.8293 20.9219C33.1605 20.9219 30.9971 23.0853 30.9971 25.7541C30.9971 28.4229 33.1605 30.5863 35.8293 30.5863Z" fill="white"/>
<path d="M108.626 22.7108C112.32 22.7108 115.315 19.7158 115.315 16.0214C115.315 12.327 112.32 9.33203 108.626 9.33203C104.931 9.33203 101.936 12.327 101.936 16.0214C101.936 19.7158 104.931 22.7108 108.626 22.7108Z" fill="white"/>
<path d="M115.308 21.3412C117.977 21.3412 120.14 19.1777 120.14 16.509C120.14 13.8402 117.977 11.6768 115.308 11.6768C112.639 11.6768 110.476 13.8402 110.476 16.509C110.476 19.1777 112.639 21.3412 115.308 21.3412Z" fill="white"/>
<path d="M131.218 46.834L134.539 42.0828C134.904 41.4414 135.917 41.4973 136.41 42.0465L139.676 46.5182C140.35 47.2672 139.993 48.6632 138.987 48.68L132.383 48.7904C132.152 48.793 131.925 48.7351 131.724 48.6223C131.523 48.5095 131.355 48.3459 131.237 48.1478C131.119 47.9497 131.055 47.7241 131.052 47.4935C131.048 47.2629 131.105 47.0355 131.218 46.834ZM12.7122 50.1417L9.38501 54.883C9.01889 55.5244 8.00577 55.4672 7.51388 54.918L4.25374 50.4379C3.58159 49.6875 3.93932 48.2915 4.95244 48.2761L11.5566 48.1741C11.7879 48.1721 12.0158 48.231 12.2171 48.3451C12.4184 48.4591 12.5861 48.6242 12.7033 48.8237C12.8205 49.0232 12.883 49.2501 12.8846 49.4815C12.8861 49.7129 12.8267 49.9406 12.7122 50.1417Z" fill="#BAC6F2"/>
</g>
<defs>
<linearGradient id="paint0_linear_14_3883" x1="73.6444" y1="84.4381" x2="73.5704" y2="21.2587" gradientUnits="userSpaceOnUse">
<stop stop-color="white"/>
<stop offset="1" stop-color="#BAC6F2"/>
</linearGradient>
<clipPath id="clip0_14_3883">
<rect width="150" height="88.7546" fill="white"/>
</clipPath>
</defs>
</svg>
