<svg width="65" height="65" viewBox="0 0 65 65" fill="none" xmlns="http://www.w3.org/2000/svg">
<circle cx="32.5" cy="32.5" r="32.5" fill="#D9D9D9"/>
<g clip-path="url(#clip0_1_340)">
<path d="M49.4531 17.7344V26.4844H15.5469V17.7344C15.5469 17.1542 15.7773 16.5978 16.1876 16.1876C16.5978 15.7773 17.1542 15.5469 17.7344 15.5469H47.2656C47.8458 15.5469 48.4022 15.7773 48.8124 16.1876C49.2227 16.5978 49.4531 17.1542 49.4531 17.7344Z" fill="#FF9933"/>
<path d="M15.5469 26.4844H49.4531V38.5156H15.5469V26.4844Z" fill="#EEF2FA"/>
<path d="M49.4531 38.5156V47.2656C49.4531 47.8458 49.2227 48.4022 48.8124 48.8124C48.4022 49.2227 47.8458 49.4531 47.2656 49.4531H17.7344C17.1542 49.4531 16.5978 49.2227 16.1876 48.8124C15.7773 48.4022 15.5469 47.8458 15.5469 47.2656V38.5156H49.4531Z" fill="#009B3A"/>
<path d="M32.5 37.4219C31.5265 37.4219 30.575 37.1332 29.7656 36.5924C28.9562 36.0516 28.3253 35.2829 27.9528 34.3835C27.5803 33.4842 27.4828 32.4945 27.6727 31.5398C27.8626 30.585 28.3314 29.708 29.0197 29.0197C29.708 28.3314 30.585 27.8626 31.5398 27.6727C32.4945 27.4828 33.4842 27.5803 34.3835 27.9528C35.2829 28.3253 36.0516 28.9562 36.5924 29.7656C37.1332 30.575 37.4219 31.5265 37.4219 32.5C37.4204 33.8049 36.9014 35.056 35.9787 35.9787C35.056 36.9014 33.8049 37.4204 32.5 37.4219ZM32.5 28.6719C31.7429 28.6719 31.0027 28.8964 30.3732 29.317C29.7437 29.7377 29.253 30.3355 28.9633 31.035C28.6735 31.7345 28.5977 32.5042 28.7454 33.2468C28.8931 33.9894 29.2577 34.6715 29.7931 35.2069C30.3285 35.7423 31.0106 36.1069 31.7532 36.2546C32.4958 36.4023 33.2655 36.3265 33.965 36.0367C34.6645 35.747 35.2623 35.2563 35.683 34.6268C36.1036 33.9973 36.3281 33.2571 36.3281 32.5C36.327 31.4851 35.9233 30.5121 35.2056 29.7944C34.488 29.0767 33.5149 28.673 32.5 28.6719Z" fill="#1F3D8F"/>
<path d="M35.2344 31.9531H34.04C34.0216 31.9 34.0002 31.848 33.976 31.7973L34.5273 31.246C34.6269 31.1429 34.682 31.0047 34.6808 30.8613C34.6795 30.718 34.622 30.5808 34.5206 30.4794C34.4192 30.378 34.282 30.3205 34.1387 30.3192C33.9953 30.318 33.8571 30.3731 33.754 30.4727L33.2027 31.0234C33.152 30.9994 33.1 30.9782 33.0469 30.96V29.7656C33.0469 29.6206 32.9893 29.4815 32.8867 29.3789C32.7841 29.2764 32.645 29.2188 32.5 29.2188C32.355 29.2188 32.2159 29.2764 32.1133 29.3789C32.0107 29.4815 31.9531 29.6206 31.9531 29.7656V30.96C31.9 30.9784 31.848 30.9998 31.7973 31.024L31.246 30.4727C31.1429 30.3731 31.0047 30.318 30.8613 30.3192C30.718 30.3205 30.5808 30.378 30.4794 30.4794C30.378 30.5808 30.3205 30.718 30.3192 30.8613C30.318 31.0047 30.3731 31.1429 30.4727 31.246L31.0234 31.7973C30.9992 31.848 30.9778 31.9 30.9595 31.9531H29.7656C29.6206 31.9531 29.4815 32.0107 29.3789 32.1133C29.2764 32.2159 29.2188 32.355 29.2188 32.5C29.2188 32.645 29.2764 32.7841 29.3789 32.8867C29.4815 32.9893 29.6206 33.0469 29.7656 33.0469H30.96C30.9784 33.1 30.9998 33.152 31.024 33.2027L30.4727 33.754C30.4205 33.8044 30.3788 33.8648 30.3502 33.9315C30.3215 33.9982 30.3064 34.07 30.3058 34.1426C30.3052 34.2152 30.319 34.2872 30.3465 34.3544C30.374 34.4216 30.4146 34.4827 30.466 34.534C30.5173 34.5854 30.5784 34.626 30.6456 34.6535C30.7128 34.681 30.7848 34.6948 30.8574 34.6942C30.93 34.6936 31.0018 34.6785 31.0685 34.6498C31.1352 34.6212 31.1956 34.5795 31.246 34.5273L31.7973 33.9766C31.848 34.0008 31.9 34.0222 31.9531 34.0405V35.2344C31.9531 35.3794 32.0107 35.5185 32.1133 35.6211C32.2159 35.7236 32.355 35.7812 32.5 35.7812C32.645 35.7812 32.7841 35.7236 32.8867 35.6211C32.9893 35.5185 33.0469 35.3794 33.0469 35.2344V34.04C33.1 34.0216 33.152 34.0002 33.2027 33.976L33.754 34.5273C33.8571 34.6269 33.9953 34.682 34.1387 34.6808C34.282 34.6795 34.4192 34.622 34.5206 34.5206C34.622 34.4192 34.6795 34.282 34.6808 34.1387C34.682 33.9953 34.6269 33.8571 34.5273 33.754L33.9766 33.2027C34.0006 33.152 34.0218 33.1 34.04 33.0469H35.2344C35.3794 33.0469 35.5185 32.9893 35.6211 32.8867C35.7236 32.7841 35.7812 32.645 35.7812 32.5C35.7812 32.355 35.7236 32.2159 35.6211 32.1133C35.5185 32.0107 35.3794 31.9531 35.2344 31.9531Z" fill="#1F3D8F"/>
<path d="M15.5469 24.2969V26.4844H15.7492C15.6154 25.7629 15.5476 25.0307 15.5469 24.2969ZM49.4531 26.4844V24.2969C49.4524 25.0307 49.3846 25.7629 49.2508 26.4844H49.4531Z" fill="#FF8000"/>
<path d="M37.4219 36.3281H27.5781C24.767 36.3277 22.0448 35.3429 19.884 33.5448C17.7232 31.7466 16.2603 29.2486 15.7492 26.4844H15.5469V38.5156H49.4531V26.4844H49.2508C48.7397 29.2486 47.2768 31.7466 45.116 33.5448C42.9552 35.3429 40.233 36.3277 37.4219 36.3281Z" fill="#CDD2E1"/>
<path d="M15.5469 47.2656C15.5469 47.8458 15.7773 48.4022 16.1876 48.8124C16.5978 49.2227 17.1542 49.4531 17.7344 49.4531H47.2656C47.8458 49.4531 48.4022 49.2227 48.8124 48.8124C49.2227 48.4022 49.4531 47.8458 49.4531 47.2656V38.5156H15.5469V47.2656Z" fill="#128807"/>
<path d="M47.2656 47.2656H17.7344C17.1542 47.2656 16.5978 47.0352 16.1876 46.6249C15.7773 46.2147 15.5469 45.6583 15.5469 45.0781V47.2656C15.5469 47.8458 15.7773 48.4022 16.1876 48.8124C16.5978 49.2227 17.1542 49.4531 17.7344 49.4531H47.2656C47.8458 49.4531 48.4022 49.2227 48.8124 48.8124C49.2227 48.4022 49.4531 47.8458 49.4531 47.2656V45.0781C49.4531 45.6583 49.2227 46.2147 48.8124 46.6249C48.4022 47.0352 47.8458 47.2656 47.2656 47.2656Z" fill="#006927"/>
<path d="M47.2656 15.5469H17.7344C17.1542 15.5469 16.5978 15.7773 16.1876 16.1876C15.7773 16.5978 15.5469 17.1542 15.5469 17.7344V19.9219C15.5469 19.3417 15.7773 18.7853 16.1876 18.3751C16.5978 17.9648 17.1542 17.7344 17.7344 17.7344H47.2656C47.8458 17.7344 48.4022 17.9648 48.8124 18.3751C49.2227 18.7853 49.4531 19.3417 49.4531 19.9219V17.7344C49.4531 17.1542 49.2227 16.5978 48.8124 16.1876C48.4022 15.7773 47.8458 15.5469 47.2656 15.5469Z" fill="#FFBA75"/>
<path d="M35.5866 36.3281H29.4135C30.2865 37.0357 31.3762 37.4218 32.5 37.4218C33.6238 37.4218 34.7135 37.0357 35.5866 36.3281Z" fill="#172E6B"/>
</g>
<defs>
<clipPath id="clip0_1_340">
<rect width="35" height="35" fill="white" transform="translate(15 15)"/>
</clipPath>
</defs>
</svg>
