<svg width="121" height="98" viewBox="0 0 121 98" fill="none" xmlns="http://www.w3.org/2000/svg">
<path d="M50.905 97.3492C75.8926 97.3492 96.149 75.5568 96.149 48.6746C96.149 21.7924 75.8926 0 50.905 0C25.9174 0 5.66089 21.7924 5.66089 48.6746C5.66089 75.5568 25.9174 97.3492 50.905 97.3492Z" fill="url(#paint0_linear_14_4643)"/>
<path d="M79.065 29.559L76.6726 29.9253L77.1449 33.495L79.5372 33.1287L79.065 29.559Z" fill="#C16E6A"/>
<path d="M79.2864 31.6947L76.894 32.061L77.0837 33.495L79.4761 33.1287L79.2864 31.6947Z" fill="#F4AFAD"/>
<path d="M77.2928 31.434L76.8889 31.5015L77.0956 32.9327L77.4995 32.8652L77.2928 31.434Z" fill="#F5C6BA"/>
<path d="M76.9847 29.3021L76.5808 29.3696L76.8886 31.5014L77.2925 31.4339L76.9847 29.3021Z" fill="#DD9075"/>
<path d="M76.666 29.9495L79.0441 29.4897L79.1754 30.3945C79.1754 30.3945 77.4253 31.0501 76.666 29.9495Z" fill="#63496A"/>
<path d="M76.5955 29.9493C76.7208 30.1295 76.8837 30.2755 77.0711 30.3757L76.9992 29.8813L76.5955 29.9493Z" fill="#695974"/>
<path d="M103.977 87.5501L82.4912 81.7378L80.6619 92.3018L104.924 92.5656L103.977 87.5501Z" fill="#C16E6A"/>
<path d="M105.772 86.0702L120.45 91.1696C121.317 91.4708 121.104 92.8459 120.195 92.8299L104.174 92.5634L103.605 88.0156C103.568 87.7152 103.602 87.4095 103.705 87.1271C103.807 86.8446 103.974 86.5946 104.19 86.4004C104.406 86.2061 104.665 86.074 104.941 86.0163C105.218 85.9585 105.504 85.9771 105.772 86.0702Z" fill="#C16E6A"/>
<path d="M120.45 91.1692L105.774 86.0698C105.506 85.9769 105.221 85.9586 104.944 86.0164C104.668 86.0743 104.409 86.2065 104.193 86.4007C103.977 86.5949 103.81 86.8448 103.708 87.1271C103.606 87.4094 103.572 87.7149 103.609 88.0152L103.649 88.3363C103.709 88.3363 103.773 88.327 103.83 88.327C104.92 88.3273 105.971 88.7707 106.771 89.5685C107.57 90.3663 108.061 91.4596 108.144 92.6296L120.195 92.8295C121.102 92.8455 121.317 91.4703 120.45 91.1692Z" fill="#F8CDA0"/>
<path d="M102.218 87.0752L101.692 92.5157L98.4973 92.4957L101.297 86.8486L102.218 87.0752Z" fill="#63496A"/>
<path d="M81.4225 92.2994C80.7421 92.2917 80.0918 91.9962 79.6123 91.4768C79.1327 90.9574 78.8624 90.2558 78.8599 89.5238L78.7472 56.438L77.9285 56.3447L78.0412 89.5238C78.0441 90.2557 78.3144 90.9571 78.7939 91.4764C79.2734 91.9957 79.9235 92.2913 80.6038 92.2994L87.0506 92.3726V92.3633L81.4225 92.2994Z" fill="#FCBF86"/>
<path d="M100.509 84.6175L88.829 82.752L93.1641 58.3168C93.9028 54.1476 93.1127 49.8326 90.9594 46.2764L78.0076 56.346L78.1215 89.5251C78.124 90.2546 78.3924 90.954 78.869 91.473C79.3457 91.992 79.9925 92.2891 80.6705 92.3006L87.1285 92.3713L100.29 92.5138L102.082 87.5316C102.19 87.2299 102.234 86.9059 102.211 86.5834C102.187 86.2609 102.096 85.9483 101.945 85.6686C101.794 85.3888 101.587 85.1492 101.338 84.9672C101.09 84.7853 100.806 84.6658 100.509 84.6175Z" fill="#F3A978"/>
<path d="M90.9506 46.2761L72.606 48.8078L72.6914 37.8547C72.703 36.4636 73.1753 35.1225 74.0234 34.0723C74.8715 33.0221 76.04 32.3317 77.3188 32.125L79.7204 31.7373C80.8363 31.5576 81.9766 31.7561 82.9829 32.3053C83.9893 32.8545 84.8117 33.7271 85.3361 34.802L90.9506 46.2761Z" fill="#F4AFAD"/>
<path d="M73.561 38.6158C73.5845 35.7416 74.6014 32.549 77.2433 32.1226C75.9645 32.3292 74.7961 33.0196 73.948 34.0698C73.0998 35.12 72.6276 36.4611 72.616 37.8523L72.5305 48.8054L73.4817 48.6721L73.561 38.6158Z" fill="#F5C6BA"/>
<path d="M93.0512 58.3527L92.1607 63.259L75.8919 64.6714L72.5354 48.8081L90.88 46.2764L90.9221 46.3483C93.0407 49.9062 93.8033 54.2056 93.0512 58.3527Z" fill="#F3A978"/>
<path d="M63.4852 87.9477L63.806 85.3521L57.5413 85.5479C59.3891 86.6881 61.3964 87.4985 63.4852 87.9477Z" fill="#63496A"/>
<path d="M61.2049 54.5381C59.4022 55.4255 57.9023 56.8967 56.915 58.7461C55.9276 60.5955 55.5022 62.7306 55.6982 64.853L56.019 68.3174L57.9549 90.2596L63.2535 89.8052L65.94 68.0603L66.6584 51.8545L61.2049 54.5381Z" fill="#C16E6A"/>
<path d="M82.2087 67.5168L72.606 48.8086L66.7314 51.856L61.1046 54.6276C59.341 55.496 57.8664 56.9236 56.8784 58.7191C55.8904 60.5146 55.4362 62.5922 55.5768 64.6732L56.8897 84.0597C56.9259 84.5988 57.1504 85.1032 57.5179 85.4717C57.8855 85.8401 58.369 86.0455 58.8714 86.0464H62.82C63.6705 86.0484 64.4879 85.6916 65.0966 85.0526C65.7054 84.4136 66.0571 83.5434 66.0762 82.6286L66.3896 68.0484L82.2087 67.5168Z" fill="#F3A978"/>
<path d="M57.7641 84.8213L56.4512 65.4349C56.3104 63.3536 56.7644 61.2758 57.7524 59.48C58.7404 57.6842 60.2152 56.2563 61.979 55.3879L73.4866 48.6748L72.5354 48.8081L66.6608 51.8555L61.0339 54.627C59.2705 55.4956 57.796 56.9232 56.808 58.7187C55.82 60.5142 55.3658 62.5917 55.5062 64.6727L56.8191 84.0591C56.8462 84.4741 56.9852 84.8716 57.2191 85.2029C57.4529 85.5342 57.7714 85.785 58.1357 85.9246C57.9183 85.6015 57.7896 85.2192 57.7641 84.8213Z" fill="#FCBF86"/>
<path d="M84.9137 45.7007L80.2195 46.5561C80.2195 46.5561 83.7631 47.1291 85.0921 46.6747L84.9137 45.7007ZM94.234 51.8182C94.234 51.8421 94.2278 51.8661 94.2229 51.8901L94.2365 51.8182H94.234Z" fill="#63496A"/>
<path d="M77.9988 67.6578L84.5026 67.3021C87.0294 67.1636 89.4297 66.0697 91.2801 64.2133L92.2313 63.2593L91.5166 67.33C91.0594 67.6548 90.558 67.9012 90.0303 68.0602C85.8687 69.4034 77.9988 67.6578 77.9988 67.6578Z" fill="#E08B52"/>
<path d="M76.1868 28.2542C75.4808 28.4275 75.1117 26.2035 75.2603 25.6612C75.5502 23.5452 80.3014 23.6425 79.4963 26.1143C79.8146 26.2022 80.0314 27.6586 79.6462 28.041C78.42 29.2629 77.4018 28.3262 76.1868 28.2542Z" fill="#303363"/>
<path d="M75.7372 26.1687C75.9403 24.6896 78.3233 24.2939 79.4641 25.0347C78.7754 23.6783 75.5006 23.9155 75.2653 25.661C75.1253 26.17 75.4437 28.1621 76.0667 28.2594C75.7632 27.6078 75.6356 26.5258 75.7372 26.1687Z" fill="#695974"/>
<path d="M79.4405 27.0407C79.4405 25.953 78.6209 25.0713 77.6099 25.0713C76.5989 25.0713 75.7793 25.953 75.7793 27.0407V28.2666C75.7793 29.3543 76.5989 30.236 77.6099 30.236C78.6209 30.236 79.4405 29.3543 79.4405 28.2666V27.0407Z" fill="#C16E6A"/>
<path d="M79.4419 28.2277C79.4877 27.7054 79.9906 26.4955 79.318 26.3622C79.2165 25.0298 76.9957 24.5141 76.1894 25.1937C75.2679 25.9705 75.7522 28.0665 75.7522 28.0665C75.9323 27.5367 76.0192 26.9755 76.0086 26.4116C76.9994 26.4822 78.1637 26.4688 79.1273 26.2463C79.2239 26.8459 79.2636 27.772 79.4419 28.2277Z" fill="#303363"/>
<path d="M27.5068 66.5566H1V95.7102H27.5068V66.5566Z" stroke="black" stroke-width="1.5" stroke-miterlimit="10"/>
<path d="M10.9681 69.7651H3.50073V71.9304H10.9681V69.7651Z" stroke="black" stroke-width="1.5" stroke-miterlimit="10"/>
<path d="M25.2689 90.4565H17.8015V92.6218H25.2689V90.4565Z" stroke="black" stroke-width="1.5" stroke-miterlimit="10"/>
<path d="M54.0139 66.5566H27.5071V95.7102H54.0139V66.5566Z" stroke="black" stroke-width="1.5" stroke-miterlimit="10"/>
<path d="M37.475 69.7651H30.0076V71.9304H37.475V69.7651Z" stroke="black" stroke-width="1.5" stroke-miterlimit="10"/>
<path d="M34.9136 37.4038H8.40674V66.5574H34.9136V37.4038Z" stroke="black" stroke-width="1.5" stroke-miterlimit="10"/>
<path d="M34.9137 66.5581H45.8342V37.4045H34.9137V66.5581Z" stroke="black" stroke-width="1.5" stroke-miterlimit="10"/>
<path d="M18.3746 40.6118H10.9072V42.7771H18.3746V40.6118Z" stroke="black" stroke-width="1.5" stroke-miterlimit="10"/>
<path d="M32.6754 61.3027H25.208V63.468H32.6754V61.3027Z" stroke="black" stroke-width="1.5" stroke-miterlimit="10"/>
<path d="M52.4333 30.6743H41.5127L34.9124 37.4034H45.8341L52.4333 30.6743Z" stroke="black" stroke-width="1.5" stroke-miterlimit="10"/>
<path d="M1.79785 30.6743H12.7196L19.3188 37.4034H8.39824L1.79785 30.6743Z" stroke="black" stroke-width="1.5" stroke-miterlimit="10"/>
<path d="M64.4673 40.4414H42.729V64.3503H64.4673V40.4414Z" fill="#549999"/>
<path d="M64.3969 64.3491H73.353V40.4402H64.3969V64.3491Z" fill="#388888"/>
<path d="M50.9063 43.0718H44.7815V44.848H50.9063V43.0718Z" fill="white"/>
<path d="M62.6331 60.0415H56.5083V61.8177H62.6331V60.0415Z" fill="white"/>
<path d="M78.8361 50.6403H69.8799L64.4673 40.4414H73.4234L78.8361 50.6403Z" fill="#549999"/>
<path d="M37.3103 50.6403H42.7291L42.7229 40.4414L37.3103 50.6403Z" fill="#388888"/>
<path d="M41.0692 90.4565H33.6018V92.6218H41.0692V90.4565Z" stroke="black" stroke-width="1.5" stroke-miterlimit="10"/>
<path d="M71.7825 71.9312H50.1619V95.7108H71.7825V71.9312Z" fill="#549999"/>
<path d="M58.2932 74.5479H52.2019V76.3147H58.2932V74.5479Z" fill="white"/>
<path d="M70.0274 91.4253H63.936V93.1922H70.0274V91.4253Z" fill="white"/>
<path d="M71.8517 95.7119H80.7595V71.9323H71.8517V95.7119Z" fill="#388888"/>
<path d="M82.7564 33.4844L76.6167 35.2473L80.6186 47.5662L70.186 57.0042L71.4506 58.9283L83.7249 50.7082C84.2944 50.3264 84.7426 49.7675 85.01 49.1054C85.2774 48.4434 85.3515 47.7095 85.2224 47.0012L82.7564 33.4844Z" fill="#C16E6A"/>
<path d="M70.2217 56.9865L66.0663 57.3476C65.9745 57.3557 65.8873 57.394 65.8165 57.4574C65.7458 57.5208 65.6949 57.6061 65.671 57.7017C65.647 57.7974 65.651 57.8986 65.6825 57.9917C65.714 58.0848 65.7715 58.1651 65.847 58.2217L67.2553 59.2744C67.3279 59.328 67.3841 59.4036 67.4168 59.4916C67.4494 59.5796 67.457 59.6761 67.4386 59.7687L66.3239 65.4638C66.3023 65.5731 66.3168 65.6871 66.3648 65.7862C66.4129 65.8853 66.4915 65.9633 66.5872 66.0069C66.6829 66.0504 66.7897 66.0567 66.8892 66.0247C66.9888 65.9927 67.0749 65.9244 67.1327 65.8316L71.4677 58.8946C71.5203 58.8103 71.5468 58.7103 71.5434 58.6089C71.5401 58.5075 71.5071 58.4097 71.4491 58.3296L70.6069 57.1704C70.5615 57.1083 70.5026 57.0591 70.4355 57.027C70.3684 56.995 70.295 56.9811 70.2217 56.9865Z" fill="#C16E6A"/>
<path d="M67.3544 65.0954L68.4691 59.399C68.4873 59.3065 68.4797 59.2102 68.4473 59.1223C68.415 59.0344 68.3592 58.9587 68.287 58.9047L66.8788 57.8533C66.7969 57.7929 66.7364 57.7045 66.7071 57.6024C66.6779 57.5003 66.6816 57.3905 66.7178 57.291L66.0663 57.3483C65.9745 57.3564 65.8873 57.3947 65.8165 57.4581C65.7458 57.5215 65.6949 57.6068 65.671 57.7024C65.647 57.7981 65.651 57.8993 65.6825 57.9924C65.714 58.0855 65.7715 58.1658 65.847 58.2224L67.2553 59.2751C67.3279 59.3287 67.3841 59.4043 67.4168 59.4923C67.4494 59.5803 67.457 59.6768 67.4386 59.7695L66.3239 65.4645C66.3023 65.5739 66.3168 65.6879 66.3648 65.787C66.4129 65.8861 66.4915 65.9641 66.5872 66.0076C66.6829 66.0511 66.7897 66.0574 66.8892 66.0254C66.9888 65.9934 67.0749 65.9251 67.1327 65.8323L67.394 65.4139C67.3457 65.3163 67.3317 65.2033 67.3544 65.0954Z" fill="#DD9075"/>
<path d="M85.5121 45.5915L83.2592 33.2446L75.8921 35.3593L79.5682 46.6748L85.5121 45.5915Z" fill="#F4AFAD"/>
<path d="M76.7108 35.3594H75.8921L79.5682 46.6749L80.3052 46.4244L76.7108 35.3594Z" fill="#F5C6BA"/>
<path d="M76.9187 38.5216C77.0426 38.856 77.1664 39.1878 77.2816 39.5289L77.6309 40.5416C77.8625 41.2172 78.0817 41.8968 78.3084 42.5737C78.535 43.2506 78.7444 43.9341 78.9549 44.6177L79.2683 45.6437C79.3674 45.9875 79.4714 46.33 79.568 46.6751C79.4442 46.3406 79.3203 46.0088 79.2051 45.6677L78.8558 44.655C78.6255 43.9794 78.405 43.2999 78.1796 42.623C77.9542 41.9461 77.7424 41.2612 77.5318 40.5789L77.2184 39.5529C77.1194 39.2145 77.0153 38.8667 76.9187 38.5216ZM83.8696 36.5854C83.9526 36.9572 84.0282 37.3316 84.1074 37.7047L84.3316 38.8267C84.479 39.5742 84.6152 40.3244 84.7577 41.0746C84.9001 41.8248 85.0264 42.5763 85.1528 43.3292L85.3398 44.4591C85.3968 44.8362 85.4637 45.2133 85.512 45.5918C85.429 45.22 85.3534 44.8456 85.2742 44.4725L85.05 43.3505C84.9026 42.603 84.7663 41.8528 84.6239 41.1026C84.4815 40.3524 84.3551 39.6009 84.2288 38.848L84.0418 37.7181C83.9848 37.3396 83.9229 36.9639 83.8696 36.5854Z" fill="#916881"/>
<defs>
<linearGradient id="paint0_linear_14_4643" x1="50.905" y1="0" x2="50.905" y2="97.3492" gradientUnits="userSpaceOnUse">
<stop stop-color="#F8CDA0" stop-opacity="0.6"/>
<stop offset="1" stop-color="#F8CDA0" stop-opacity="0"/>
</linearGradient>
</defs>
</svg>
