<svg width="30" height="30" viewBox="0 0 30 30" fill="none" xmlns="http://www.w3.org/2000/svg">
<path d="M8.90625 3.04688C8.26031 3.04688 7.73438 3.57281 7.73438 4.21875V9.84375C7.73438 10.4897 8.26031 11.0156 8.90625 11.0156H15.2344V15.6931H14.0625C14.0002 15.6931 13.9409 15.7181 13.8968 15.7617L13.028 16.6306H12.1875H11.4844V16.3962C11.4844 16.2668 11.3794 16.1618 11.25 16.1618H8.4375H4.92188H4.6875C4.55813 16.1618 4.45312 16.2668 4.45312 16.3962C4.45312 16.5256 4.55813 16.6306 4.6875 16.6306H4.92188H8.20312V22.2556H4.92188H4.6875C4.55813 22.2556 4.45312 22.3606 4.45312 22.4899C4.45312 22.6193 4.55813 22.7243 4.6875 22.7243H4.92188H8.4375H11.25C11.3794 22.7243 11.4844 22.6193 11.4844 22.4899V21.7868H12.0905L12.9593 22.6556C13.0034 22.6997 13.0636 22.7243 13.1259 22.7243H15.2353V26.7188C15.2353 26.8481 15.3403 26.9531 15.4697 26.9531H17.8134C17.9428 26.9531 18.0478 26.8481 18.0478 26.7188V22.7243H18.5165C19.0336 22.7243 19.454 22.3038 19.454 21.7868C19.454 21.5056 19.3268 21.2557 19.1299 21.0837C19.3268 20.9116 19.454 20.6618 19.454 20.3806C19.454 20.0993 19.3268 19.8495 19.1299 19.6774C19.3268 19.5054 19.454 19.2556 19.454 18.9743C19.454 18.6931 19.3268 18.4432 19.1299 18.2712C19.3268 18.0991 19.454 17.8493 19.454 17.5681C19.454 17.051 19.0336 16.6306 18.5165 16.6306H18.0478V11.0156H24.375C25.0214 11.0156 25.5469 10.4897 25.5469 9.84375V4.21875C25.5469 3.57281 25.0214 3.04688 24.375 3.04688H8.90625ZM8.90625 3.51562H24.375C24.7627 3.51562 25.0781 3.83109 25.0781 4.21875V9.84375C25.0781 10.2314 24.7627 10.5469 24.375 10.5469H17.8125H15.4688H8.90625C8.51859 10.5469 8.20312 10.2314 8.20312 9.84375V4.21875C8.20312 3.83109 8.51859 3.51562 8.90625 3.51562ZM8.90625 3.98438C8.77688 3.98438 8.67188 4.08938 8.67188 4.21875V5.85938H9.14062V4.45312H24.1406V5.85938H24.6094V4.21875C24.6094 4.08938 24.5044 3.98438 24.375 3.98438H8.90625ZM12.4219 5.39062C12.2925 5.39062 12.1875 5.49563 12.1875 5.625V7.96875V8.4375C12.1875 8.56687 12.2925 8.67188 12.4219 8.67188H14.2969C14.4262 8.67188 14.5312 8.56687 14.5312 8.4375V7.03125C14.5312 6.90188 14.4262 6.79688 14.2969 6.79688H13.3594C13.23 6.79688 13.125 6.90188 13.125 7.03125C13.125 7.16062 13.23 7.26562 13.3594 7.26562H14.0625V8.20312H12.6562V7.96875V5.85938H14.0625V6.09375C14.0625 6.22312 14.1675 6.32812 14.2969 6.32812C14.4262 6.32812 14.5312 6.22312 14.5312 6.09375V5.625C14.5312 5.49563 14.4262 5.39062 14.2969 5.39062H12.4219ZM15.7031 5.39062C15.5738 5.39062 15.4688 5.49563 15.4688 5.625V7.03125C15.4688 7.16062 15.5738 7.26562 15.7031 7.26562H17.3438V8.20312H15.9375V7.96875C15.9375 7.83938 15.8325 7.73438 15.7031 7.73438C15.5738 7.73438 15.4688 7.83938 15.4688 7.96875V8.4375C15.4688 8.56687 15.5738 8.67188 15.7031 8.67188H17.5781C17.7075 8.67188 17.8125 8.56687 17.8125 8.4375V7.03125C17.8125 6.90188 17.7075 6.79688 17.5781 6.79688H15.9375V5.85938H17.3438V6.09375C17.3438 6.22312 17.4488 6.32812 17.5781 6.32812C17.7075 6.32812 17.8125 6.22312 17.8125 6.09375V5.625C17.8125 5.49563 17.7075 5.39062 17.5781 5.39062H15.7031ZM18.9844 5.39062C18.855 5.39062 18.75 5.49563 18.75 5.625V6.09375C18.75 6.22312 18.855 6.32812 18.9844 6.32812C19.1137 6.32812 19.2188 6.22312 19.2188 6.09375V5.85938H19.6875V8.4375C19.6875 8.56687 19.7925 8.67188 19.9219 8.67188C20.0512 8.67188 20.1562 8.56687 20.1562 8.4375V5.85938H20.625V6.09375C20.625 6.22312 20.73 6.32812 20.8594 6.32812C20.9887 6.32812 21.0938 6.22312 21.0938 6.09375V5.625C21.0938 5.49563 20.9887 5.39062 20.8594 5.39062H18.9844ZM8.67188 6.32812V7.73438H9.14062V6.32812H8.67188ZM8.67188 8.20312V9.84375C8.67188 9.97312 8.77688 10.0781 8.90625 10.0781H24.375C24.5044 10.0781 24.6094 9.97312 24.6094 9.84375V8.20312H24.1406V9.60938H9.14062V8.20312H8.67188ZM15.7031 11.0156H17.5781V16.6306H15.7031V11.0156ZM14.1595 16.1618H15.2325L15.2252 16.8631C15.2248 16.9259 15.2489 16.9852 15.293 17.0297C15.2948 17.0316 15.2975 17.0324 15.2994 17.0343C15.342 17.0802 15.4022 17.1094 15.4697 17.1094H17.8134C17.8308 17.1094 17.846 17.1031 17.8619 17.0993H18.5156C18.7744 17.0993 18.9844 17.3098 18.9844 17.5681C18.9844 17.8263 18.7744 18.0368 18.5156 18.0368H16.8649H16.3962C16.2668 18.0368 16.1618 18.1418 16.1618 18.2712C16.1618 18.4006 16.2668 18.5056 16.3962 18.5056H16.8649H18.5156C18.7744 18.5056 18.9844 18.716 18.9844 18.9743C18.9844 19.2326 18.7744 19.4431 18.5156 19.4431H16.8649H16.3962C16.2668 19.4431 16.1618 19.5481 16.1618 19.6774C16.1618 19.8068 16.2668 19.9118 16.3962 19.9118H16.8649H18.5156C18.7744 19.9118 18.9844 20.1223 18.9844 20.3806C18.9844 20.6388 18.7744 20.8493 18.5156 20.8493H16.8649H16.3962C16.2668 20.8493 16.1618 20.9543 16.1618 21.0837C16.1618 21.2131 16.2668 21.3181 16.3962 21.3181H16.8649H18.5156C18.7744 21.3181 18.9844 21.5285 18.9844 21.7868C18.9844 22.0451 18.7744 22.2556 18.5156 22.2556H17.8125H16.8649H13.222L12.3532 21.3876C12.3316 21.3661 12.3058 21.3486 12.2772 21.3364C12.2486 21.3246 12.218 21.3181 12.1875 21.3181H11.4844V17.0993H12.1875H13.125C13.1873 17.0993 13.2466 17.0742 13.2907 17.0306L14.1595 16.1618ZM8.67188 16.6306H11.0156V16.8649V21.5524V22.2556H8.67188V16.6306ZM9.8291 20.3806C9.44145 20.3806 9.12598 20.696 9.12598 21.0837C9.12598 21.4713 9.44145 21.7868 9.8291 21.7868C10.2168 21.7868 10.5322 21.4713 10.5322 21.0837C10.5322 20.696 10.2168 20.3806 9.8291 20.3806ZM9.8291 20.8493C9.95848 20.8493 10.0635 20.9543 10.0635 21.0837C10.0635 21.2131 9.95848 21.3181 9.8291 21.3181C9.69973 21.3181 9.59473 21.2131 9.59473 21.0837C9.59473 20.9543 9.69973 20.8493 9.8291 20.8493ZM15.7031 22.7344H17.5781V26.4844H15.7031V22.7344Z" fill="url(#paint0_linear_2_563)"/>
<defs>
<linearGradient id="paint0_linear_2_563" x1="4.45312" y1="15" x2="23.513" y2="15" gradientUnits="userSpaceOnUse">
<stop/>
<stop offset="1"/>
</linearGradient>
</defs>
</svg>
