<svg width="30" height="30" viewBox="0 0 30 30" fill="none" xmlns="http://www.w3.org/2000/svg">
<path d="M6.375 28.125H23.625C24.2453 28.125 24.75 27.6203 24.75 27V7.5C24.75 7.45067 24.7402 7.40182 24.7213 7.35627C24.7024 7.31071 24.6747 7.26933 24.6398 7.2345L19.3905 1.98525C19.3557 1.95028 19.3143 1.92254 19.2688 1.90362C19.2232 1.88469 19.1743 1.87497 19.125 1.875H6.375C5.75475 1.875 5.25 2.37975 5.25 3V27C5.25 27.6203 5.75475 28.125 6.375 28.125ZM19.5 3.15525L23.4697 7.125H19.875C19.668 7.125 19.5 6.95662 19.5 6.75V3.15525ZM6 3C6 2.79338 6.168 2.625 6.375 2.625H18.75V6.75C18.75 7.37025 19.2547 7.875 19.875 7.875H24V27C24 27.2066 23.832 27.375 23.625 27.375H6.375C6.168 27.375 6 27.2066 6 27V3Z" fill="black"/>
<path d="M10.125 9.75C10.125 9.65054 10.0855 9.55516 10.0152 9.48483C9.94484 9.41451 9.84946 9.375 9.75 9.375C9.65054 9.375 9.55516 9.41451 9.48483 9.48483C9.41451 9.55516 9.375 9.65054 9.375 9.75C9.37556 10.182 9.52506 10.6007 9.7983 10.9353C10.0715 11.27 10.4518 11.5002 10.875 11.5871V12C10.875 12.0995 10.9145 12.1948 10.9848 12.2652C11.0552 12.3355 11.1505 12.375 11.25 12.375C11.3495 12.375 11.4448 12.3355 11.5152 12.2652C11.5855 12.1948 11.625 12.0995 11.625 12V11.5871C12.48 11.4128 13.125 10.6553 13.125 9.75C13.125 8.84475 12.48 8.08725 11.625 7.91287V5.694C12.0604 5.84925 12.375 6.26175 12.375 6.75C12.375 6.84946 12.4145 6.94484 12.4848 7.01517C12.5552 7.08549 12.6505 7.125 12.75 7.125C12.8495 7.125 12.9448 7.08549 13.0152 7.01517C13.0855 6.94484 13.125 6.84946 13.125 6.75C13.1244 6.31797 12.9749 5.89934 12.7017 5.56469C12.4285 5.23004 12.0482 4.99983 11.625 4.91287V4.5C11.625 4.40054 11.5855 4.30516 11.5152 4.23484C11.4448 4.16451 11.3495 4.125 11.25 4.125C11.1505 4.125 11.0552 4.16451 10.9848 4.23484C10.9145 4.30516 10.875 4.40054 10.875 4.5V4.91287C10.02 5.08725 9.375 5.84475 9.375 6.75C9.375 7.65525 10.02 8.41275 10.875 8.58713V10.806C10.6563 10.729 10.4667 10.5861 10.3324 10.397C10.1982 10.2079 10.1257 9.98191 10.125 9.75ZM12.375 9.75C12.3743 9.98191 12.3018 10.2079 12.1676 10.397C12.0333 10.5861 11.8437 10.729 11.625 10.806V8.694C12.0604 8.84925 12.375 9.26175 12.375 9.75ZM10.125 6.75C10.125 6.26175 10.4396 5.84925 10.875 5.694V7.806C10.6563 7.72895 10.4667 7.58608 10.3324 7.397C10.1982 7.20793 10.1257 6.98191 10.125 6.75ZM14.625 10.5H22.5C22.5995 10.5 22.6948 10.4605 22.7652 10.3902C22.8355 10.3198 22.875 10.2245 22.875 10.125C22.875 10.0255 22.8355 9.93016 22.7652 9.85983C22.6948 9.78951 22.5995 9.75 22.5 9.75H14.625C14.5255 9.75 14.4302 9.78951 14.3598 9.85983C14.2895 9.93016 14.25 10.0255 14.25 10.125C14.25 10.2245 14.2895 10.3198 14.3598 10.3902C14.4302 10.4605 14.5255 10.5 14.625 10.5ZM22.5 13.125H13.125C13.0255 13.125 12.9302 13.1645 12.8598 13.2348C12.7895 13.3052 12.75 13.4005 12.75 13.5C12.75 13.5995 12.7895 13.6948 12.8598 13.7652C12.9302 13.8355 13.0255 13.875 13.125 13.875H22.5C22.5995 13.875 22.6948 13.8355 22.7652 13.7652C22.8355 13.6948 22.875 13.5995 22.875 13.5C22.875 13.4005 22.8355 13.3052 22.7652 13.2348C22.6948 13.1645 22.5995 13.125 22.5 13.125ZM7.5 17.25H22.5C22.5995 17.25 22.6948 17.2105 22.7652 17.1402C22.8355 17.0698 22.875 16.9745 22.875 16.875C22.875 16.7755 22.8355 16.6802 22.7652 16.6098C22.6948 16.5395 22.5995 16.5 22.5 16.5H7.5C7.40054 16.5 7.30516 16.5395 7.23483 16.6098C7.16451 16.6802 7.125 16.7755 7.125 16.875C7.125 16.9745 7.16451 17.0698 7.23483 17.1402C7.30516 17.2105 7.40054 17.25 7.5 17.25ZM7.5 20.625H22.5C22.5995 20.625 22.6948 20.5855 22.7652 20.5152C22.8355 20.4448 22.875 20.3495 22.875 20.25C22.875 20.1505 22.8355 20.0552 22.7652 19.9848C22.6948 19.9145 22.5995 19.875 22.5 19.875H7.5C7.40054 19.875 7.30516 19.9145 7.23483 19.9848C7.16451 20.0552 7.125 20.1505 7.125 20.25C7.125 20.3495 7.16451 20.4448 7.23483 20.5152C7.30516 20.5855 7.40054 20.625 7.5 20.625ZM7.5 24H22.5C22.5995 24 22.6948 23.9605 22.7652 23.8902C22.8355 23.8198 22.875 23.7245 22.875 23.625C22.875 23.5255 22.8355 23.4302 22.7652 23.3598C22.6948 23.2895 22.5995 23.25 22.5 23.25H7.5C7.40054 23.25 7.30516 23.2895 7.23483 23.3598C7.16451 23.4302 7.125 23.5255 7.125 23.625C7.125 23.7245 7.16451 23.8198 7.23483 23.8902C7.30516 23.9605 7.40054 24 7.5 24Z" fill="black"/>
</svg>
