<svg width="40" height="40" viewBox="0 0 40 40" fill="none" xmlns="http://www.w3.org/2000/svg">
<path d="M36.5 17.6667C36.3333 17.5 36.3333 17.3334 36.1667 17.1667L32.8333 13.8334C32.1667 13.1667 31.1667 13.1667 30.5 13.8334C29.8333 14.5 29.8333 15.5 30.5 16.1667L31 16.6667H26.6667C25.6667 16.6667 25 17.3334 25 18.3334C25 19.3334 25.6667 20 26.6667 20H31L30.5 20.5C29.8333 21.1667 29.8333 22.1667 30.5 22.8334C30.8333 23.1667 31.3333 23.3334 31.6667 23.3334C32 23.3334 32.5 23.1667 32.8333 22.8334L36.1667 19.5C36.3333 19.3334 36.5 19.1667 36.5 19C36.6667 18.5 36.6667 18.1667 36.5 17.6667Z" fill="black"/>
<path d="M28.3333 23.3333C27.3333 23.3333 26.6666 24 26.6666 25V26.6667C26.6666 27.6667 26 28.3333 25 28.3333H23.3333V14C23.3333 11.8333 22 10 20.1666 9.33333L17.5 8.33333H25C26 8.33333 26.6666 9 26.6666 10V11.6667C26.6666 12.6667 27.3333 13.3333 28.3333 13.3333C29.3333 13.3333 30 12.6667 30 11.6667V10C30 7.16667 27.8333 5 25 5H8.33329C8.16663 5 7.99996 5 7.83329 5.16667C7.66663 5.16667 7.49996 5.33333 7.49996 5.33333L7.33329 5.5C7.16663 5.5 6.99996 5.66667 6.99996 5.83333V6C6.83329 6 6.66663 6.16667 6.66663 6.33333V30C6.66663 30.6667 7.16663 31.3333 7.66663 31.5L18.6666 35.6667C19 35.8333 19.5 35.8333 19.8333 35.8333C20.5 35.8333 21.1666 35.6667 21.6666 35.1667C22.5 34.5 23.1666 33.5 23.1666 32.5V31.6667H24.8333C27.6666 31.6667 29.8333 29.5 29.8333 26.6667V25C30 24.1667 29.3333 23.3333 28.3333 23.3333ZM9.99996 28.8333V9L18.8333 12.3333C19.5 12.6667 20 13.3333 20 14V32.5L9.99996 28.8333Z" fill="black"/>
</svg>
