<svg width="45" height="45" viewBox="0 0 45 45" fill="none" xmlns="http://www.w3.org/2000/svg">
<path d="M24.6822 35.7844C25.6148 35.8119 26.5303 36.0394 27.3661 36.4511H27.4165C28.1148 37.0209 28.2335 38.0378 27.6849 38.7512C26.6859 40.1807 25.0876 41.0821 23.3403 41.2013C21.545 41.4154 19.7372 40.9184 18.308 39.8179C17.5729 39.3139 17.0953 38.5168 16.9996 37.6345C16.9996 36.7011 17.8718 36.2678 18.677 36.0844C19.6201 35.8858 20.5814 35.7853 21.5454 35.7844H24.6822ZM22.5687 3.75C28.3726 3.75 34.3611 7.95014 34.9817 14.0337C35.0824 15.2837 34.9817 16.5838 35.0824 17.8505C35.4117 19.484 36.1698 21.002 37.2798 22.2506C37.9699 23.2768 38.3697 24.4684 38.4374 25.7008V26.0841C38.4476 27.747 37.8517 29.3574 36.7598 30.6176C35.3759 32.0973 33.4981 33.0272 31.4759 33.2343C25.501 34.001 19.4518 34.001 13.4769 33.2343C11.4308 33.043 9.52668 32.1118 8.1259 30.6176C7.06824 29.3453 6.51361 27.7335 6.56588 26.0841V25.7008C6.63135 24.473 7.01879 23.2836 7.68977 22.2506C8.80472 21.0009 9.57353 19.4846 9.92076 17.8505C10.0214 16.5838 9.92076 15.3004 10.0214 14.0337C10.6588 7.95014 16.5299 3.75 22.4009 3.75H22.5687Z" fill="#200E32"/>
</svg>
