<svg width="150" height="150" viewBox="0 0 150 150" fill="none" xmlns="http://www.w3.org/2000/svg">
<path d="M127.152 121.275C127.152 122.174 120.684 122.902 112.705 122.902C104.726 122.902 98.2577 122.174 98.2577 121.275C98.2577 120.377 104.726 119.648 112.705 119.648C120.684 119.648 127.152 120.377 127.152 121.275ZM106.633 100.476C106.633 100.476 99.1903 99.3597 94.4763 106.058C94.4763 106.058 102.539 108.167 105.144 110.4C107.749 112.633 110.354 112.136 110.354 112.136C110.354 112.136 110.85 102.337 106.633 100.476Z" fill="#CDEEFF"/>
<path d="M104.668 105.349C104.668 105.349 103.877 103.352 103.95 103.321C104.024 103.289 105.033 105.466 105.033 105.466C107.186 106.174 108.764 107.113 108.854 107.325C108.886 107.398 108.852 107.483 108.778 107.515C108.76 107.523 108.74 107.526 108.721 107.526C108.669 107.526 108.619 107.498 108.593 107.45C108.433 107.257 106.378 106.086 103.783 105.41C103.781 105.411 103.779 105.413 103.777 105.415C103.777 105.415 101.401 106.622 101.468 106.578L103.401 105.315C102.149 105.019 99.3218 104.91 99.315 104.83C99.308 104.751 103.084 104.863 104.668 105.349Z" fill="#91C4F6"/>
<path d="M119.72 95.2666C119.72 95.2666 115.874 94.6465 115.502 89.9327C115.13 85.219 112.277 79.5128 110.913 80.7533C109.548 81.9938 110.54 86.4595 108.68 87.576C106.819 88.6923 100.617 90.553 102.478 96.6311C104.338 102.709 107.687 102.461 107.687 103.95C107.687 105.438 105.331 108.788 108.184 111.393C111.037 113.998 114.138 112.509 114.138 112.509L119.72 95.2666Z" fill="#91C4F6"/>
<path d="M112.117 115.307L111.514 106.091C111.513 106.09 111.512 106.09 111.511 106.09C110.25 105.019 108.546 103.541 108.625 103.55C108.957 103.588 110.697 105.025 111.488 105.69L111.09 99.6169C111.073 99.6112 111.056 99.6033 111.041 99.5909C109.581 98.3515 107.631 96.703 107.711 96.7121C108.097 96.7565 110.201 98.5024 111.065 99.2311L110.74 94.277C110.737 94.2746 110.732 94.2734 110.729 94.2706C109.801 93.4826 108.513 92.2932 108.592 92.3024C108.842 92.331 110.036 93.309 110.714 93.8786C110.714 93.8786 110.477 89.2759 110.557 89.2705C110.637 89.2654 111.064 94.7908 111.064 94.7908C111.667 94.1355 112.701 93.0423 112.941 92.9831C113.019 92.964 111.909 94.293 111.09 95.1908L111.411 100.097C112.212 99.2255 113.98 97.3354 114.348 97.2445C114.423 97.2257 112.722 99.0895 111.438 100.498L111.829 106.479C112.514 105.733 114.093 104.042 114.421 103.96C114.499 103.941 112.999 105.624 111.884 106.848C111.875 106.858 111.865 106.866 111.855 106.872L112.406 115.288C112.41 115.343 112.382 115.393 112.339 115.42C112.319 115.433 112.296 115.44 112.271 115.442C112.191 115.447 112.123 115.387 112.117 115.307Z" fill="#CDEEFF"/>
<path d="M128.899 86.2109C128.899 86.2109 117.735 89.6842 114.758 99.8559C111.781 110.028 114.758 112.26 114.758 112.26C114.758 112.26 122.945 112.136 126.791 102.709C130.636 93.2815 128.899 86.2109 128.899 86.2109Z" fill="#CDEEFF"/>
<path d="M114.3 113.018L118.687 104.891C118.687 104.89 118.686 104.89 118.686 104.889C118.187 103.312 117.338 101.288 117.388 101.226C117.438 101.164 118.562 103.555 118.878 104.538L121.769 99.1821C121.758 99.168 121.748 99.1526 121.742 99.1342C121.164 97.3083 120.389 94.8754 120.451 94.9254C120.755 95.1688 121.609 97.7657 121.953 98.8419L124.311 94.4731C124.31 94.4692 124.307 94.4659 124.306 94.4618C123.938 93.3008 123.479 91.6087 123.542 91.6588C123.738 91.8157 124.23 93.279 124.501 94.1218C124.501 94.1218 126.747 90.0972 126.818 90.135C126.888 90.1731 124.313 95.0803 124.313 95.0803C125.172 94.8459 126.629 94.4696 126.864 94.5473C126.94 94.5723 125.293 95.1077 124.122 95.4331L121.786 99.7599C122.928 99.4469 125.43 98.7859 125.79 98.9041C125.864 98.9286 123.432 99.6026 121.596 100.113L118.748 105.387C119.725 105.119 121.961 104.527 122.283 104.632C122.359 104.657 120.194 105.285 118.598 105.729C118.586 105.733 118.573 105.734 118.561 105.734L114.554 113.156C114.528 113.204 114.478 113.232 114.427 113.232C114.404 113.232 114.38 113.226 114.358 113.214C114.288 113.176 114.262 113.089 114.3 113.018Z" fill="#91C4F6"/>
<path d="M111.728 122.181C111.65 122.183 111.57 122.184 111.49 122.184C104.295 122.184 105.907 112.633 105.907 112.633H118.313C118.313 112.633 119.65 121.998 111.728 122.181Z" fill="#DBA12C"/>
<path d="M111.728 122.181C111.758 122.169 111.789 122.156 111.821 122.143C115.306 120.716 113.668 113.253 113.525 112.633H118.313C118.313 112.633 119.65 121.998 111.728 122.181Z" fill="#FFC439"/>
<path d="M27.6066 121.666C28.149 121.993 67.7909 122.048 77.5502 122.048C87.3096 122.048 90.3245 97.6817 81.7558 94.3331C73.1871 90.9844 57.8478 63.7752 51.0396 58.281C44.2314 52.7868 32.3566 51.2671 25.7067 58.281C19.0568 65.2949 18.4234 116.13 27.6066 121.666Z" fill="#91C4F6"/>
<path d="M26.8149 113.533C27.6939 114.695 34.837 117.228 38.9009 116.964C55.0275 115.917 81.2694 115.79 81.4919 116.383C81.8085 117.228 43.0703 117.526 37.1592 117.632C31.2482 117.737 26.8149 113.533 26.8149 113.533Z" fill="#549BEC"/>
<path d="M86.4597 109.869C85.4824 116.221 82.3197 122.049 77.5489 122.049C75.8077 122.049 73.1069 122.049 69.8553 122.04C71.0547 119.837 75.2568 116.408 76.1097 113.005C77.3713 107.941 67.8741 103.401 66.9236 102.664C66.0618 101.998 54.1304 118.869 51.9449 121.987C49.6261 121.987 47.334 121.969 45.1219 121.96C47.9382 117.776 54.9566 108.43 54.1037 106.146C52.9932 103.188 38.6365 109.096 36.7353 104.245C34.8341 99.3856 41.0618 88.7247 40.7509 87.8097C40.4311 86.8946 36.1046 89.0445 31.8846 85.9528C27.6557 82.8523 35.8913 62.1256 35.1894 62.0102C34.6652 61.9123 31.1116 58.5365 29.8767 55.2315C35.3937 52.5486 42.3944 53.3126 47.796 56.1643C47.796 64.9507 47.7871 77.122 47.716 78.9078C47.6094 81.7595 71.9519 89.9951 71.9519 89.9951L86.4597 109.869Z" fill="#549BEC"/>
<path d="M59.9379 55.7129L68.06 63.3942C68.06 63.3942 68.6934 66.4025 68.4559 67.2733C68.2184 68.1442 64.3582 68.3009 64.3582 68.3009L57.8477 63.9088L59.9379 55.7129Z" fill="#D7A28E"/>
<path d="M56.9864 122.191L56.4404 122.308L57.1773 122.752L56.9864 122.191Z" fill="#11405C"/>
<path d="M49.6016 120.807C49.6016 120.807 48.7591 121.099 49.1304 121.806C49.5019 122.513 55.5187 126.306 57.1831 126.543C58.8476 126.781 61.1767 124.865 60.2836 124.432C59.3904 123.999 49.6016 120.807 49.6016 120.807Z" fill="#11405C"/>
<path d="M50.4528 120.647C50.4528 120.647 48.8779 120.714 49.2493 121.421C49.6207 122.128 55.6376 125.921 57.302 126.158C58.9665 126.396 61.1766 124.865 60.2836 124.432C59.3903 123.999 50.4528 120.647 50.4528 120.647Z" fill="#FFC439"/>
<path d="M55.2853 124.785C54.7147 124.442 54.0503 124.048 53.3872 123.639C51.2195 122.3 49.0648 120.8 50.2199 120.412C51.1363 120.104 52.2811 119.141 53.0363 118.433C53.522 117.98 53.8457 117.631 53.8457 117.631L56.4326 119.195L54.9299 121.145C54.9299 121.145 57.1056 123.114 59.2898 123.646C60.7519 124.003 57.722 126.248 55.2853 124.785Z" fill="#D7A28E"/>
<path d="M53.7101 124.264C53.7101 124.264 57.3785 123.345 58.4996 124.198C58.4996 124.198 57.8622 123.448 57.9073 122.791C57.9073 122.791 57.1865 122.003 56.9865 122.191C56.6759 122.484 57.8316 123.675 57.8316 123.675C57.8316 123.675 54.5012 123.113 52.6924 123.628L53.7101 124.264Z" fill="#2F627C"/>
<path d="M96.8679 119.962L96.5623 120.429L97.3986 120.226L96.8679 119.962Z" fill="#11405C"/>
<path d="M90.6512 124.182C90.6512 124.182 90.2595 124.983 91.0211 125.223C91.7828 125.464 98.725 123.917 100.074 122.913C101.422 121.909 101.726 118.908 100.787 119.23C99.8476 119.552 90.6512 124.182 90.6512 124.182Z" fill="#11405C"/>
<path d="M91.1432 123.469C91.1432 123.469 90.0724 124.626 90.8341 124.866C91.5958 125.106 98.538 123.56 99.8865 122.556C101.235 121.552 101.726 118.908 100.787 119.23C99.8476 119.552 91.1432 123.469 91.1432 123.469Z" fill="#FFC439"/>
<path d="M97.4877 123.001C96.8415 123.16 96.0919 123.348 95.3331 123.525C92.8513 124.102 90.2656 124.555 90.8122 123.466C91.2451 122.602 89.217 119.404 89.217 119.404L93.0961 118.335L94.6717 120.669C94.6717 120.669 97.603 120.534 99.5279 119.372C100.817 118.595 100.248 122.324 97.4877 123.001Z" fill="#D7A28E"/>
<path d="M96.0028 123.741C96.0028 123.741 97.9593 120.505 99.3557 120.32C99.3557 120.32 98.3752 120.237 97.9441 119.739C97.9441 119.739 96.8774 119.688 96.8681 119.962C96.854 120.389 98.5133 120.42 98.5133 120.42C98.5133 120.42 95.7535 122.367 94.8326 124.007L96.0028 123.741ZM61.907 82.7556C61.907 82.7556 79.0905 87.1706 81.0696 91.2872C83.0488 95.4038 94.4481 118.334 94.4481 118.334L89.3457 120.785L72.6385 99.8102C72.6385 99.8102 56.8198 94.6401 52.6923 92.4357C48.5648 90.2312 49.5499 81.1921 49.5499 81.1921L61.8594 80.8105L61.907 82.7556Z" fill="#2F627C"/>
<path d="M94.4486 118.336L89.3441 120.787L72.642 99.8113C72.642 99.8113 56.8218 94.6408 52.6907 92.4376C48.5685 90.2343 49.5457 81.1902 49.5457 81.1902L51.56 81.0303L52.3595 82.7539C52.3595 82.7539 76.8974 89.6745 79.4027 92.0555C81.917 94.4276 76.4799 98.9318 77.164 100.797C77.848 102.663 79.8114 102.974 80.0691 103.187C80.3267 103.401 78.4877 105.408 79.1185 105.933C79.7493 106.457 87.0734 115.378 89.5662 117.811C90.807 119.021 94.4486 118.336 94.4486 118.336Z" fill="#11405C"/>
<path d="M53.4144 81.0303L53.3572 83.3417C53.3572 83.3417 75.4849 90.8648 77.4328 93.5564C79.3807 96.248 56.4227 119.971 56.4227 119.971L51.7586 117.702L61.6306 99.9139C61.6306 99.9139 50.6444 100.998 46.0026 97.7522C41.3607 94.5064 41.9412 81.2858 41.9412 81.2858L53.4144 81.0303Z" fill="#2F627C"/>
<path d="M67.8207 98.8164C64.7469 100.878 56.1946 112.914 52.8363 118.226L51.7583 117.704L61.6285 99.918C61.6285 99.918 50.6413 101.002 46.0038 97.7503C41.3574 94.5076 41.9437 81.288 41.9437 81.288L50.9878 81.1547C47.4252 82.3896 43.1342 82.8783 44.2891 84.6907C45.7106 86.9028 47.1409 88.4131 46.1903 90.3942C45.2397 92.3665 41.5972 97.1196 52.3648 96.7197C63.1323 96.3288 72.2539 92.0556 67.9007 95.0584C63.5474 98.0702 62.6768 99.0207 64.498 98.7808C66.3193 98.5409 71.7831 96.16 67.8207 98.8164ZM57.1004 43.3657C57.1101 43.3986 57.117 43.4323 57.1265 43.4654C56.661 41.94 55.8969 40.5281 54.868 39.3128C53.0572 37.1747 50.3141 37.3035 48.4901 38.2864C48.4925 38.2846 48.4949 38.2828 48.4973 38.281C48.4923 38.2838 48.488 38.2872 48.483 38.2898C48.4069 38.3309 48.3368 38.3768 48.2642 38.4206C47.7067 38.7538 47.2008 39.1791 46.7822 39.6837C46.3058 40.261 45.9519 40.928 45.6429 41.6015C45.3286 42.2733 45.0724 42.9675 44.7094 43.5934C44.5261 43.9036 44.3197 44.1996 44.0657 44.447C43.8161 44.6919 43.5124 44.9038 43.2124 45.1051C42.006 45.9187 40.5719 46.3326 39.1834 46.8201C38.477 47.0609 37.7986 47.3848 37.1708 47.7851C36.557 48.2026 35.9708 48.6791 35.5324 49.2777C36.0202 48.7224 36.6158 48.277 37.2454 47.9054C37.8785 47.5371 38.5517 47.2422 39.2517 47.0318C39.96 46.8215 40.6628 46.5908 41.3608 46.334C42.0556 46.0734 42.7474 45.7663 43.3717 45.3453C43.6808 45.1315 43.9848 44.916 44.26 44.6407C44.5326 44.3688 44.7485 44.0504 44.9364 43.724C45.3077 43.0658 45.5602 42.3664 45.8417 41.6886C46.0842 41.1046 46.3653 40.5379 46.7188 40.0177C45.7827 41.6382 45.4489 43.6449 44.68 44.6444C42.9087 46.9468 39.3969 46.6805 36.4561 48.8536C33.4109 51.1037 33.0623 56.5011 36.9649 59.6582C40.643 62.6333 48.9641 61.8064 53.6892 56.5948C56.758 53.2103 57.9293 49.3502 57.596 45.8381C57.7696 47.3614 57.7036 48.9068 57.3603 50.3942C57.0892 51.5427 56.6679 52.6547 56.1001 53.6878C55.532 54.7205 54.8316 55.6807 54.0265 56.5433C53.2218 57.405 52.3496 58.2124 51.3839 58.8912C50.4253 59.5799 49.3786 60.1428 48.2858 60.5904C47.1923 61.0374 46.0444 61.3565 44.8729 61.5351C43.7033 61.7196 42.5074 61.7826 41.323 61.6575C43.6842 62.0088 46.1327 61.6546 48.3709 60.8053C50.6151 59.9445 52.6169 58.5027 54.2389 56.7381C55.8576 54.9709 57.0862 52.8016 57.5735 50.4414C58.0709 48.0884 57.8791 45.6157 57.1004 43.3657Z" fill="#11405C"/>
<path d="M54.1006 54.211L54.4436 52.8291L62.7032 59.2249C62.7032 59.2249 61.0144 66.3629 60.6977 66.9963C60.381 67.6296 55.5748 64.7796 55.5748 64.7796L54.1006 54.211Z" fill="#FFC439"/>
<path d="M57.6484 59.8326C57.6484 59.8326 60.6956 64.6745 60.5179 67.0821C59.8871 67.1354 57.8527 66.0604 56.6 65.3675L55.676 56.3056L57.6484 59.8326ZM62.7035 59.2284C62.7035 59.2284 61.975 62.2935 61.3886 64.5767L58.1103 55.6748L62.7035 59.2284Z" fill="#DBA12C"/>
<path d="M41.3812 82.0785C41.5793 83.358 59.3518 84.0483 62.5976 82.8606C65.8434 81.6729 60.6976 80.2598 60.6976 79.3102C60.6976 78.3606 58.6393 68.4237 58.6393 68.0857C58.6393 67.7477 58.6862 65.3225 58.5279 63.9749C58.3696 62.6273 56.4491 59.9371 56.4491 59.9371C56.4491 59.9371 55.1561 53.0528 54.4435 52.8292C53.731 52.6057 46.8436 53.3193 46.1312 53.4357C45.4187 53.552 40.3588 75.4738 41.3812 82.0785Z" fill="#FFC439"/>
<path d="M45.9214 53.7735C46.0102 53.5603 46.0813 53.4447 46.1346 53.4359C46.8453 53.3204 53.7305 52.6097 54.4412 52.8318C54.61 52.8851 54.8144 53.3026 55.0187 53.9245C55.0187 53.9334 55.0187 53.9334 55.0187 53.9422C55.0187 55.2482 54.4857 56.6342 52.3978 57.025C49.4039 57.5848 47.0496 55.2215 45.9214 53.7735ZM46.57 80.8079C46.8543 81.4209 49.7504 82.9844 54.1392 83.4642C48.2046 83.4198 41.497 82.8601 41.3816 82.0783C40.8929 78.9333 41.7902 72.2968 42.9363 66.2024L47.4761 59.5571C47.4761 59.5571 45.9303 69.525 45.7792 70.0847C45.6193 70.6355 43.345 76.6323 43.345 76.6323L58.528 75.424L60.2426 76.5079C60.5091 77.9204 60.6957 79.022 60.6957 79.3064C60.6957 79.8749 62.5614 80.6212 63.3343 81.3763C60.3847 81.8294 54.8233 81.8916 53.7216 81.4829C52.4601 81.012 53.2597 79.2263 51.8293 79.4219C50.4078 79.6263 46.1701 79.9817 46.57 80.8079Z" fill="#DBA12C"/>
<path d="M58.4019 47.6475C58.4019 47.6475 69.046 63.7356 69.4059 65.888C69.7658 68.0403 68.6413 68.569 66.9518 68.9359C65.2623 69.3027 62.9612 67.3526 62.9612 67.3526L56.2883 48.7487L58.4019 47.6475Z" fill="#D7A28E"/>
<path d="M69.7387 70.4795H57.4324C56.8898 70.4795 56.3707 70.9193 56.2728 71.4619L54.8622 79.2868C54.7644 79.8294 55.1249 80.2692 55.6675 80.2692H67.9738C68.5163 80.2692 69.0355 79.8294 69.1333 79.2868L70.5439 71.4619C70.6418 70.9193 70.2812 70.4795 69.7387 70.4795Z" fill="#CDEEFF"/>
<path d="M70.1562 70.8057H57.8499C57.3073 70.8057 56.7882 71.2455 56.6903 71.7881L55.2797 79.613C55.1819 80.1556 55.5424 80.5955 56.085 80.5955H68.3913C68.9338 80.5955 69.453 80.1556 69.5508 79.613L70.9614 71.7881C71.0593 71.2455 70.6987 70.8057 70.1562 70.8057Z" fill="#91C4F6"/>
<path d="M56.5039 80.5952C56.5039 80.5952 68.5885 80.6259 68.6101 80.5952C68.6317 80.5645 63.8968 79.9242 56.5039 80.5952Z" fill="#549BEC"/>
<path d="M44.6199 65.8467L41.951 74.6524L53.7208 74.1083C53.7208 74.1083 52.879 77.577 52.9582 77.8145C53.0373 78.052 41.6452 81.1535 37.212 79.491C32.7787 77.8285 37.9261 64.8857 37.9261 64.8857L44.6199 65.8467Z" fill="#D7A28E"/>
<path d="M38.3466 75.6301C37.9506 76.1112 42.4368 74.9203 41.4605 74.5449C40.4841 74.1695 38.7952 75.0852 38.3466 75.6301Z" fill="#C18C7C"/>
<path d="M46.1312 53.4355L41.2454 55.5172C41.2454 55.5172 35.7869 65.6109 36.4203 66.2442C37.0536 66.8775 44.1917 69.1337 44.1917 69.1337L48.1368 59.1721C48.1368 59.1721 49.2979 56.6711 46.1312 53.4355Z" fill="#FFC439"/>
<path d="M54.0791 73.9381C55.1109 73.5277 56.1714 73.5985 56.6136 73.6542C57.3642 73.7498 59.8732 74.9167 59.8732 74.9167C59.8732 74.9167 59.7747 75.2832 59.6641 75.3917C59.4845 75.568 59.0155 75.5705 58.5277 75.4243C58.8436 75.5868 59.3929 75.9404 59.3929 75.9404C59.3929 75.9404 59.1711 76.3274 59.0323 76.3979C58.8465 76.4922 58.4331 76.4572 58.1286 76.3548C58.34 76.4934 58.7109 76.7071 58.7109 76.7071C58.7109 76.7071 58.4133 77.1145 58.2652 77.1635C57.9837 77.2568 57.4951 77.1122 57.0809 76.9618C57.3649 77.1124 57.7869 77.4812 57.7869 77.4812C57.7869 77.4812 57.4488 77.7912 57.3155 77.8392C56.7977 78.0255 55.2307 77.4062 55.2307 77.4062C54.2143 78.6263 53.1713 77.8737 52.4586 77.9078C52.2862 77.9139 52.1338 75.191 52.1338 75.191C52.1338 75.191 53.3081 74.2429 54.0791 73.9381Z" fill="#D7A28E"/>
<path d="M56.7633 74.78C56.7609 74.795 56.8626 74.8221 57.0237 74.8734C57.1847 74.9252 57.4056 75.0009 57.6469 75.0942C58.1297 75.2798 58.5152 75.449 58.5276 75.4241C58.54 75.4 58.171 75.1891 57.6825 75.0013C57.4386 74.907 57.21 74.8404 57.0415 74.8054C56.8727 74.7706 56.7651 74.7679 56.7633 74.78ZM56.4609 75.7056C56.4574 75.7196 56.5509 75.7557 56.7011 75.8143C56.8657 75.8798 57.0659 75.9594 57.2872 76.0474C57.7447 76.2313 58.1169 76.3799 58.1286 76.3546C58.1401 76.33 57.7848 76.1402 57.3243 75.955C57.0942 75.8623 56.8809 75.7896 56.7232 75.7475C56.5652 75.7054 56.464 75.693 56.4609 75.7056ZM56.2636 76.6382C56.2529 76.6636 56.4615 76.7756 56.7294 76.8884C56.9974 77.0013 57.2233 77.0722 57.2339 77.0468C57.2446 77.0215 57.036 76.9095 56.7681 76.7967C56.5001 76.6838 56.2743 76.6129 56.2636 76.6382Z" fill="#C18C7C"/>
<path d="M53.0797 45.9327L57.5295 49.6445C57.7257 49.8081 58.0461 49.8057 58.2451 49.639L60.0819 48.1645C60.2809 47.9978 60.2832 47.73 60.087 47.5664L55.6372 43.8546C55.4411 43.6909 55.1207 43.6933 54.9217 43.86L53.0849 45.3345C52.8858 45.5012 52.8835 45.7691 53.0797 45.9327Z" fill="#91C4F6"/>
<path d="M52.5414 45.9327L56.9912 49.6445C57.1874 49.8081 57.5078 49.8057 57.7068 49.639L59.5436 48.1645C59.7426 47.9978 59.7449 47.73 59.5487 47.5664L55.0989 43.8546C54.9028 43.6909 54.5824 43.6933 54.3834 43.86L52.5466 45.3345C52.3475 45.5012 52.3452 45.7691 52.5414 45.9327Z" fill="#CDEEFF"/>
<path d="M57.0093 44.7546C57.0093 44.7546 57.064 44.2162 56.3593 44.3946C55.6545 44.5731 55.6799 45.0593 55.9018 45.138C56.1238 45.2166 56.2603 45.2836 56.5718 45.0322C56.5718 45.0322 56.4235 45.3471 56.6592 45.4724C56.895 45.5976 57.1377 45.4902 57.1377 45.4902C57.1377 45.4902 56.9481 45.7426 57.0259 45.8546C57.1037 45.9665 57.437 46.0518 57.7252 45.8587C57.7252 45.8587 57.6121 46.1947 58.0319 46.2222C58.3126 46.2406 58.4083 46.1764 58.4083 46.1764L58.7268 46.46C58.7268 46.46 58.9796 45.7703 58.2333 45.5385C58.2333 45.5385 58.1984 45.034 57.6296 45.2034C57.6296 45.2034 57.6479 44.5092 57.0093 44.7546Z" fill="#D7A28E"/>
<path d="M57.0069 44.7604C57.0131 44.7826 56.9019 44.8267 56.7824 44.9057C56.6613 44.983 56.579 45.0666 56.5622 45.0553C56.5429 45.0439 56.6074 44.9265 56.7406 44.8414C56.8728 44.7547 57.0031 44.7416 57.0069 44.7604ZM57.6387 45.1897C57.6409 45.2007 57.6121 45.2161 57.5679 45.2423C57.5235 45.2685 57.463 45.3064 57.396 45.3495C57.262 45.4356 57.1514 45.5065 57.1377 45.4899C57.1243 45.474 57.2153 45.3745 57.3546 45.2849C57.4241 45.2402 57.4929 45.2075 57.5467 45.1925C57.6006 45.1772 57.6369 45.1799 57.6387 45.1897ZM58.2332 45.5382C58.2341 45.5499 58.2015 45.5611 58.1538 45.5851C58.106 45.6096 58.0427 45.6489 57.9754 45.6985C57.8404 45.7972 57.7367 45.8899 57.7206 45.8753C57.7051 45.8619 57.7865 45.7419 57.9303 45.6365C58.0017 45.5838 58.0766 45.5478 58.1353 45.5342C58.1946 45.5209 58.2329 45.5288 58.2332 45.5382Z" fill="#C18C7C"/>
<path d="M46.7209 53.2749L53.9818 52.7207C53.9818 52.7207 54.527 55.6256 52.2469 56.2985C49.9667 56.9714 47.1563 55.1749 46.7209 53.2749Z" fill="#D7A28E"/>
<path d="M52.8735 54.6468C51.8194 54.897 48.6019 54.2718 48.8229 53.4359C49.0264 52.6686 49.3494 48.4659 49.2983 46.748L53.2231 49.2326C53.2196 49.6219 53.1638 52.3246 52.8735 54.6468Z" fill="#D7A28E"/>
<path d="M48.7324 44.6606C48.7853 45.5473 49.0012 46.4029 49.1256 46.97C49.5956 49.1372 53.8983 50.2987 54.157 50.2311C55.1044 49.9835 57.2266 48.3639 56.7035 46.6087C56.0935 44.5648 55.6038 44.3959 55.5217 42.4076C55.5155 42.2122 55.4797 42.0451 55.4224 41.8925C54.8046 42.0642 53.0157 41.9708 52.5372 41.4365C52.4425 42.2246 50.276 42.9525 49.2518 42.8529C49.1847 43.3324 49.793 45.2654 49.2946 45.3415C49.1756 45.3613 48.9518 45.0934 48.7324 44.6606Z" fill="#D7A28E"/>
<path d="M54.1579 50.2322C54.1564 50.3183 53.3751 50.3868 52.4507 50.0998C51.9909 49.9585 51.6021 49.7341 51.3608 49.5236C51.117 49.3107 51.0285 49.1242 51.0639 49.0959C51.1035 49.0617 51.2512 49.1777 51.506 49.319C51.7621 49.4605 52.1282 49.6292 52.5588 49.7616C53.4171 50.0302 54.1663 50.1235 54.1579 50.2322Z" fill="#C18C7C"/>
<path d="M49.3385 46.7743C48.3591 47.5844 47.2199 45.22 48.1384 44.6766C48.4036 44.5195 48.9535 44.3994 49.167 44.9414C49.3973 45.5264 49.5531 46.5969 49.3385 46.7743Z" fill="#D7A28E"/>
<path d="M48.4558 45.0986C48.7081 45.248 49.203 45.7981 48.9789 46.286C48.9789 46.286 48.9449 45.9796 48.7599 45.8124L48.3289 45.6734L48.7341 45.5959L48.4558 45.0986ZM53.6632 44.9912C53.4822 45.0885 54.1648 45.716 53.8015 45.8318C53.4383 45.9475 54.0623 46.018 54.1011 45.7133C54.1397 45.4087 53.8237 44.9049 53.6632 44.9912Z" fill="#11405C"/>
<path d="M52.3427 44.602C52.4518 44.8026 52.388 45.0478 52.2005 45.1497C52.0129 45.2516 51.7726 45.1717 51.6637 44.971C51.5546 44.7705 51.6182 44.5251 51.8058 44.4232C51.9933 44.3213 52.2337 44.4013 52.3427 44.602Z" fill="#11405C"/>
<path d="M52.2466 44.5432C52.2785 44.6118 52.258 44.6887 52.2012 44.7151C52.1441 44.7414 52.0722 44.7073 52.0405 44.6388C52.0088 44.5702 52.0293 44.4931 52.0863 44.4669C52.143 44.4406 52.2151 44.4747 52.2466 44.5432Z" fill="white"/>
<path d="M50.6233 44.4203C50.519 44.4583 50.3603 44.1881 50.4443 44.1153C50.4443 44.1153 51.2903 43.0758 52.2586 43.2845C52.2586 43.2845 52.339 43.4839 52.3333 43.5534C52.3245 43.6629 51.8639 43.7128 51.7444 43.7399C51.3843 43.8217 50.6233 44.4203 50.6233 44.4203Z" fill="#11405C"/>
<path d="M54.989 43.9618C55.0132 44.1889 54.8609 44.3915 54.6486 44.4141C54.4364 44.4369 54.2447 44.2713 54.2203 44.0442C54.1959 43.8171 54.3484 43.6147 54.5605 43.5919C54.7728 43.5693 54.9646 43.7349 54.989 43.9618Z" fill="#11405C"/>
<path d="M54.9224 43.8722C54.9256 43.9475 54.8774 44.0108 54.8148 44.0135C54.7522 44.0161 54.6987 43.9571 54.6955 43.8818C54.6923 43.8062 54.7405 43.743 54.8031 43.7403C54.8658 43.7375 54.9194 43.7966 54.9224 43.8722Z" fill="white"/>
<path d="M55.0996 43.0263C55.1804 43.0109 55.1775 42.8026 55.1066 42.7801C55.1066 42.7801 53.8148 42.6568 53.7535 42.8194C53.7535 42.8194 53.722 43.0217 53.7356 43.0772C53.7571 43.1642 53.8609 43.2416 53.9946 43.216L55.0996 43.0263Z" fill="#11405C"/>
<path d="M53.2259 47.4296C54.443 47.5002 54.5214 47.0403 55.0234 46.9897C55.298 46.9621 55.4673 47.1809 55.3999 47.4105C55.3999 47.4105 55.0756 48.4908 53.6553 48.2814C52.76 48.1497 52.9575 47.4142 53.2259 47.4296Z" fill="white"/>
<path d="M104.661 23.4355H71.8659C70.0978 23.4355 68.66 24.8693 68.66 26.6414V44.1916L62.1235 47.6471C62.337 47.631 65.873 47.5545 68.6721 47.494C68.8171 49.1332 70.1945 50.4179 71.8659 50.4179H104.661C106.433 50.4179 107.867 48.9801 107.867 47.208V26.6414C107.867 24.8694 106.433 23.4355 104.661 23.4355Z" fill="#CDEEFF"/>
<path d="M87.5708 37.714V43.9836C87.5708 45.0392 86.7173 45.8927 85.6648 45.8927H75.8754C74.8198 45.8927 73.9663 45.0392 73.9663 43.9836V35.8659C73.9663 34.8134 74.8198 33.96 75.8754 33.96H84.1792C84.1343 34.114 84.0188 34.2455 83.8455 34.2969C83.377 34.4349 83.377 35.0991 83.8455 35.237C84.176 35.3365 84.3044 35.7344 84.0958 36.0071C84.022 36.1001 83.9931 36.2028 83.9931 36.3055C83.9931 36.6135 84.3011 36.8926 84.6476 36.7675C84.9717 36.652 85.3118 36.8991 85.3022 37.2424C85.2893 37.7301 85.9214 37.9354 86.1974 37.5344C86.2936 37.39 86.4476 37.3194 86.6017 37.3194C86.7557 37.3194 86.9097 37.39 87.006 37.5344C87.1472 37.7397 87.3782 37.7846 87.5708 37.714ZM89.9544 37.6635H99.9092C100.197 37.6635 100.431 37.4298 100.431 37.1414C100.431 36.8531 100.197 36.6195 99.9092 36.6195H89.9544C89.6661 36.6195 89.4322 36.8531 89.4322 37.1414C89.4322 37.4298 89.6661 37.6635 89.9544 37.6635ZM101.591 37.6635H103.01C103.299 37.6635 103.532 37.4298 103.532 37.1414C103.532 36.8531 103.299 36.6195 103.01 36.6195H101.591C101.303 36.6195 101.069 36.8531 101.069 37.1414C101.069 37.4298 101.303 37.6635 101.591 37.6635ZM92.1286 42.1873H89.9544C89.6661 42.1873 89.4322 42.4209 89.4322 42.7092C89.4322 42.9977 89.6661 43.2314 89.9544 43.2314H92.1286C92.4168 43.2314 92.6505 42.9977 92.6505 42.7092C92.6506 42.4209 92.4168 42.1873 92.1286 42.1873ZM97.5225 42.1873H93.8107C93.5225 42.1873 93.2887 42.4209 93.2887 42.7092C93.2887 42.9977 93.5224 43.2314 93.8107 43.2314H97.5225C97.8108 43.2314 98.0446 42.9977 98.0446 42.7092C98.0446 42.4209 97.8108 42.1873 97.5225 42.1873ZM103.01 39.4034H97.0004C96.7122 39.4034 96.4785 39.6371 96.4785 39.9253C96.4785 40.2136 96.7122 40.4472 97.0004 40.4472H103.01C103.299 40.4472 103.532 40.2137 103.532 39.9253C103.532 39.6371 103.299 39.4034 103.01 39.4034ZM89.9544 40.4472H95.3183C95.6067 40.4472 95.8405 40.2137 95.8405 39.9253C95.8405 39.6371 95.6067 39.4034 95.3183 39.4034H89.9544C89.6661 39.4034 89.4322 39.6371 89.4322 39.9253C89.4322 40.2137 89.6661 40.4472 89.9544 40.4472Z" fill="white"/>
<path d="M76.3911 37.7987L80.7298 36.877L85.0685 37.5135L80.8062 38.9833L76.3911 37.7987Z" fill="#FFC439"/>
<path d="M80.9241 43.4012L85.1468 42.3701L85.0685 37.5137L80.7913 38.4238L80.9241 43.4012Z" fill="#DBA12C"/>
<path opacity="0.5" d="M78.3325 37.3859L79.6901 37.1055L83.5351 37.8142L83.5818 38.7901L83.0474 38.9552L82.9483 38.7961L82.8965 39.0216L82.4885 39.1627L82.4749 38.1176L78.3325 37.3859Z" fill="#CDEEFF"/>
<path opacity="0.5" d="M82.9522 42.908L82.9497 42.1504L83.2117 42.0996L83.2694 42.1921L83.2995 42.0626L83.9847 41.8682L84.0651 42.6356L82.9522 42.908Z" fill="#CDEEFF"/>
<path d="M76.3911 37.7988L76.5306 42.7874L80.9242 43.4012L80.7913 38.4238L76.3911 37.7988Z" fill="#FFC439"/>
<path d="M76.3911 37.7988L80.7913 38.4238C80.7913 38.4238 79.4184 38.5853 78.5068 38.4238C77.5951 38.2623 76.3911 37.7988 76.3911 37.7988Z" fill="#DBA12C"/>
<path d="M88.4783 34.4468C88.2532 34.3805 88.165 34.1089 88.3081 33.923C88.5111 33.6592 88.2453 33.2933 87.9316 33.4048C87.7106 33.4835 87.4795 33.3156 87.486 33.0811C87.4952 32.7483 87.0651 32.6086 86.8769 32.8832C86.7444 33.0767 86.4587 33.0767 86.3262 32.8832C86.138 32.6086 85.7079 32.7483 85.7171 33.0811C85.7236 33.3156 85.4925 33.4834 85.2715 33.4048C84.9578 33.2932 84.692 33.6591 84.895 33.923C85.0381 34.1089 84.9499 34.3805 84.7248 34.4468C84.4055 34.5409 84.4055 34.9932 84.7248 35.0872C84.9499 35.1535 85.0381 35.4252 84.895 35.6111C84.692 35.8749 84.9578 36.2408 85.2715 36.1292C85.4925 36.0506 85.7236 36.2185 85.7171 36.453C85.7079 36.7858 86.138 36.9255 86.3262 36.6509C86.4587 36.4574 86.7444 36.4574 86.8769 36.6509C87.0651 36.9255 87.4952 36.7857 87.486 36.453C87.4795 36.2185 87.7106 36.0506 87.9316 36.1292C88.2453 36.2408 88.5111 35.8749 88.3081 35.6111C88.165 35.4252 88.2532 35.1535 88.4783 35.0872C88.7976 34.9932 88.7976 34.5409 88.4783 34.4468Z" fill="white"/>
<path d="M86.5225 35.5053C86.367 35.4917 86.1963 35.4287 86.0815 35.3341L86.2141 35.1586C86.3338 35.2419 86.4536 35.2982 86.5912 35.2982C86.7568 35.2982 86.8384 35.2262 86.8384 35.1047C86.8384 34.8077 86.1452 34.8504 86.1452 34.4272C86.1452 34.2179 86.293 34.0693 86.5224 34.0334V33.8037H86.7263V34.0288C86.8894 34.0469 87.0015 34.1166 87.0958 34.2043L86.9454 34.3551C86.8511 34.2787 86.7722 34.2358 86.6498 34.2358C86.5122 34.2358 86.4281 34.2989 86.4281 34.416C86.4281 34.6859 87.1213 34.6321 87.1213 35.0867C87.1213 35.3004 86.9785 35.458 86.7263 35.4985V35.7304H86.5224V35.5053H86.5225Z" fill="#CDEEFF"/>
<path d="M75.6955 29.897C74.7439 29.897 73.9663 29.182 73.9663 28.1676C73.9663 27.1584 74.7439 26.4434 75.6955 26.4434C76.6567 26.4434 77.4199 27.1584 77.4199 28.1676C77.4199 29.182 76.6518 29.897 75.6955 29.897ZM75.6955 29.2933C76.3041 29.2933 76.7244 28.8536 76.7244 28.1676C76.7244 27.4817 76.3041 27.0518 75.6955 27.0518C75.0821 27.0518 74.6619 27.4817 74.6619 28.1676C74.6619 28.8536 75.0821 29.2933 75.6955 29.2933ZM79.1898 26.4918C80.0014 26.4918 80.407 26.9602 80.407 27.5254C80.407 27.936 80.1801 28.3513 79.6389 28.4961L80.4456 29.8632H79.6631L78.9194 28.5492H78.6006V29.8632H77.9243V26.4918H79.1898ZM79.1656 27.0518H78.6006V28.0422H79.1656C79.5424 28.0422 79.7115 27.844 79.7115 27.5399C79.7115 27.2402 79.5424 27.0518 79.1656 27.0518ZM83.9782 28.1822C83.9782 29.2012 83.2777 29.8631 82.2007 29.8631H81.0221V26.4917H82.2007C83.2778 26.4918 83.9782 27.1584 83.9782 28.1822ZM82.1765 29.2886C82.8867 29.2886 83.2876 28.8827 83.2876 28.1822C83.2876 27.4817 82.8867 27.0617 82.1765 27.0617H81.6985V29.2886H82.1765ZM86.4437 27.0373H85.1637V27.8829H86.2987V28.4189H85.1637V29.3125H86.4437V29.8631H84.4874V26.4866H86.4437V27.0373ZM88.3239 26.4918C89.1355 26.4918 89.5411 26.9602 89.5411 27.5254C89.5411 27.936 89.3142 28.3513 88.773 28.4961L89.5797 29.8632H88.7972L88.0535 28.5492H87.7347V29.8632H87.0585V26.4918H88.3239ZM88.2996 27.0518H87.7347V28.0422H88.2996C88.6764 28.0422 88.8456 27.844 88.8456 27.5399C88.8456 27.2402 88.6764 27.0518 88.2996 27.0518ZM94.1901 26.4867V29.8632H93.5139L91.9827 27.5494V29.8632H91.3064V26.4867H91.9827L93.5139 28.8052V26.4867H94.1901ZM96.4235 29.897C95.4719 29.897 94.6943 29.182 94.6943 28.1676C94.6943 27.1584 95.4719 26.4434 96.4235 26.4434C97.3847 26.4434 98.148 27.1584 98.148 28.1676C98.148 29.182 97.3798 29.897 96.4235 29.897ZM96.4235 29.2933C97.0322 29.2933 97.4524 28.8536 97.4524 28.1676C97.4524 27.4817 97.0321 27.0518 96.4235 27.0518C95.8101 27.0518 95.3899 27.4817 95.3899 28.1676C95.3899 28.8536 95.8102 29.2933 96.4235 29.2933ZM98.4253 26.4918H99.1499L99.744 29.1096L100.43 26.4918H101.184L101.831 29.0951L102.43 26.4918H103.159L102.217 29.8632H101.42L100.787 27.4625L100.125 29.8632L99.3334 29.8679L98.4253 26.4918Z" fill="#91C4F6"/>
<path d="M62.2592 29.427C61.2544 27.9814 59.9712 29.2409 59.9712 29.2409C59.9712 29.2409 58.6879 27.9814 57.6832 29.427C56.6228 30.9522 58.6319 33.2975 59.9712 33.9301C61.3105 33.2975 63.3195 30.9522 62.2592 29.427Z" fill="#91C4F6"/>
<path d="M42.3192 32.9418C41.6589 31.9919 40.8157 32.8195 40.8157 32.8195C40.8157 32.8195 39.9725 31.9918 39.3122 32.9418C38.6154 33.9441 39.9356 35.4852 40.8157 35.9009C41.6958 35.4852 43.016 33.9441 42.3192 32.9418Z" fill="#CDEEFF"/>
<path d="M76.9633 67.5803L79.3478 67.5732L79.3604 72.1233L76.9764 72.1304C76.5889 72.1312 76.2739 71.8178 76.2729 71.4303L76.2634 68.2841C76.2621 67.8963 76.5755 67.5814 76.9633 67.5803Z" fill="#91C4F6"/>
<path d="M84.3484 69.0292H84.3252L84.3226 68.2449C84.3221 67.829 83.9838 67.4928 83.5676 67.4941L81.4541 67.5001C81.4541 67.5001 82.3112 66.2989 82.3091 65.5304C82.3072 64.8429 82.2736 63.932 81.259 63.9346C81.259 63.9346 80.8912 64.1625 80.8941 65.1957C80.8968 66.149 78.9333 67.5687 78.9333 67.5687L78.9468 72.2724C78.9468 72.2724 79.3785 72.6704 80.0549 72.6688L83.1135 72.6602C83.5465 72.6589 83.8968 72.3068 83.8954 71.8738L83.8941 71.3977C84.1486 71.3964 84.3547 71.1895 84.3536 70.9348L84.3523 70.3814C84.5051 70.3814 84.6284 70.2567 84.6281 70.104L84.6258 69.305C84.6252 69.152 84.5009 69.0287 84.3484 69.0292Z" fill="#CDEEFF"/>
</svg>
