<svg width="30" height="30" viewBox="0 0 30 30" fill="none" xmlns="http://www.w3.org/2000/svg">
<path d="M2.5 12.5C2.5 7.7875 2.5 5.43125 3.9625 3.9625C5.425 2.49375 7.7875 2.5 12.5 2.5H17.5C22.2125 2.5 24.5688 2.5 26.0375 3.9625C27.5063 5.425 27.5 7.7875 27.5 12.5V17.5C27.5 22.2125 27.5 24.5688 26.0375 26.0375C24.575 27.5063 22.2125 27.5 17.5 27.5H12.5C7.7875 27.5 5.43125 27.5 3.9625 26.0375C2.49375 24.575 2.5 22.2125 2.5 17.5V12.5Z" fill="white"/>
<path d="M12.3438 15C12.3438 15.3399 12.2429 15.6722 12.0541 15.9549C11.8652 16.2375 11.5968 16.4578 11.2827 16.5879C10.9687 16.718 10.6231 16.752 10.2897 16.6857C9.95628 16.6194 9.65003 16.4557 9.40966 16.2153C9.16929 15.975 9.00559 15.6687 8.93928 15.3353C8.87296 15.0019 8.90699 14.6563 9.03708 14.3423C9.16717 14.0282 9.38747 13.7598 9.67011 13.5709C9.95276 13.3821 10.2851 13.2812 10.625 13.2812C11.0808 13.2812 11.518 13.4623 11.8403 13.7847C12.1627 14.107 12.3438 14.5442 12.3438 15ZM15 13.2812C14.6601 13.2812 14.3278 13.3821 14.0451 13.5709C13.7625 13.7598 13.5422 14.0282 13.4121 14.3423C13.282 14.6563 13.248 15.0019 13.3143 15.3353C13.3806 15.6687 13.5443 15.975 13.7847 16.2153C14.025 16.4557 14.3313 16.6194 14.6647 16.6857C14.9981 16.752 15.3437 16.718 15.6577 16.5879C15.9718 16.4578 16.2402 16.2375 16.4291 15.9549C16.6179 15.6722 16.7188 15.3399 16.7188 15C16.7188 14.5442 16.5377 14.107 16.2153 13.7847C15.893 13.4623 15.4558 13.2812 15 13.2812ZM19.375 13.2812C19.0351 13.2812 18.7028 13.3821 18.4201 13.5709C18.1375 13.7598 17.9172 14.0282 17.7871 14.3423C17.657 14.6563 17.623 15.0019 17.6893 15.3353C17.7556 15.6687 17.9193 15.975 18.1597 16.2153C18.4 16.4557 18.7063 16.6194 19.0397 16.6857C19.3731 16.752 19.7187 16.718 20.0327 16.5879C20.3468 16.4578 20.6152 16.2375 20.8041 15.9549C20.9929 15.6722 21.0938 15.3399 21.0938 15C21.0938 14.5442 20.9127 14.107 20.5903 13.7847C20.268 13.4623 19.8308 13.2812 19.375 13.2812Z" fill="black"/>
</svg>
