<svg width="100" height="100" viewBox="0 0 100 100" fill="none" xmlns="http://www.w3.org/2000/svg">
<path fill-rule="evenodd" clip-rule="evenodd" d="M13.856 36.9873C13.856 34.2003 16.1154 31.9408 18.9026 31.9408H46.2988C49.0859 31.9408 51.3455 34.2003 51.3455 36.9873V85.051C51.3455 87.8381 49.0859 90.0976 46.2988 90.0976H18.9026C16.1154 90.0976 13.856 87.8381 13.856 85.051V36.9873ZM18.9026 32.4214C16.3809 32.4214 14.3366 34.4659 14.3366 36.9873V85.051C14.3366 87.5728 16.3809 89.6168 18.9026 89.6168H46.2988C48.8207 89.6168 50.865 87.5728 50.865 85.051V36.9873C50.865 34.4659 48.8207 32.4214 46.2988 32.4214H18.9026Z" fill="#F1F1F1"/>
<path fill-rule="evenodd" clip-rule="evenodd" d="M64.3224 64.1607L61.0649 61.6475C60.8516 61.4829 60.5644 61.4512 60.3204 61.5649L54.1285 64.4472C53.8936 64.5565 53.618 64.5315 53.4071 64.3816L50.3928 62.2423C50.1672 62.0824 49.8696 62.0654 49.6273 62.199L44.654 64.9391C44.3528 65.1053 43.9762 65.0354 43.7546 64.7721L40.694 61.1373C40.4627 60.8628 40.0645 60.8001 39.7603 60.9904L36.7196 62.8907C36.5454 62.9997 36.3331 63.029 36.1358 62.9714L31.6394 61.6602V87.214C31.6394 87.8774 32.1774 88.4152 32.841 88.4152H63.1208C63.7846 88.4152 64.3224 87.8774 64.3224 87.214V64.1607Z" fill="#F1F1F1"/>
<path d="M38.1279 16.8008H41.7327V19.204H38.1279V16.8008Z" fill="#F1F1F1"/>
<path d="M22.0269 3.10266H42.9344V18.0023H22.0269V3.10266Z" fill="#F15846"/>
<path d="M7.84814 30.7392C7.84814 28.0847 10 25.9329 12.6545 25.9329H40.0507C42.7052 25.9329 44.8571 28.0847 44.8571 30.7392V78.8028C44.8571 81.4572 42.7052 83.6092 40.0507 83.6092H12.6545C10 83.6092 7.84814 81.4572 7.84814 78.8028V30.7392Z" fill="#F1F1F1"/>
<path fill-rule="evenodd" clip-rule="evenodd" d="M7.60767 30.7392C7.60767 27.952 9.86715 25.6925 12.6544 25.6925H40.0506C42.8376 25.6925 45.0972 27.952 45.0972 30.7392V78.8027C45.0972 81.5898 42.8376 83.8494 40.0506 83.8494H12.6544C9.86715 83.8494 7.60767 81.5898 7.60767 78.8027V30.7392ZM12.6544 26.1731C10.1326 26.1731 8.08831 28.2174 8.08831 30.7392V78.8027C8.08831 81.3245 10.1326 83.3685 12.6544 83.3685H40.0506C42.5724 83.3685 44.6167 81.3245 44.6167 78.8027V30.7392C44.6167 28.2174 42.5724 26.1731 40.0506 26.1731H12.6544Z" fill="#3E3D3D"/>
<path fill-rule="evenodd" clip-rule="evenodd" d="M9.77051 26.8938C10.5738 26.2904 11.5723 25.9329 12.6543 25.9329H40.0505C41.1325 25.9329 42.1309 26.2904 42.9343 26.8938V82.6482C42.1309 83.2516 41.1325 83.6092 40.0505 83.6092H12.6543C11.5723 83.6092 10.5738 83.2516 9.77051 82.6482V26.8938Z" fill="white"/>
<path opacity="0.5" d="M12.6543 37.4682C12.6543 36.8044 13.1923 36.2666 13.8559 36.2666H38.8489C39.5124 36.2666 40.0505 36.8044 40.0505 37.4682V53.5695C40.0505 54.2329 39.5124 54.7711 38.8489 54.7711H13.8559C13.1923 54.7711 12.6543 54.2329 12.6543 53.5695V37.4682Z" fill="#F1F1F1"/>
<path d="M12.6543 59.5771H19.6235V63.903H12.6543V59.5771ZM22.5073 59.5771H29.4765V63.903H22.5073V59.5771ZM32.3603 59.5771H40.0505V63.903H32.3603V59.5771ZM12.6543 66.5465H19.6235V70.8721H12.6543V66.5465ZM22.5073 66.5465H29.4765V70.8721H22.5073V66.5465ZM32.3603 66.5465H40.0505V70.8721H32.3603V66.5465Z" fill="#F15846"/>
<path d="M12.6543 73.7561H19.6235V78.0817H12.6543V73.7561Z" fill="#F1F1F1"/>
<path d="M22.5073 73.7561H29.4765V78.0817H22.5073V73.7561Z" fill="#F15846"/>
<path d="M32.3604 73.7561H40.0506V78.0817H32.3604V73.7561Z" fill="#F1F1F1"/>
<path fill-rule="evenodd" clip-rule="evenodd" d="M7.60767 30.7392C7.60767 27.952 9.86715 25.6925 12.6544 25.6925H40.0506C42.8376 25.6925 45.0972 27.952 45.0972 30.7392V78.8027C45.0972 81.5898 42.8376 83.8494 40.0506 83.8494H12.6544C9.86715 83.8494 7.60767 81.5898 7.60767 78.8027V30.7392ZM12.6544 26.1731C10.1326 26.1731 8.08831 28.2174 8.08831 30.7392V78.8027C8.08831 81.3245 10.1326 83.3685 12.6544 83.3685H40.0506C42.5724 83.3685 44.6167 81.3245 44.6167 78.8027V30.7392C44.6167 28.2174 42.5724 26.1731 40.0506 26.1731H12.6544Z" fill="#3E3D3D"/>
<path d="M14.5769 15.3589H38.1279V31.9408H14.5769V15.3589Z" fill="#F1F1F1"/>
<path fill-rule="evenodd" clip-rule="evenodd" d="M38.1279 15.3589H14.5769V14.0372L14.5823 14.0313C14.5787 13.9937 14.5769 13.9556 14.5769 13.917C14.5769 13.2534 15.1149 12.7155 15.7785 12.7155H39.3295L38.1279 14.0372V15.3589Z" fill="#F1F1F1"/>
<path d="M42.9344 18.0024C42.9344 18.666 42.3966 19.204 41.7329 19.204C41.0694 19.204 40.5312 18.666 40.5312 18.0024C40.5312 17.3388 41.0694 16.8008 41.7329 16.8008C42.3966 16.8008 42.9344 17.3388 42.9344 18.0024Z" fill="#F15846"/>
<path d="M40.5311 13.917C40.5311 14.5807 39.9933 15.1186 39.3295 15.1186C38.6661 15.1186 38.1279 14.5807 38.1279 13.917C38.1279 13.2534 38.6661 12.7155 39.3295 12.7155C39.9933 12.7155 40.5311 13.2534 40.5311 13.917Z" fill="#F1F1F1"/>
<path d="M38.1279 13.917H40.5311V19.204H38.1279V13.917ZM14.5769 30.2586H38.1279V31.9408H14.5769V30.2586Z" fill="#F1F1F1"/>
<path fill-rule="evenodd" clip-rule="evenodd" d="M50.144 62.1293V88.4155H57.5939V62.834L54.1287 64.4472C53.8938 64.5565 53.6182 64.5315 53.407 64.3815L50.393 62.2422C50.3163 62.1883 50.232 62.1503 50.144 62.1293Z" fill="white"/>
<path fill-rule="evenodd" clip-rule="evenodd" d="M89.1703 51.2442C89.4092 51.8633 89.101 52.5591 88.4815 52.7977L64.9227 61.884L66.095 57.9403C66.172 57.6821 66.0983 57.4028 65.9044 57.2159L60.987 52.4758C60.8004 52.2962 60.7248 52.0299 60.7884 51.779L61.6998 48.1969C61.7681 47.9286 61.6768 47.6454 61.4649 47.4675L57.1187 43.8133C56.8554 43.5918 56.7851 43.2155 56.9507 42.914L59.2406 38.75C59.4136 38.4355 59.3289 38.0419 59.042 37.8263L56.1746 35.6731C56.0104 35.5498 55.9064 35.3622 55.8891 35.1572L55.4949 30.4904L76.7208 22.304C77.3399 22.0652 78.0357 22.3735 78.2743 22.9927L89.1703 51.2442Z" fill="#F1F1F1"/>
<path fill-rule="evenodd" clip-rule="evenodd" d="M61.7157 47.9243C61.7277 48.0136 61.723 48.1063 61.7 48.1969L60.7887 51.7791C60.7247 52.0303 60.8007 52.2962 60.9869 52.4758L63.739 55.1286L87.1815 46.0873L84.5008 39.1366L61.7157 47.9243Z" fill="white"/>
<path d="M62.8806 17.0411C62.8806 21.0892 59.5991 24.3708 55.5511 24.3708C51.5031 24.3708 48.2212 21.0892 48.2212 17.0411C48.2212 12.993 51.5031 9.71143 55.5511 9.71143C59.5991 9.71143 62.8806 12.993 62.8806 17.0411ZM71.0516 17.0411C71.0516 15.6475 69.9216 14.5178 68.5281 14.5178C67.1346 14.5178 66.0049 15.6475 66.0049 17.0411C66.0049 18.4347 67.1346 19.5644 68.5281 19.5644C69.9216 19.5644 71.0516 18.4347 71.0516 17.0411Z" fill="#F1F1F1"/>
<path fill-rule="evenodd" clip-rule="evenodd" d="M51.4719 19.9314L58.4416 12.9618L59.6309 14.1513L52.6612 21.1209L51.4719 19.9314Z" fill="#F1F1F1"/>
<path fill-rule="evenodd" clip-rule="evenodd" d="M52.6612 12.9618L59.6309 19.9314L58.4416 21.1209L51.4719 14.1513L52.6612 12.9618Z" fill="#F1F1F1"/>
<path d="M90.5171 92.3805H68.6484V95.745H90.5171V92.3805Z" fill="#F15846"/>
<path d="M93.1607 89.2566H71.292V92.3806H93.1607V89.2566ZM91.7188 85.8921H69.8501V89.2566H91.7188V85.8921Z" fill="#F1F1F1"/>
<path fill-rule="evenodd" clip-rule="evenodd" d="M0.0378418 95.7451C0.0378418 95.6125 0.145436 95.5049 0.278159 95.5049H95.8045C95.9371 95.5049 96.0447 95.6125 96.0447 95.7451C96.0447 95.8778 95.9371 95.9854 95.8045 95.9854H0.278159C0.145436 95.9854 0.0378418 95.8778 0.0378418 95.7451Z" fill="#3E3D3D"/>
<path fill-rule="evenodd" clip-rule="evenodd" d="M89.0754 68.7095H71.0518V68.2286H89.0754V68.7095ZM89.0754 73.3956H71.0518V72.9151H89.0754V73.3956ZM80.424 78.4422H71.0518V77.9617H80.424V78.4422Z" fill="#F1F1F1"/>
<path d="M34.163 45.7591C34.163 50.2716 30.5047 53.9297 25.9921 53.9297C21.4795 53.9297 17.8213 50.2716 17.8213 45.7591C17.8213 41.2466 21.4795 37.5881 25.9921 37.5881C30.5047 37.5881 34.163 41.2466 34.163 45.7591Z" fill="#F15846"/>
<path fill-rule="evenodd" clip-rule="evenodd" d="M20.887 49.5052L29.7382 40.6538L31.0977 42.0134L22.2464 50.8647L20.887 49.5052Z" fill="white"/>
<path fill-rule="evenodd" clip-rule="evenodd" d="M22.2464 40.6538L31.0977 49.5052L29.7382 50.8647L20.887 42.0134L22.2464 40.6538Z" fill="white"/>
<path fill-rule="evenodd" clip-rule="evenodd" d="M34.6436 18.1225H18.302V17.6418H34.6436V18.1225ZM34.6436 22.328H18.302V21.8474H34.6436V22.328ZM34.6436 26.1731H18.302V25.6925H34.6436V26.1731Z" fill="#3E3D3D"/>
</svg>
