<svg width="100" height="100" viewBox="0 0 100 100" fill="none" xmlns="http://www.w3.org/2000/svg">
<path d="M62.4998 29.6875C61.6373 29.6875 60.9373 28.9875 60.9373 28.125V17.9688C60.9373 10.6453 54.9794 4.6875 47.656 4.6875C40.3326 4.6875 34.3748 10.6453 34.3748 17.9688V28.125C34.3748 28.9875 33.6748 29.6875 32.8123 29.6875C31.9498 29.6875 31.2498 28.9875 31.2498 28.125V17.9688C31.2498 8.92188 38.6099 1.5625 47.656 1.5625C56.7021 1.5625 64.0623 8.92188 64.0623 17.9688V28.125C64.0623 28.9875 63.3623 29.6875 62.4998 29.6875Z" fill="#FFB176"/>
<path d="M82.031 91.4062H13.281L19.531 22.6562H75.781L82.031 91.4062Z" fill="#F04488"/>
<path d="M68.453 91.4062H6.54673C4.70923 91.4062 3.26783 89.8281 3.43423 87.9984L9.37486 22.6562H65.6249L71.5647 87.9984C71.7311 89.8281 70.2905 91.4062 68.453 91.4062Z" fill="#F76DA6"/>
<path d="M53.1248 29.6875C52.2623 29.6875 51.5623 28.9875 51.5623 28.125V17.9688C51.5623 10.6453 45.6044 4.6875 38.281 4.6875C30.9576 4.6875 24.9998 10.6453 24.9998 17.9688V28.125C24.9998 28.9875 24.2998 29.6875 23.4373 29.6875C22.5748 29.6875 21.8748 28.9875 21.8748 28.125V17.9688C21.8748 8.92188 29.2349 1.5625 38.281 1.5625C47.3271 1.5625 54.6873 8.92188 54.6873 17.9688V28.125C54.6873 28.9875 53.9873 29.6875 53.1248 29.6875Z" fill="#FFB176"/>
<path d="M87.9638 96.875H44.8482C43.0036 96.875 41.5599 95.2852 41.738 93.4492L46.0935 48.4375H86.7185L91.0747 93.4492C91.2521 95.2852 89.8091 96.875 87.9638 96.875Z" fill="#77B9FB"/>
<path d="M79.3701 96.875H36.2544C34.4099 96.875 32.9662 95.2852 33.1443 93.4492L37.4997 48.4375H78.1247L82.481 93.4492C82.6583 95.2852 81.2154 96.875 79.3701 96.875Z" fill="#6DDBF7"/>
<path d="M57.8123 71.0938C52.2123 71.0938 47.656 66.5375 47.656 60.9375V55.4688C47.656 54.6063 48.356 53.9062 49.2185 53.9062C50.081 53.9062 50.781 54.6063 50.781 55.4688V60.9375C50.781 64.8141 53.9349 67.9688 57.8123 67.9688C61.6896 67.9688 64.8435 64.8141 64.8435 60.9375V55.4688C64.8435 54.6063 65.5435 53.9062 66.406 53.9062C67.2685 53.9062 67.9685 54.6063 67.9685 55.4688V60.9375C67.9685 66.5375 63.4123 71.0938 57.8123 71.0938Z" fill="white"/>
<path d="M77.3435 39.0625C87.2674 39.0625 95.3123 31.0176 95.3123 21.0938C95.3123 11.1699 87.2674 3.125 77.3435 3.125C67.4196 3.125 59.3748 11.1699 59.3748 21.0938C59.3748 31.0176 67.4196 39.0625 77.3435 39.0625Z" fill="#25EFC8"/>
<path d="M74.9998 28.125C74.5857 28.125 74.1881 27.9609 73.8951 27.6672L68.4264 22.1984C67.8162 21.5883 67.8162 20.5992 68.4264 19.9891C69.0365 19.3789 70.0256 19.3789 70.6357 19.9891L74.9576 24.3109L84.0107 14.5617C84.599 13.9289 85.5865 13.8938 86.2193 14.4797C86.8514 15.0672 86.8873 16.0555 86.3006 16.6883L76.1443 27.6258C75.8553 27.9367 75.4522 28.1172 75.0279 28.125C75.0186 28.125 75.01 28.125 74.9998 28.125Z" fill="white"/>
<path d="M28.9062 23.0469H47.6562C47.8719 23.0469 48.0469 22.8719 48.0469 22.6562C48.0469 22.4406 47.8719 22.2656 47.6562 22.2656H28.9062C28.6906 22.2656 28.5156 22.4406 28.5156 22.6562C28.5156 22.8719 28.6906 23.0469 28.9062 23.0469Z" fill="black"/>
<path d="M86.7187 48.0469H78.482L77.7 39.4437C87.6594 39.2531 95.7031 31.0977 95.7031 21.0938C95.7031 10.9703 87.4672 2.73438 77.3437 2.73438C67.2203 2.73438 58.9844 10.9703 58.9844 21.0938C58.9844 31.0734 66.9898 39.2133 76.9156 39.4422L77.6969 48.0469H37.5C37.2984 48.0469 37.1304 48.1992 37.1109 48.4L32.9875 91.0156H6.54685C5.76951 91.0156 5.05232 90.6992 4.5281 90.125C4.0031 89.5508 3.75388 88.8078 3.8242 88.0336L9.73201 23.0469H17.1875C17.4031 23.0469 17.5781 22.8719 17.5781 22.6562C17.5781 22.4406 17.4031 22.2656 17.1875 22.2656H9.37498C9.17263 22.2656 9.00388 22.4195 8.98592 22.6211L3.04529 87.9633C2.95623 88.9445 3.2867 89.925 3.95076 90.6523C4.6156 91.3797 5.5617 91.7969 6.54607 91.7969H32.9109L32.7547 93.4109C32.6594 94.3961 32.9867 95.3805 33.6508 96.1125C34.3156 96.8453 35.264 97.2648 36.2539 97.2648H79.3695H87.9633C88.9531 97.2648 89.9015 96.8445 90.5664 96.1125C91.2312 95.3805 91.5586 94.3953 91.4625 93.4109L87.107 48.3992C87.0883 48.1992 86.9203 48.0469 86.7187 48.0469ZM59.7656 21.0938C59.7656 11.4008 67.6515 3.51562 77.3437 3.51562C87.0359 3.51562 94.9219 11.4008 94.9219 21.0938C94.9219 30.7867 87.0359 38.6719 77.3437 38.6719C67.6515 38.6719 59.7656 30.7867 59.7656 21.0938ZM89.989 95.5883C89.4719 96.1578 88.7344 96.4844 87.964 96.4844H79.3703H36.2547C35.4851 96.4844 34.7469 96.1578 34.2297 95.5883C33.7125 95.0187 33.4586 94.2531 33.5328 93.4867L37.8547 48.8281H78.125H86.364L90.6851 93.4867C90.7601 94.2531 90.5062 95.0187 89.989 95.5883Z" fill="black"/>
</svg>
