<svg width="120" height="120" viewBox="0 0 120 120" fill="none" xmlns="http://www.w3.org/2000/svg">
<g clip-path="url(#clip0_14_5100)">
<path d="M66.4386 14.6182C66.4386 18.8413 63.4382 22.2634 59.7386 22.2634C56.0389 22.2634 53.042 18.8413 53.042 14.6182C53.042 10.3986 56.0389 6.97656 59.7386 6.97656C63.4382 6.97656 66.4386 10.3986 66.4386 14.6182Z" fill="black"/>
<path d="M59.7385 31.3734C63.2659 31.3734 62.3033 29.6203 62.8057 28.5922L62.0045 23.5986H57.4513C57.4513 23.5986 56.8013 27.436 56.6501 28.6056C57.0191 29.7035 56.2075 31.3734 59.7385 31.3734Z" fill="#664624"/>
<path d="M65.9925 16.5539C65.9925 21.3602 64.8927 26.5214 59.7316 26.5214C54.5704 26.5214 53.4707 21.3602 53.4707 16.5539C53.4707 11.7476 56.1866 9.73438 59.6472 9.73438C63.1045 9.73438 65.9925 11.7476 65.9925 16.5539Z" fill="#815932"/>
<path d="M55.0411 18.1917C55.0411 19.179 54.3385 19.9764 53.4742 19.9764C52.6099 19.9764 51.9072 19.179 51.9072 18.1917C51.9072 17.2044 52.6099 16.4033 53.4742 16.4033C54.3385 16.4033 55.0411 17.2044 55.0411 18.1917ZM67.6296 18.1917C67.6296 19.179 66.927 19.9764 66.0592 19.9764C65.1914 19.9764 64.4887 19.179 64.4887 18.1917C64.4887 17.2044 65.1914 16.4033 66.0592 16.4033C66.927 16.4033 67.6296 17.2044 67.6296 18.1917Z" fill="#815932"/>
<path d="M58.1118 17.8722H55.1044C54.6406 17.8722 54.2646 17.4962 54.2646 17.036V15.7746C54.2646 15.3144 54.6406 14.9385 55.1044 14.9385H58.1118C58.5756 14.9385 58.9516 15.3144 58.9516 15.7746V17.036C58.9516 17.4962 58.5756 17.8722 58.1118 17.8722ZM64.3587 17.8722H61.3477C60.8839 17.8722 60.5115 17.4962 60.5115 17.036V15.7746C60.5115 15.3144 60.8839 14.9385 61.3477 14.9385H64.3587C64.8154 14.9385 65.1948 15.3144 65.1948 15.7746V17.036C65.1948 17.4962 64.8154 17.8722 64.3587 17.8722Z" fill="#9D744B"/>
<path d="M55.1044 15.173C54.7706 15.173 54.5001 15.4435 54.5001 15.7773V17.0315C54.5001 17.3653 54.7706 17.6358 55.1044 17.6358H58.1118C58.4456 17.6358 58.7161 17.3653 58.7161 17.0315V15.7773C58.7161 15.4435 58.4456 15.173 58.1118 15.173H55.1044ZM58.1118 18.1067H55.1044C54.5106 18.1067 54.0293 17.6253 54.0293 17.0315V15.7773C54.0293 15.1836 54.5106 14.7021 55.1044 14.7021H58.1118C58.7055 14.7021 59.187 15.1836 59.187 15.7773V17.0315C59.187 17.6253 58.7055 18.1067 58.1118 18.1067ZM61.3477 15.173C61.0139 15.173 60.7434 15.4435 60.7434 15.7773V17.0315C60.7434 17.3653 61.0139 17.6358 61.3477 17.6358H64.3587C64.6853 17.6358 64.9594 17.3653 64.9594 17.0315V15.7773C64.9594 15.4435 64.6853 15.173 64.3587 15.173H61.3477ZM64.3587 18.1067H61.3477C60.7574 18.1067 60.2726 17.6253 60.2726 17.0315V15.7773C60.2726 15.1836 60.7574 14.7021 61.3477 14.7021H64.3587C64.9488 14.7021 65.4303 15.1836 65.4303 15.7773V17.0315C65.4303 17.6253 64.9488 18.1067 64.3587 18.1067Z" fill="black"/>
<path d="M59.187 16.4597H60.5103V15.9883H59.187V16.4597Z" fill="black"/>
<path d="M66.263 16.4701L65.1562 16.5193L65.2335 16.0555L66.3156 16.0273L66.263 16.4701Z" fill="black"/>
<path d="M53.2635 16.4701L54.3702 16.5193L54.2929 16.0555L53.1616 16.0273L53.2635 16.4701Z" fill="black"/>
<path d="M57.107 16.3398C57.107 16.5856 56.9068 16.786 56.6608 16.786C56.4149 16.786 56.2146 16.5856 56.2146 16.3398C56.2146 16.0938 56.4149 15.8936 56.6608 15.8936C56.9068 15.8936 57.107 16.0938 57.107 16.3398ZM63.2941 16.3398C63.2941 16.5856 63.0973 16.786 62.8514 16.786C62.6055 16.786 62.4052 16.5856 62.4052 16.3398C62.4052 16.0938 62.6055 15.8936 62.8514 15.8936C63.0973 15.8936 63.2941 16.0938 63.2941 16.3398ZM61.9942 23.2235C61.9942 23.9589 61.3933 24.5607 60.6555 24.5607H58.8778C58.1434 24.5607 57.5427 23.9589 57.5427 23.2235V22.0068C57.5427 21.2725 58.8778 20.6682 58.8778 20.6682H60.6555C60.6555 20.6682 61.9942 21.2725 61.9942 22.0068V23.2235ZM60.8804 19.8989H58.6529C58.6529 19.8989 56.5308 20.8509 56.5308 22.0174V24.4009C56.5308 25.5673 57.4865 26.5216 58.6529 26.5216H60.8804C62.0503 26.5216 63.006 25.5673 63.006 24.4009V22.0174C63.006 20.8509 60.8804 19.8989 60.8804 19.8989Z" fill="black"/>
<path d="M61.4284 21.6553C61.4284 21.6553 60.68 22.8709 59.7631 22.8709C58.839 22.8709 58.0942 21.6553 58.0942 21.6553H61.4284Z" fill="white"/>
<path d="M59.7351 10.7571C62.7882 10.7571 63.5928 12.3521 66.393 14.3723C66.6775 13.6064 66.667 8.89497 65.3846 7.61252C64.1022 6.32311 60.9296 5.21289 59.7351 5.21289C58.537 5.21289 55.2906 6.35821 54.0011 7.69333C52.7679 8.96872 52.7891 13.5923 53.0736 14.3582C55.5155 12.2713 56.6784 10.7571 59.7351 10.7571Z" fill="#1E7DAC"/>
<path d="M59.7526 10.4443C59.742 10.4443 59.7385 10.4443 59.728 10.4443C59.7209 10.4443 59.7105 10.4443 59.7034 10.4443C56.0319 10.4443 54.5246 12.6227 53.0596 14.3583C55.7016 15.1102 56.3165 11.0908 59.6331 11.0417C59.6331 11.0417 59.6963 11.0452 59.728 11.0417C59.7596 11.0452 59.8228 11.0417 59.8228 11.0417C63.1395 11.0908 63.7544 15.1102 66.4 14.3583C64.9313 12.6227 63.4241 10.4443 59.7526 10.4443Z" fill="#18658C"/>
<path d="M60.2796 5.42025H59.1765C58.9937 5.42025 58.8391 5.26571 58.8391 5.07943C58.8391 4.89326 58.9937 4.74219 59.1765 4.74219H60.2796C60.4659 4.74219 60.6169 4.89326 60.6169 5.07943C60.6169 5.26571 60.4659 5.42025 60.2796 5.42025Z" fill="#1E7DAC"/>
<path d="M57.4865 115.258V111.857H52.0477C52.0477 111.857 47.8106 111.525 47.1957 112.52C46.8479 113.091 46.9779 115.258 46.9779 115.258H57.4865Z" fill="#664624"/>
<path d="M46.95 115.241H57.5008V114.379H46.95V115.241Z" fill="#9D764B"/>
<path d="M61.9766 115.258V111.857H67.4118C67.4118 111.857 71.6525 111.525 72.2673 112.52C72.6186 113.091 72.4851 115.258 72.4851 115.258H61.9766Z" fill="#664624"/>
<path d="M61.9626 115.241H72.5137V114.379H61.9626V115.241Z" fill="#9D764B"/>
<path d="M69.4109 61.8238L72.3797 61.7068L76.0407 46.9066C76.0407 46.9066 74.7688 40.1303 72.8891 35.1775C71.7508 32.1732 70.8478 29.498 69.6112 29.498C66.3402 29.498 67.1834 30.8947 67.1834 30.8947C66.3858 31.1118 67.8579 36.1338 68.0055 37.0494L71.2063 46.9066L69.4109 61.8238ZM50.0169 61.8238L47.0481 61.7068L43.3872 46.9066C43.3872 46.9066 44.659 40.1303 46.5387 35.1775C47.677 32.1732 48.5799 29.498 49.8167 29.498C53.0876 29.498 52.248 30.8947 52.248 30.8947C53.042 31.1118 51.5698 36.1338 51.4223 37.0494L48.2216 46.9066L50.0169 61.8238Z" fill="#1E7DAC"/>
<path d="M50.3717 59.293C50.3717 59.293 49.8975 71.3305 49.8975 74.7818C49.8975 78.2329 51.3134 111.865 51.3134 111.865H57.4864L59.4679 71.6186H60.0196L61.98 111.865H68.1496C68.1496 111.865 69.562 78.4901 69.562 74.936C69.562 71.3818 69.0911 59.293 69.0911 59.293H50.3717Z" fill="#132E42"/>
<path d="M63.3047 37.3367H56.3904V29.2829C56.3904 29.2829 57.5674 30.9824 59.714 30.9824C61.8607 30.9824 63.3047 28.9688 63.3047 28.9688V37.3367Z" fill="white"/>
<path d="M69.1052 59.293H50.3682L50.2839 61.6686H69.1824L69.1052 59.293Z" fill="#664624"/>
<path d="M63.8457 61.6687H64.6868V59.293H63.8457V61.6687Z" fill="#132E42"/>
<path d="M54.8022 61.6687H55.6401V59.293H54.8022V61.6687Z" fill="#132E42"/>
<path d="M69.7589 29.5119C69.1264 29.3011 62.3912 28.6504 62.3912 28.6504L59.6402 37.2052L56.9631 28.6504C56.9631 28.6504 50.249 29.3011 49.613 29.5119C50.3649 30.2195 50.4632 32.0159 50.3719 34.1197C50.2595 36.7084 50.3227 59.2926 50.3227 59.2926H69.0597C69.0597 59.2926 69.021 36.0999 68.9788 33.5105C68.9402 31.4046 69.007 30.2195 69.7589 29.5119Z" fill="#1E7DAC"/>
<path d="M59.6859 37.2055L56.833 27.5391L57.1176 32.5882L59.6859 37.2055Z" fill="#0F5070"/>
<path d="M54.2856 33.9924L57.1174 32.5882L56.8328 27.5391L54.644 28.8892L54.2856 33.9924Z" fill="#155F84"/>
<path d="M59.6858 37.2055L62.5387 27.5391L62.2506 32.5882L59.6858 37.2055Z" fill="#0F5070"/>
<path d="M65.0894 33.9924L62.2505 32.5882L62.5386 27.5391L64.7274 28.8892L65.0894 33.9924Z" fill="#155F84"/>
<path d="M57.9044 39.3792L54.9146 40.0461L51.9282 39.3792V37.6924H57.9044V39.3792Z" fill="#155F84"/>
<path d="M55.2309 39.1829C55.2309 39.3561 55.0904 39.4966 54.9147 39.4966C54.7461 39.4966 54.6021 39.3561 54.6021 39.1829C54.6021 39.0097 54.7461 38.8691 54.9147 38.8691C55.0904 38.8691 55.2309 39.0097 55.2309 39.1829Z" fill="white"/>
<path d="M67.4187 40.5153H61.4424V37.2598H67.4187V40.5153Z" fill="white"/>
<path d="M64.1304 37.2625V36.8359L63.9055 37.2625H64.1304Z" fill="#BDBDBD"/>
<path d="M64.1304 37.6891H64.7289V36.8359H64.1304V37.6891Z" fill="#D9D9D9"/>
<path d="M63.9055 38.7086H66.8628V38.4336H63.9055V38.7086Z" fill="#D9D9D9"/>
<path d="M63.9055 39.6122H66.8628V39.3369H63.9055V39.6122Z" fill="#D9D9D9"/>
<path d="M61.864 39.9741H63.6694V38.0811H61.864V39.9741Z" fill="#D9D9D9"/>
<path d="M50.544 108.017H57.6762L57.4865 111.866H50.3718L50.544 108.017Z" fill="#0A4F6F"/>
<path d="M61.7903 108.017H68.8592L69.0736 111.866H61.9624L61.7903 108.017Z" fill="#0A4F6F"/>
<path d="M69.3864 67.5943C69.2951 67.5835 67.0887 67.2971 65.7887 65.1718C64.7804 63.5272 64.8823 61.7445 64.8858 61.6689H65.5427C65.5427 61.6854 65.4233 63.3758 66.3227 64.8448C67.461 66.7033 69.3478 66.9612 69.3653 66.9636L69.3864 67.5943ZM50.0803 67.5943C50.1717 67.5835 52.3781 67.2971 53.6815 65.1718C54.6863 63.5272 54.5844 61.7445 54.581 61.6689H53.9275C53.9275 61.6854 54.0434 63.3758 53.144 64.8448C52.0057 66.7033 50.1225 66.9612 50.1014 66.9636L50.0803 67.5943ZM60.2586 68.6543C59.7597 68.6543 58.913 68.5749 58.2876 68.102C57.5674 67.5568 57.6587 63.412 57.7324 61.6689L58.3473 61.6743C58.2454 64.2337 58.3402 67.2623 58.6741 67.6069C59.1729 67.9874 59.9142 68.0321 60.3183 68.0264V61.6743H60.9472V68.6016L60.6697 68.6346C60.6521 68.6364 60.494 68.6543 60.2586 68.6543Z" fill="#0A4F6F"/>
<path d="M58.6846 61.9084H59.2411V59.0586H58.6846V61.9084Z" fill="#D6B792"/>
<path d="M59.1624 61.9081H60.8255V61.6738H59.1624V61.9081Z" fill="#D6B792"/>
<path d="M58.8462 60.6024H59.8039V60.3359H58.8462V60.6024Z" fill="#9D764B"/>
<path d="M59.1624 59.2929H60.8255V59.0586H59.1624V59.2929Z" fill="#D6B792"/>
<path d="M43.563 64.2721H75.8048V60.7393H43.563V64.2721Z" fill="#CF9E5F"/>
<path d="M42.312 57.2639H74.5504V53.7314H42.312V57.2639Z" fill="#CF9E5F"/>
<path d="M45.446 50.2565H77.6879V46.7236H45.446V50.2565Z" fill="#CF9E5F"/>
<path d="M44.0864 60.7682H76.3282V57.2354H44.0864V60.7682Z" fill="#D6B792"/>
<path d="M43.3557 53.7602H75.5974V50.2275H43.3557V53.7602Z" fill="#D6B792"/>
<path d="M52.1251 64.7058C52.1251 64.7058 52.8944 63.7884 51.8545 63.0643C51.0886 63.0165 50.2454 63.1227 50.161 63.2702C49.7078 64.0706 48.8611 64.2578 48.8611 64.2578C48.8611 64.2578 49.0192 64.722 49.9187 64.8976C50.5827 65.0273 52.1251 64.7058 52.1251 64.7058ZM67.1659 64.7058C67.1659 64.7058 66.4 63.7884 67.4329 63.0643C68.2058 63.0165 69.0455 63.1227 69.1299 63.2702C69.5831 64.0706 70.4299 64.2578 70.4299 64.2578C70.4299 64.2578 70.2717 64.722 69.3723 64.8976C68.7047 65.0273 67.1659 64.7058 67.1659 64.7058Z" fill="#815932"/>
</g>
<defs>
<clipPath id="clip0_14_5100">
<rect width="120" height="120" fill="white"/>
</clipPath>
</defs>
</svg>
