<svg width="30" height="30" viewBox="0 0 30 30" fill="none" xmlns="http://www.w3.org/2000/svg">
<path d="M0 9.75012H30V11.5501H28.7436L27.2292 24.844C27.0842 25.9236 26.553 26.9141 25.7339 27.6322C24.9149 28.3503 23.8635 28.7474 22.7742 28.75H7.2258C6.13659 28.7473 5.08523 28.3502 4.26625 27.6321C3.44728 26.914 2.91613 25.9235 2.7711 24.844L1.257 11.5498H0V9.75012ZM4.5558 24.6085C4.64268 25.2556 4.961 25.8493 5.45187 26.2798C5.94273 26.7103 6.57292 26.9484 7.2258 26.95H22.7742C23.4271 26.9484 24.0573 26.7103 24.5482 26.2799C25.0391 25.8494 25.3574 25.2556 25.4442 24.6085L26.9277 11.5498H3.0723L4.5558 24.6085ZM22.761 3.04902H7.239L6.06 8.55102H4.218L5.784 1.24902H24.216L25.782 8.55102H23.94L22.761 3.04902Z" fill="white"/>
<path d="M14.0192 22.6621L10.4309 19.0735L11.7035 17.8009L14.0192 20.1166L18.2963 15.8398L19.5689 17.1124L14.0192 22.6621Z" fill="white"/>
</svg>
