<svg width="910" height="650" viewBox="0 0 910 650" fill="none" xmlns="http://www.w3.org/2000/svg">
<path d="M288.944 190.97V86.6775C288.944 85.6006 288.071 84.7275 286.994 84.7275H213.07C211.993 84.7275 211.12 85.6006 211.12 86.6775V190.97C211.12 192.047 211.993 192.92 213.07 192.92H286.994C288.071 192.92 288.944 192.047 288.944 190.97Z" fill="#F0F3F8"/>
<path d="M718.036 219.089H590.973C590.112 219.089 589.285 218.747 588.675 218.137C588.066 217.528 587.723 216.701 587.723 215.839V106.945C587.723 106.083 587.381 105.256 586.772 104.646C586.162 104.037 585.335 103.695 584.473 103.695H323.823C322.962 103.695 322.135 104.037 321.525 104.646C320.916 105.256 320.573 106.083 320.573 106.945V215.839C320.573 216.701 320.231 217.528 319.622 218.137C319.012 218.747 318.185 219.089 317.323 219.089H190.294C189.432 219.089 188.605 219.431 187.996 220.041C187.386 220.65 187.044 221.477 187.044 222.339V446.628C187.044 447.49 187.386 448.317 187.996 448.926C188.605 449.536 189.432 449.878 190.294 449.878H317.421C318.283 449.878 319.11 450.22 319.719 450.83C320.329 451.439 320.671 452.266 320.671 453.128V562.022C320.671 562.884 321.013 563.711 321.623 564.321C322.232 564.93 323.059 565.272 323.921 565.272H584.571C585.433 565.272 586.26 564.93 586.869 564.321C587.479 563.711 587.821 562.884 587.821 562.022V453.128C587.821 452.266 588.163 451.439 588.773 450.83C589.382 450.22 590.209 449.878 591.071 449.878H718.061C718.923 449.878 719.75 449.536 720.36 448.926C720.969 448.317 721.311 447.49 721.311 446.628V222.339C721.311 221.91 721.227 221.485 721.062 221.089C720.897 220.693 720.655 220.334 720.35 220.032C720.046 219.73 719.685 219.491 719.287 219.329C718.89 219.167 718.464 219.086 718.036 219.089Z" fill="#F0F3F8"/>
<path d="M712.413 118.112H608.121C607.044 118.112 606.171 118.985 606.171 120.062V193.986C606.171 195.063 607.044 195.936 608.121 195.936H712.413C713.49 195.936 714.363 195.063 714.363 193.986V120.062C714.363 118.985 713.49 118.112 712.413 118.112Z" fill="#F0F3F8"/>
<path d="M741.539 399.412H586.085C585.009 399.412 584.135 400.285 584.135 401.362V412.224C584.135 413.3 585.009 414.174 586.085 414.174H741.539C742.616 414.174 743.489 413.3 743.489 412.224V401.362C743.489 400.285 742.616 399.412 741.539 399.412Z" fill="#A8B9DF"/>
<path d="M732.283 414.174H595.348C594.271 414.174 593.398 415.047 593.398 416.123V551.304C593.398 552.381 594.271 553.254 595.348 553.254H732.283C733.36 553.254 734.233 552.381 734.233 551.304V416.123C734.233 415.047 733.36 414.174 732.283 414.174Z" fill="#A8B9DF"/>
<path d="M723.612 399.412H568.158C567.082 399.412 566.208 400.285 566.208 401.362V412.224C566.208 413.3 567.082 414.174 568.158 414.174H723.612C724.689 414.174 725.562 413.3 725.562 412.224V401.362C725.562 400.285 724.689 399.412 723.612 399.412Z" fill="#C4CFE6"/>
<path d="M714.545 416.124V551.324C714.545 551.841 714.34 552.337 713.974 552.702C713.608 553.068 713.112 553.274 712.595 553.274H577.395C576.878 553.274 576.382 553.068 576.016 552.702C575.65 552.337 575.445 551.841 575.445 551.324V416.124C575.445 415.606 575.65 415.11 576.016 414.745C576.382 414.379 576.878 414.174 577.395 414.174H712.595C713.112 414.174 713.608 414.379 713.974 414.745C714.34 415.11 714.545 415.606 714.545 416.124Z" fill="#E7EBF6"/>
<path d="M697.996 428.61H593.768C592.692 428.61 591.818 429.483 591.818 430.56V456.274C591.818 457.351 592.692 458.224 593.768 458.224H697.996C699.073 458.224 699.946 457.351 699.946 456.274V430.56C699.946 429.483 699.073 428.61 697.996 428.61Z" fill="#C4CFE6"/>
<path d="M697.996 471.01H593.768C592.692 471.01 591.818 471.883 591.818 472.96V498.674C591.818 499.75 592.692 500.624 593.768 500.624H697.996C699.073 500.624 699.946 499.75 699.946 498.674V472.96C699.946 471.883 699.073 471.01 697.996 471.01Z" fill="#C4CFE6"/>
<path d="M697.996 513.402H593.768C592.692 513.402 591.818 514.276 591.818 515.352V541.066C591.818 542.143 592.692 543.016 593.768 543.016H697.996C699.073 543.016 699.946 542.143 699.946 541.066V515.352C699.946 514.276 699.073 513.402 697.996 513.402Z" fill="#C4CFE6"/>
<path d="M627.9 428.61H663.891C663.891 430.593 663.103 432.494 661.701 433.896C660.299 435.297 658.398 436.085 656.416 436.085H635.362C633.382 436.082 631.484 435.292 630.085 433.891C628.686 432.49 627.9 430.59 627.9 428.61ZM627.9 471.01H663.891C663.891 472.992 663.103 474.893 661.701 476.295C660.299 477.697 658.398 478.485 656.416 478.485H635.362C633.379 478.485 631.478 477.697 630.076 476.295C628.675 474.893 627.887 472.992 627.887 471.01H627.9ZM627.9 513.402H663.891C663.891 515.385 663.103 517.286 661.701 518.688C660.299 520.09 658.398 520.877 656.416 520.877H635.362C633.379 520.877 631.478 520.09 630.076 518.688C628.675 517.286 627.887 515.385 627.887 513.402H627.9Z" fill="#E7EBF6"/>
<path d="M586.391 565.273H583.05C582.587 565.273 582.144 565.089 581.816 564.763C581.488 564.436 581.303 563.993 581.302 563.53V553.254H593.32L587.977 564.304C587.83 564.598 587.603 564.844 587.323 565.015C587.042 565.187 586.72 565.276 586.391 565.273Z" fill="#C4CFE6"/>
<path d="M606.105 565.273H602.745C602.283 565.273 601.84 565.089 601.513 564.762C601.187 564.436 601.003 563.992 601.003 563.53V553.254H613.021L607.679 564.304C607.532 564.596 607.308 564.841 607.03 565.012C606.752 565.183 606.432 565.273 606.105 565.273Z" fill="#A8B9DF"/>
<path d="M706.869 565.273H710.223C710.452 565.273 710.679 565.229 710.891 565.142C711.103 565.055 711.296 564.926 711.459 564.765C711.621 564.603 711.75 564.41 711.838 564.199C711.926 563.987 711.971 563.76 711.971 563.53V553.254H699.953L705.295 564.304C705.442 564.596 705.666 564.841 705.944 565.012C706.222 565.183 706.542 565.273 706.869 565.273Z" fill="#C4CFE6"/>
<path d="M726.7 565.273H730.054C730.283 565.273 730.511 565.229 730.723 565.142C730.935 565.055 731.128 564.926 731.29 564.765C731.452 564.603 731.581 564.41 731.669 564.199C731.757 563.987 731.802 563.76 731.802 563.53V553.254H719.784L725.127 564.304C725.273 564.596 725.498 564.841 725.776 565.012C726.054 565.183 726.374 565.273 726.7 565.273Z" fill="#A8B9DF"/>
<path opacity="0.42" d="M650.929 414.174L614.263 553.254H585.227L621.894 414.174H650.929Z" fill="#F4F7FC"/>
<path opacity="0.42" d="M713.349 414.323L676.715 553.254H629.265L665.932 414.154H712.595C712.855 414.159 713.111 414.217 713.349 414.323Z" fill="#F4F7FC"/>
<path d="M197.6 480.09C196.82 480.09 195.904 479.213 193.57 472.427C188.864 458.777 186.518 451.919 188.331 443.827C189.079 440.499 190.574 437.326 193.57 430.93C196.001 425.73 197.119 424.268 198.809 420.043C201.474 413.4 201.091 411.151 202.443 407.55C207.188 394.875 224.712 388.7 226.226 390.618C226.876 391.424 224.367 393.341 220.578 400.29C218.22 404.507 216.328 408.968 214.936 413.595C212.206 423.306 215.521 424.379 212.921 434.558C211.621 439.582 210.724 439.758 208.085 448.663C206.785 453.044 206.713 454.006 205.264 459.55C201.786 472.739 199.862 480.09 197.6 480.09ZM183.073 463.158C181.643 464.295 177.951 459.492 165.334 451.874C156.748 446.674 146.003 441.389 145.184 440.986C136.812 436.878 134.817 436.397 131.885 433.329C128.174 429.429 129.071 427.804 123.819 420.427C119.756 414.72 118.508 414.7 115.369 409.546C112.678 405.139 109.519 398.535 110.936 397.449C111.586 396.942 113.042 397.807 115.772 399.464C119.86 401.954 120.855 403.397 123.429 405.113C127.979 408.122 128.921 406.322 133.51 409.143C135.356 410.28 137.41 412.451 141.57 416.799C145.73 421.148 145.795 421.629 148.018 423.651C151.21 426.55 153.738 427.98 156.468 429.702C161.535 432.851 166.374 436.352 170.95 440.18C180.479 448.552 185.172 461.5 183.073 463.158Z" fill="#A8B9DF"/>
<path d="M113.86 401.622C118.683 406.348 123.455 411.053 128.388 415.584C129.61 416.721 130.858 417.839 132.099 418.957C133.341 420.075 134.589 421.193 135.85 422.285L143.442 428.837C148.448 433.303 153.705 437.481 159.185 441.35C161.954 443.261 164.807 445.035 167.635 446.868C170.529 448.662 173.302 450.644 175.936 452.803C178.579 455.039 180.919 457.611 182.897 460.454C184.875 463.304 186.548 466.354 187.889 469.554C190.619 475.924 192.146 482.657 193.29 489.32C193.856 492.661 194.343 495.996 194.792 499.337C195.013 501.001 195.24 502.684 195.442 504.368C195.643 506.051 195.786 507.734 195.936 509.424C196.509 516.169 196.598 522.947 196.203 529.704H195.878C195.195 522.996 194.434 516.334 193.394 509.717C192.874 506.408 192.302 503.133 191.685 499.824L189.878 489.918C188.649 483.353 187.421 476.82 185.048 470.704C183.867 467.635 182.412 464.678 180.7 461.871C179.023 459.041 177.013 456.422 174.714 454.071C172.357 451.743 169.791 449.637 167.05 447.779C164.3 445.861 161.466 444.041 158.6 442.221C152.932 438.588 147.134 435.071 141.739 430.937C139.041 428.883 136.428 426.725 133.939 424.437C132.684 423.299 131.443 422.142 130.221 420.979C128.999 419.815 127.809 418.594 126.626 417.385C121.896 412.547 117.55 407.349 113.626 401.837L113.86 401.622Z" fill="#899FCA"/>
<path d="M174.2 475.605C173.777 476.704 169.728 474.702 163.488 476.632C158.938 478.043 158.613 479.882 152.503 482.911C148.102 485.095 145.035 486.616 141.024 486.688C135.902 486.779 134.615 484.4 126.951 482.398C123.032 481.402 119.009 480.871 114.965 480.818C102.251 480.376 95.5825 484.51 94.3995 482.586C93.0995 480.487 99.489 473.096 107.296 468.02C123.715 457.34 141.843 459.895 144.495 460.311C161.675 462.989 174.993 473.519 174.2 475.605Z" fill="#C4CFE6"/>
<path d="M98.3515 479.336C100.296 477.499 102.526 475.991 104.955 474.871C105.566 474.591 106.184 474.338 106.801 474.065C107.419 473.792 108.069 473.616 108.706 473.415C109.343 473.213 110.006 473.044 110.656 472.862C111.306 472.68 111.956 472.589 112.606 472.452C115.279 471.972 118.003 471.834 120.712 472.043C121.389 472.081 122.064 472.154 122.733 472.264L123.74 472.407L124.241 472.485L124.703 472.557C125.912 472.778 127.166 472.927 128.421 473.044C133.574 473.483 138.756 473.483 143.91 473.044C149.11 472.596 154.245 471.744 159.51 471.191C162.176 470.875 164.867 470.823 167.544 471.035C168.966 471.174 170.364 471.504 171.697 472.017C173.179 472.568 174.476 473.522 175.441 474.773C177.136 476.882 178.623 479.151 179.881 481.546C181.109 484.011 181.985 486.637 182.481 489.346L182.8 491.348C182.917 491.998 182.955 492.681 183.027 493.35C183.183 494.65 183.228 496.009 183.293 497.335C183.358 498.661 183.332 499.98 183.358 501.299L183.261 505.245C183.041 510.486 182.553 515.712 181.798 520.904H181.473C181.129 515.704 180.986 510.458 180.7 505.304C180.513 500.189 179.97 495.094 179.075 490.054C178.601 487.639 177.853 485.286 176.846 483.041C175.745 480.782 174.451 478.622 172.978 476.587C171.905 474.942 169.572 474.11 167.186 473.629C164.682 473.203 162.147 472.986 159.607 472.979C154.403 472.997 149.207 473.368 144.053 474.09L136.253 475.163C133.625 475.545 130.972 475.74 128.317 475.748C127.667 475.748 126.971 475.748 126.288 475.663C125.95 475.663 125.638 475.618 125.274 475.579L124.254 475.436L122.349 475.17C121.699 475.098 121.114 474.942 120.49 474.923L118.619 474.773C117.969 474.773 117.37 474.773 116.746 474.773C116.434 474.773 116.096 474.773 115.81 474.773L114.868 474.825C114.242 474.84 113.617 474.888 112.996 474.968C107.912 475.499 102.995 477.087 98.5595 479.629L98.3515 479.336Z" fill="#A4B5DD"/>
<path d="M183.475 409.546C181.324 409.734 178.542 401.882 177.43 395.434C176.13 387.881 177.742 385.905 177.43 373.665C177.344 368.808 176.938 363.962 176.215 359.157C174.817 350.116 173.134 347.744 171.782 341.419C168.532 326.183 172.198 311.252 174.2 311.187C175.201 311.155 175.461 314.795 177.833 320.86C180.095 326.657 182.019 328.159 187.908 337.759C192.075 344.565 194.155 347.971 194.759 349.849C197.008 356.817 195.936 362.849 194.357 371.215C192.543 380.809 190.95 380.926 187.908 393.387C185.25 404.248 185.191 409.396 183.475 409.546Z" fill="#C4CFE6"/>
<path d="M174.362 318.403C177.177 326.853 179.874 335.361 183.027 343.635C183.41 344.669 183.82 345.696 184.236 346.71L184.548 347.49L184.867 348.341C185.062 348.913 185.23 349.492 185.367 350.077C185.852 352.367 186.07 354.705 186.017 357.045C185.974 359.316 185.816 361.583 185.543 363.838C185.309 366.08 184.958 368.29 184.646 370.493C183.996 374.894 183.287 379.269 182.864 383.676C182.406 388.079 182.341 392.514 182.669 396.929C182.844 399.135 183.144 401.329 183.567 403.501C183.788 404.58 183.976 405.691 184.178 406.796L184.476 408.454L184.632 409.279L184.736 410.118C185.356 414.564 185.736 419.04 185.874 423.527C185.965 428.006 185.991 432.497 185.776 436.969C185.562 441.441 185.25 445.9 184.99 450.327C184.73 454.753 184.47 459.199 184.437 463.599C184.392 465.803 184.437 467.987 184.509 470.171L184.736 473.421C184.801 474.507 185.016 475.56 185.126 476.632C186.426 485.342 188.318 494.078 189.768 502.892C190.502 507.306 191.139 511.752 191.503 516.23C191.698 518.466 191.789 520.708 191.835 522.951C191.835 524.069 191.835 525.194 191.835 526.312C191.835 527.43 191.737 528.548 191.692 529.666H191.367C190.366 511.817 184.613 494.936 181.688 477.152C181.047 472.632 180.83 468.062 181.038 463.502C181.077 461.247 181.246 459.011 181.369 456.762C181.493 454.513 181.714 452.296 181.922 450.073L183.15 436.8C183.56 432.374 183.885 427.954 184.067 423.521L184.106 420.205C184.106 419.646 184.106 419.094 184.106 418.541L184.054 416.884C184.009 415.779 184.008 414.668 183.924 413.563L183.612 410.26C183.541 409.149 183.3 408.07 183.131 406.971C182.962 405.873 182.78 404.801 182.565 403.689C182.351 402.578 182.182 401.479 182 400.368C181.818 399.256 181.688 398.145 181.59 397.027C180.628 388.102 180.98 379.028 181.929 370.155C182.377 365.716 182.962 361.315 183.111 356.993C183.203 354.875 183.053 352.753 182.663 350.668C182.546 350.168 182.435 349.668 182.286 349.18L182.052 348.459L181.766 347.672C181.376 346.61 181.003 345.549 180.648 344.487C179.914 342.361 179.277 340.21 178.653 338.059C178.029 335.907 177.45 333.749 176.904 331.558C175.812 327.223 174.83 322.862 174.037 318.461L174.362 318.403Z" fill="#A4B5DD"/>
<path d="M221.293 476.008C220.818 473.077 228.858 468.065 236.613 467.558C237.445 467.506 237.62 467.558 248.313 468.767C257.075 469.774 258.063 469.872 259.2 469.976C269.945 470.957 268.716 469.976 272.096 470.782C278.817 472.433 278.746 475.189 288.223 478.446C291.857 479.694 293.82 479.96 293.865 480.863C293.963 482.547 287.365 484.178 279.357 486.102C269.496 488.481 264.569 489.671 260.812 489.352C253.662 488.702 253.37 485.914 242.671 482.098C229.326 477.295 221.741 478.758 221.293 476.008Z" fill="#C4CFE6"/>
<path d="M218.186 519.181C217.209 516.849 216.371 514.462 215.676 512.031C215.319 510.822 214.981 509.6 214.689 508.365C214.396 507.13 214.103 505.902 213.869 504.66C213.635 503.419 213.401 502.164 213.219 500.903C213.037 499.642 212.888 498.381 212.764 497.107C212.5 494.55 212.476 491.973 212.693 489.411C212.901 486.792 213.51 484.22 214.5 481.787C215.013 480.55 215.713 479.399 216.573 478.374C217.01 477.858 217.501 477.39 218.036 476.976C218.58 476.579 219.167 476.244 219.785 475.976C220.398 475.731 221.03 475.54 221.676 475.403C222.287 475.26 222.898 475.118 223.503 474.962L227.188 474.097C229.65 473.502 232.14 473.033 234.65 472.693C237.239 472.353 239.861 472.353 242.45 472.693C245.01 473.081 247.528 473.708 249.971 474.565L251.777 475.215C252.382 475.429 252.934 475.592 253.513 475.787C254.091 475.982 254.67 476.138 255.255 476.301C255.84 476.463 256.419 476.638 257.023 476.768C259.396 477.36 261.813 477.834 264.238 478.302C269.087 479.212 273.988 479.914 278.934 480.428C281.404 480.642 283.881 480.87 286.357 480.928C288.843 481.04 291.332 480.966 293.807 480.707L293.884 481.02C291.466 481.829 288.962 482.357 286.422 482.592L284.525 482.781L282.62 482.891C281.352 482.963 280.078 482.969 278.811 482.982C276.269 482.982 273.728 482.872 271.2 482.645C268.671 482.417 266.142 482.118 263.627 481.721C261.105 481.299 258.608 480.741 256.146 480.051C255.528 479.888 254.917 479.68 254.3 479.485C253.682 479.29 253.071 479.108 252.46 478.868C251.849 478.627 251.218 478.4 250.646 478.173L248.95 477.464C244.367 475.663 239.733 474.409 234.806 474.467C232.326 474.493 229.854 474.732 227.415 475.182C226.18 475.364 224.965 475.663 223.743 475.923C223.138 476.06 222.528 476.216 221.923 476.365C221.339 476.494 220.771 476.684 220.226 476.931C219.185 477.457 218.292 478.234 217.626 479.193C216.979 480.175 216.494 481.255 216.19 482.391C215.625 484.731 215.358 487.134 215.397 489.541C215.397 491.972 215.501 494.416 215.637 496.873C215.715 498.101 215.826 499.33 215.956 500.559C216.086 501.787 216.203 503.022 216.359 504.251C216.957 509.184 217.756 514.111 218.504 519.09L218.186 519.181Z" fill="#A4B5DD"/>
<path d="M212.095 463.561C210.645 462.8 213.714 452.823 218.543 443.807C221.761 437.808 224.933 431.88 231.446 426.472C239.493 419.79 248.118 417.651 254.846 415.994C265.655 413.322 267.092 415.422 274.599 412.367C285.506 407.921 289.614 400.563 291.499 401.882C293.384 403.202 291.194 412.698 285.051 418.412C281.457 421.753 276.718 423.67 273.767 424.86C268.034 427.18 265.694 426.862 262.88 429.702C261.131 431.464 261.521 432.114 258.446 436.956C255.944 440.902 254.631 442.975 252.805 444.613C249.6 447.493 247.254 446.869 237.887 449.046C230.087 450.866 226.187 451.776 222.164 454.292C215.306 458.595 213.2 464.139 212.095 463.561Z" fill="#DDE6F4"/>
<path d="M286.832 409.539C286.727 410.579 286.331 411.568 285.688 412.393C285.369 412.783 285.083 413.218 284.732 413.582C284.381 413.946 284.05 414.31 283.673 414.7C282.181 416.044 280.564 417.241 278.843 418.275C277.144 419.32 275.393 420.279 273.598 421.148C272.694 421.564 271.791 421.98 270.881 422.377C269.971 422.773 269.061 423.157 268.138 423.514L265.369 424.593C264.439 424.937 263.497 425.243 262.561 425.555C260.689 426.205 258.817 426.855 256.912 427.329C253.129 428.48 249.262 429.279 245.414 430.092H245.518C244.387 430.43 243.191 430.878 242.047 431.34C240.903 431.801 239.739 432.322 238.615 432.868C237.49 433.414 236.385 434.011 235.287 434.635C234.188 435.259 233.142 435.936 232.102 436.651C227.939 439.486 224.266 442.981 221.227 446.999C219.744 449.01 218.418 451.133 217.262 453.349C216.144 455.553 215.207 457.844 214.461 460.2C214.279 460.792 214.071 461.37 213.921 461.968L213.46 463.762C213.18 464.977 212.94 466.206 212.673 467.428C212.556 468.039 212.4 468.644 212.296 469.261L211.991 471.12C211.796 472.361 211.562 473.59 211.393 474.832C211.094 477.334 210.71 479.81 210.496 482.326L210.106 486.083L209.781 489.853L209.618 491.732C209.573 492.382 209.534 492.992 209.475 493.623L209.17 497.393L208.65 504.926C208.032 515.021 207.597 525.148 207.142 535.307H206.817C205.788 525.171 205.369 514.983 205.562 504.796C205.653 494.573 206.555 484.373 208.26 474.292C208.474 472.992 208.754 471.77 209.001 470.509L209.384 468.624C209.508 467.974 209.69 467.376 209.846 466.752C210.171 465.498 210.496 464.256 210.821 463.008L211.432 461.149C211.633 460.499 211.9 459.927 212.127 459.316C214.091 454.511 216.822 450.057 220.213 446.127C223.549 442.228 227.325 438.727 231.465 435.695C232.485 434.915 233.538 434.18 234.598 433.465C235.657 432.75 236.736 432.048 237.848 431.385C238.959 430.722 240.071 430.085 241.215 429.481C242.359 428.876 243.509 428.324 244.77 427.804H244.874C246.746 427.251 248.612 426.673 250.497 426.16C251.433 425.906 252.369 425.633 253.298 425.347L256.1 424.528L258.908 423.722L261.69 422.857C262.613 422.565 263.549 422.299 264.465 421.98L267.221 421.044C269.074 420.459 270.842 419.679 272.668 419.029C274.443 418.275 276.23 417.534 277.946 416.663C278.369 416.442 278.817 416.254 279.246 416.013L280.494 415.298C281.352 414.856 282.106 414.284 282.919 413.764L284.037 412.874C284.42 412.588 284.726 412.224 285.077 411.912C285.748 411.268 286.247 410.465 286.526 409.578L286.832 409.539Z" fill="#A4B5DD"/>
<path d="M217.815 397.924C215.634 399.686 213.772 401.81 212.31 404.202C211.92 404.774 211.594 405.392 211.25 405.996C210.905 406.601 210.6 407.219 210.288 407.836C209.976 408.454 209.709 409.097 209.443 409.734L209.033 410.69L208.676 411.665C207.729 414.275 206.994 416.957 206.479 419.685C205.992 422.383 205.549 425.289 204.932 428.084C204.314 430.879 203.574 433.68 202.768 436.443C201.962 439.205 201.136 441.942 200.395 444.698C199.666 447.443 199.118 450.233 198.757 453.05C198.666 453.752 198.582 454.46 198.517 455.162C198.44 455.866 198.399 456.574 198.393 457.282C198.393 457.984 198.334 458.672 198.393 459.381L198.484 461.5C198.627 464.334 198.92 467.168 199.173 470.002L199.953 478.51C200.492 484.178 201.169 489.847 201.689 495.521C202.209 501.196 202.715 506.883 203.183 512.571L203.899 521.105C204.048 522.516 204.126 523.952 204.282 525.362L204.49 527.495L204.757 529.613L204.444 529.698L203.794 527.637L203.242 525.551C202.878 524.153 202.592 522.75 202.267 521.346C201.669 518.538 201.134 515.721 200.661 512.896C200.167 510.068 199.732 507.234 199.361 504.4C198.991 501.566 198.595 498.719 198.276 495.879C197.626 490.185 197.236 484.465 196.93 478.738C196.561 472.999 196.5 467.245 196.748 461.5L196.865 459.335C196.911 458.62 197.015 457.886 197.08 457.158C197.126 456.801 197.152 456.436 197.204 456.079L197.379 455.013C197.483 454.298 197.6 453.589 197.73 452.881C198.211 450.047 198.822 447.239 199.439 444.431L200.323 440.232C200.596 438.835 200.856 437.43 201.084 436.026C201.545 433.212 201.929 430.391 202.332 427.576C202.735 424.762 203.086 421.986 203.729 419.081C203.853 418.359 204.061 417.651 204.25 416.943C204.438 416.234 204.607 415.519 204.835 414.817L205.569 412.737C205.803 412.041 206.134 411.372 206.407 410.696L206.85 409.682L207.357 408.701C207.701 408.051 208.007 407.401 208.436 406.751C209.182 405.478 210.032 404.27 210.977 403.137C212.788 400.809 215.095 398.915 217.731 397.592L217.815 397.924Z" fill="#899FCA"/>
<path d="M174.85 452.679C178.184 451.295 176.8 440.505 176.059 434.538C174.96 425.932 173.342 424.619 171.217 413.576C170.352 409.071 169.838 404.527 168.798 395.434C167.303 382.304 167.407 380.048 166.783 375.284C164.183 355.218 154.59 336.232 151.067 336.993C149.767 337.279 149.376 340.405 148.642 346.665C147.719 354.627 150.443 357.214 149.045 363.194C148.272 366.535 147.589 365.547 145.015 371.644C142.071 378.645 139.854 383.922 141.388 389.382C142.324 392.697 143.696 392.717 145.015 397.443C145.977 400.875 145.704 402.474 146.224 405.893C146.634 408.571 147.309 410.962 149.851 417.176C153.92 427.108 155.948 432.075 158.724 436.527C162.13 442.059 170.878 454.311 174.85 452.679Z" fill="#DDE6F4"/>
<path d="M151.19 336.915C152.22 338.794 153.105 340.75 153.835 342.765C154.582 344.779 155.214 346.834 155.727 348.92C156.26 351.007 156.684 353.12 156.994 355.251C157.163 356.317 157.268 357.389 157.404 358.455C157.541 359.521 157.566 360.607 157.651 361.705C157.735 362.804 157.709 363.863 157.742 364.955C157.774 366.047 157.742 367.113 157.69 368.205L157.41 374.556C157.339 376.662 157.274 378.761 157.242 380.854C157.209 382.947 157.242 385.04 157.346 387.12C157.539 391.321 157.951 395.508 158.581 399.665C159.179 403.851 159.932 408.031 160.751 412.198C161.193 414.265 161.558 416.37 162.136 418.385C162.416 419.406 162.656 420.426 162.968 421.434C163.28 422.441 163.67 423.423 164.028 424.411C164.216 424.905 164.372 425.405 164.58 425.893L165.23 427.349L166.53 430.241C167.473 432.139 168.369 434.044 169.338 435.935L172.231 441.616C172.705 442.572 173.206 443.514 173.661 444.476L175.012 447.382C175.961 449.332 176.715 451.282 177.547 453.29L178.158 454.779C178.353 455.273 178.522 455.786 178.704 456.287L179.777 459.322C180.537 461.331 181.109 463.398 181.727 465.458L182.637 468.546C182.904 469.586 183.138 470.632 183.391 471.672L184.125 474.805C184.359 475.852 184.626 476.892 184.775 477.951L185.835 484.25L186.089 485.836C186.173 486.362 186.212 486.902 186.277 487.428L186.635 490.62C186.862 492.745 187.135 494.871 187.285 496.996C187.499 501.267 187.837 505.524 187.882 509.788V516.184C187.882 518.316 187.935 520.442 187.792 522.574C187.649 524.706 187.577 526.825 187.46 528.95C187.343 531.076 187.226 533.195 187.07 535.32H186.745C186.608 533.201 186.511 531.076 186.407 528.957C186.303 526.838 186.199 524.719 186.128 522.6C185.926 518.368 185.549 514.15 185.315 509.925C185.231 507.812 184.932 505.719 184.743 503.613L184.145 497.315C184.054 496.262 183.853 495.222 183.729 494.182L183.313 491.049L182.897 487.916C182.826 487.396 182.773 486.869 182.682 486.349L182.396 484.802L181.35 478.575C181.194 477.529 180.934 476.515 180.7 475.488L180.05 472.413C179.829 471.386 179.621 470.353 179.4 469.332L178.581 466.297C178.035 464.269 177.535 462.228 176.846 460.245C174.356 452.224 171.067 444.47 167.746 436.65C166.888 434.7 166.094 432.75 165.269 430.755L164.138 427.759L163.56 426.263C163.371 425.769 163.222 425.249 163.053 424.742C162.728 423.722 162.403 422.708 162.058 421.694C161.714 420.68 161.519 419.627 161.246 418.593C160.687 416.52 160.251 414.446 159.783 412.373L156.878 399.951C155.87 395.776 155.147 391.537 154.713 387.263C154.351 382.978 154.314 378.671 154.603 374.38L154.999 368.017C155.045 366.977 155.142 365.937 155.168 364.897C155.194 363.857 155.207 362.81 155.168 361.764L155.071 358.637C154.999 357.597 154.96 356.551 154.863 355.511C154.765 354.471 154.674 353.425 154.518 352.391C154.362 351.358 154.251 350.311 154.069 349.277C153.725 347.204 153.302 345.143 152.769 343.102C152.269 341.054 151.65 339.035 150.917 337.057L151.19 336.915Z" fill="#A4B5DD"/>
<path d="M190.911 428.896C188.63 428.344 188.688 419.094 189.702 412.77C190.648 407.111 192.556 401.657 195.344 396.643C197.944 392.021 199.244 391.658 201.389 386.971C203.82 381.726 203.086 380.386 205.023 375.68C207.135 370.545 208.533 370.89 214.292 362.382C218.601 356.012 220.896 352.632 222.352 347.432C224.217 340.854 223.346 336.278 224.367 336.148C225.504 335.998 228.052 341.426 228 347.432C228 350.734 227.175 351.923 223.964 361.543C221.708 368.303 220.577 371.735 220.337 374.036C219.745 379.743 221.169 381.056 220.74 387.341C220.584 389.662 220.272 394.297 218.322 398.626C214.623 406.9 208.65 406.023 200.583 415.188C193.895 422.825 192.861 429.364 190.911 428.896Z" fill="#DDE6F4"/>
<path d="M225.336 343.791C225.611 345.805 225.517 347.851 225.056 349.83C224.657 351.797 224.138 353.737 223.503 355.641C222.898 357.552 222.203 359.411 221.416 361.263L220.239 364C219.836 364.91 219.388 365.8 218.939 366.704C218.101 368.517 217.165 370.266 216.255 372.04C215.345 373.815 214.305 375.518 213.35 377.24C212.394 378.963 211.315 380.653 210.282 382.349L207.226 387.361C203.158 394.084 199.824 401.226 197.282 408.662C196.039 412.402 194.993 416.206 194.149 420.056L193.499 422.942L192.992 425.854C192.634 427.804 192.4 429.754 192.094 431.704C191.6 435.604 191.23 439.504 190.937 443.443C190.807 445.393 190.664 447.343 190.586 449.293C190.541 450.294 190.502 451.198 190.547 452.121C190.589 453.049 190.691 453.974 190.853 454.89C192.153 462.722 193.238 470.574 194.057 478.459C194.876 486.343 195.416 494.273 195.565 502.223C195.715 510.172 195.507 518.16 194.175 525.999H193.856C193.96 522.041 193.973 518.109 193.758 514.17C193.726 513.188 193.687 512.22 193.609 511.225L193.44 508.274C193.317 506.324 193.134 504.374 193.004 502.385C192.354 494.533 191.529 486.694 190.612 478.868C189.696 471.042 188.832 463.197 187.818 455.377C187.669 454.337 187.587 453.288 187.571 452.238C187.561 451.204 187.609 450.171 187.714 449.143C187.876 447.154 188.078 445.172 188.364 443.196C188.864 439.238 189.585 435.324 190.359 431.424C191.132 427.524 192.068 423.664 193.069 419.822C194.07 415.981 195.13 412.165 196.268 408.363C198.582 400.784 201.136 393.192 204.861 386.074C205.836 384.339 206.81 382.525 207.811 380.874L210.866 375.83C212.862 372.444 214.838 369.051 216.716 365.593C218.595 362.135 220.318 358.631 221.878 355.043C222.649 353.245 223.338 351.418 223.944 349.563L224.361 348.16C224.484 347.692 224.588 347.217 224.705 346.743C224.924 345.805 225.027 344.845 225.011 343.882L225.336 343.791Z" fill="#A4B5DD"/>
<path d="M234.033 392.347C246.071 384.15 247.033 383.897 249.756 381.056C256.1 374.446 254.8 371.872 260.65 365.742C268.249 357.76 279.279 352.879 281.613 355.258C282.828 356.499 280.859 358.878 276.777 370.981C273.67 380.192 274.177 380.731 272.344 383.48C269.744 387.38 266.026 389.734 258.635 394.362C251.849 398.613 249.912 398.801 246.545 402.422C244.537 404.573 244.439 405.347 240.897 409.682C238.655 412.522 236.232 415.215 233.643 417.742C229.177 421.961 225.284 428.142 217.321 427.492C215.716 427.33 219.993 401.902 234.033 392.347Z" fill="#DDE6F4"/>
<path d="M275.288 362.193C273.082 366.186 270.447 369.926 267.429 373.347C265.908 375.05 264.355 376.733 262.671 378.287C261.852 379.093 260.975 379.828 260.124 380.595C259.272 381.362 258.342 382.044 257.452 382.772L254.683 384.8L253.383 385.788C252.941 386.107 252.506 386.438 252.083 386.802L250.822 387.848C250.406 388.199 250.029 388.596 249.626 388.96C248.82 389.695 248.105 390.52 247.357 391.307C245.945 392.966 244.606 394.7 243.341 396.507C242.086 398.346 240.793 400.218 239.441 402.064C238.059 403.93 236.514 405.67 234.825 407.264C233.132 408.85 231.308 410.289 229.372 411.567C227.578 412.815 225.977 414.32 224.621 416.032C223.235 417.778 221.981 419.625 220.87 421.557C219.754 423.504 218.739 425.507 217.828 427.557C216.944 429.624 216.067 431.691 215.352 433.823C213.875 438.068 212.656 442.399 211.699 446.79C210.724 451.171 209.989 455.605 209.359 460.038C208.728 464.471 208.253 468.929 207.954 473.395C207.655 477.86 207.519 482.326 207.591 486.791C207.643 489.027 207.694 491.257 207.811 493.487C207.928 495.716 208.111 497.926 208.267 500.195C208.871 509.21 209.436 518.225 209.859 527.254C210.281 536.282 210.6 545.35 210.756 554.385H210.431C209.222 545.415 208.195 536.439 207.272 527.449C206.349 518.46 205.537 509.496 204.75 500.5C204.393 496.009 204.1 491.4 204.139 486.85C204.178 482.3 204.399 477.75 204.835 473.2C205.27 468.65 205.875 464.139 206.726 459.667C207.578 455.195 208.676 450.769 209.918 446.401C211.159 442.033 212.648 437.736 214.26 433.491C215.861 429.24 217.741 425.099 219.889 421.096C220.969 419.07 222.178 417.116 223.509 415.246C224.849 413.326 226.453 411.604 228.274 410.13C231.767 407.431 234.799 404.182 237.25 400.51C238.518 398.697 239.681 396.773 240.981 394.895C242.274 392.967 243.696 391.13 245.239 389.396C246.058 388.557 246.837 387.686 247.721 386.919C248.157 386.529 248.566 386.113 249.021 385.749L250.386 384.644C250.836 384.276 251.305 383.931 251.79 383.61L253.227 382.623L255.983 380.744C263.248 375.528 269.665 369.222 275.008 362.05L275.288 362.193Z" fill="#A4B5DD"/>
<path d="M226.278 509.314L225.628 514.949L220.044 562.14C219.943 563.002 219.527 563.797 218.878 564.373C218.228 564.949 217.39 565.267 216.521 565.266H182.858C181.99 565.264 181.153 564.946 180.505 564.37C179.856 563.794 179.44 563.001 179.335 562.14L177.521 546.793L173.082 509.307C173.023 508.81 173.07 508.306 173.221 507.828C173.371 507.351 173.621 506.91 173.954 506.536C174.287 506.162 174.695 505.863 175.152 505.658C175.609 505.454 176.104 505.348 176.605 505.349H222.755C223.256 505.348 223.752 505.454 224.21 505.659C224.667 505.864 225.076 506.164 225.409 506.539C225.742 506.913 225.992 507.355 226.141 507.833C226.291 508.311 226.338 508.816 226.278 509.314Z" fill="#B2C2E3"/>
<path opacity="0.47" d="M222.774 536.549C222.774 536.549 220.109 536.549 215.163 536.289C206.93 535.848 199.118 532.512 193.105 526.872C187.092 521.231 183.265 513.647 182.299 505.46V505.355H176.605C176.104 505.355 175.609 505.46 175.152 505.665C174.695 505.87 174.287 506.169 173.954 506.543C173.621 506.917 173.371 507.357 173.221 507.835C173.07 508.313 173.023 508.817 173.082 509.314L177.521 546.799L179.335 562.146C179.44 563.007 179.856 563.8 180.505 564.376C181.153 564.952 181.99 565.271 182.858 565.273H216.502C217.37 565.274 218.209 564.956 218.858 564.38C219.508 563.803 219.923 563.008 220.025 562.146L223.054 536.536C222.961 536.547 222.868 536.551 222.774 536.549Z" fill="url(#paint0_linear_1_85)"/>
<path opacity="0.49" d="M205.953 505.355L184.327 565.273H182.858C181.99 565.271 181.153 564.952 180.505 564.376C179.856 563.8 179.44 563.007 179.335 562.146L177.521 546.799L192.471 505.355H205.953ZM226.278 509.314L225.628 514.949L207.474 565.266H188.74L210.366 505.349H222.755C223.256 505.348 223.752 505.454 224.21 505.659C224.667 505.864 225.076 506.164 225.409 506.539C225.742 506.913 225.992 507.355 226.141 507.833C226.291 508.311 226.338 508.816 226.278 509.314Z" fill="white"/>
<path d="M577.441 141.499H389.59C380.616 141.499 373.34 148.774 373.34 157.749V549.029C373.34 558.004 380.616 565.279 389.59 565.279H577.441C586.415 565.279 593.691 558.004 593.691 549.029V157.749C593.691 148.774 586.415 141.499 577.441 141.499Z" fill="#8EB8E2"/>
<path d="M557.733 141.499H369.883C360.908 141.499 353.633 148.774 353.633 157.749V549.029C353.633 558.004 360.908 565.279 369.883 565.279H557.733C566.707 565.279 573.983 558.004 573.983 549.029V157.749C573.983 148.774 566.707 141.499 557.733 141.499Z" fill="#3E5FAB"/>
<path d="M558.545 180.908H369.005V512.928H558.545V180.908Z" fill="#8EB8E2"/>
<path opacity="0.47" d="M558.538 292.104C534.742 320.905 503.581 348.927 457.918 360.62C421.122 370.045 393.569 364.091 368.999 358.391V512.928H558.538V292.104Z" fill="url(#paint1_linear_1_85)"/>
<path d="M431.477 141.499H496.06V149.597C496.06 152.276 494.996 154.846 493.102 156.74C491.208 158.634 488.638 159.699 485.96 159.699H441.584C438.905 159.699 436.336 158.634 434.442 156.74C432.547 154.846 431.483 152.276 431.483 149.597V141.499H431.477Z" fill="#324E87"/>
<path d="M519.591 165.022C522.534 165.022 524.921 162.636 524.921 159.692C524.921 156.748 522.534 154.362 519.591 154.362C516.647 154.362 514.26 156.748 514.26 159.692C514.26 162.636 516.647 165.022 519.591 165.022Z" fill="#324E87"/>
<path d="M463.768 550.654C471.591 550.654 477.932 544.313 477.932 536.49C477.932 528.668 471.591 522.327 463.768 522.327C455.946 522.327 449.605 528.668 449.605 536.49C449.605 544.313 455.946 550.654 463.768 550.654Z" stroke="#8EB8E2" stroke-width="5" stroke-miterlimit="10"/>
<path d="M506.071 254.8C506.071 282.158 486.219 297.966 461.734 297.966C437.249 297.966 417.404 282.158 417.404 254.8C417.404 227.441 437.249 205.27 461.734 205.27C486.219 205.27 506.071 227.428 506.071 254.8Z" fill="#3E5FAB"/>
<path d="M469.112 251.862C470.489 250.606 471.587 249.075 472.334 247.367C473.081 245.659 473.46 243.813 473.447 241.95C473.447 234.8 467.961 228.95 461.188 228.95C454.415 228.95 448.923 234.767 448.923 241.95C448.91 243.887 449.322 245.803 450.129 247.564C450.936 249.325 452.12 250.887 453.596 252.142C449.566 253.761 446.113 256.549 443.681 260.147C441.249 263.745 439.948 267.988 439.946 272.331V276.881H483.496V272.331C483.494 267.854 482.112 263.486 479.538 259.823C476.964 256.161 473.323 253.381 469.112 251.862Z" fill="#A8B9DF"/>
<path d="M454.174 406.113H389.915V448.065H454.174V406.113Z" fill="#C4CFE6"/>
<path d="M543.549 406.113H479.29V448.065H543.549V406.113Z" fill="#C4CFE6"/>
<path opacity="0.47" d="M389.474 465.732H543.556" stroke="url(#paint2_linear_1_85)" stroke-width="7" stroke-miterlimit="10"/>
<path opacity="0.47" d="M389.474 483.398H543.556" stroke="url(#paint3_linear_1_85)" stroke-width="7" stroke-miterlimit="10"/>
<path opacity="0.47" d="M389.474 373.003H543.556" stroke="url(#paint4_linear_1_85)" stroke-width="7" stroke-miterlimit="10"/>
<path opacity="0.47" d="M389.474 390.67H543.556" stroke="url(#paint5_linear_1_85)" stroke-width="7" stroke-miterlimit="10"/>
<path opacity="0.47" d="M389.474 337.668H543.556" stroke="url(#paint6_linear_1_85)" stroke-width="7" stroke-miterlimit="10"/>
<path opacity="0.47" d="M389.474 320.001H543.556" stroke="url(#paint7_linear_1_85)" stroke-width="7" stroke-miterlimit="10"/>
<path opacity="0.47" d="M389.474 355.335H543.556" stroke="url(#paint8_linear_1_85)" stroke-width="7" stroke-miterlimit="10"/>
<path opacity="0.25" d="M501.962 180.901L397.566 512.928H369.005V444.821L451.99 180.901H501.962Z" fill="white"/>
<path opacity="0.25" d="M414.297 512.928L518.693 180.908H558.545V266.845L481.169 512.928H414.297Z" fill="white"/>
<path d="M584.253 205.25V250.38" stroke="#324E87" stroke-width="5" stroke-miterlimit="10"/>
<path opacity="0.47" d="M293.326 136.962H190.749V192.231H293.326V136.962Z" fill="url(#paint9_linear_1_85)"/>
<path d="M221.968 166.238C221.968 180.382 232.225 188.552 244.881 188.552C257.536 188.552 267.8 180.382 267.8 166.238C267.8 152.094 257.536 140.634 244.881 140.634C232.225 140.634 221.968 152.1 221.968 166.238Z" fill="#3E5FAB"/>
<path d="M241.072 164.73C240.36 164.081 239.792 163.289 239.406 162.407C239.02 161.525 238.823 160.571 238.829 159.608C238.829 155.896 241.663 152.893 245.167 152.893C248.67 152.893 251.504 155.896 251.504 159.608C251.512 160.608 251.3 161.598 250.884 162.508C250.467 163.418 249.856 164.225 249.093 164.873C251.174 165.712 252.957 167.154 254.212 169.015C255.468 170.875 256.139 173.067 256.139 175.312V177.678H233.623V175.312C233.624 172.995 234.339 170.736 235.673 168.842C237.006 166.948 238.892 165.511 241.072 164.73Z" fill="white"/>
<path d="M277.745 178.51H257.849" stroke="#E7EBF6" stroke-width="8" stroke-miterlimit="10"/>
<path d="M267.8 188.454V168.564" stroke="#E7EBF6" stroke-width="8" stroke-miterlimit="10"/>
<path opacity="0.42" d="M269.639 136.962L253.597 192.225H225.14L241.182 136.962H269.639Z" fill="white"/>
<path opacity="0.42" d="M287.066 136.962L271.024 192.225H258.089L274.131 136.962H287.066Z" fill="white"/>
<path opacity="0.51" d="M815.776 180.908H612.957V256.75H815.776V180.908Z" fill="url(#paint10_linear_1_85)"/>
<path d="M673.4 222.072C673.4 238.465 661.505 247.942 646.835 247.942C632.164 247.942 620.269 238.465 620.269 222.072C620.269 205.679 632.144 192.4 646.815 192.4C661.485 192.4 673.4 205.686 673.4 222.072Z" fill="#3E5FAB"/>
<path d="M651.235 220.35C652.06 219.598 652.717 218.681 653.165 217.659C653.613 216.637 653.841 215.532 653.835 214.415C653.835 210.112 650.546 206.615 646.484 206.615C642.421 206.615 639.138 210.099 639.138 214.415C639.131 215.575 639.377 216.722 639.86 217.777C640.343 218.831 641.051 219.767 641.934 220.519C639.524 221.489 637.458 223.155 636 225.305C634.542 227.456 633.759 229.992 633.75 232.589V235.332H659.854V232.589C659.847 229.911 659.017 227.3 657.475 225.11C655.933 222.921 653.754 221.259 651.235 220.35Z" fill="white"/>
<path opacity="0.47" d="M693.946 209.807H795.327" stroke="url(#paint11_linear_1_85)" stroke-width="7" stroke-miterlimit="10"/>
<path opacity="0.47" d="M693.946 232.161H795.327" stroke="url(#paint12_linear_1_85)" stroke-width="7" stroke-miterlimit="10"/>
<path opacity="0.42" d="M726.199 180.902L699.322 256.75H671.229L698.106 180.902H726.199Z" fill="white"/>
<path opacity="0.42" d="M786.773 180.902L759.902 256.75H712.237L739.108 180.902H786.773Z" fill="white"/>
<path d="M357.455 551.213C360.675 551.213 363.285 548.603 363.285 545.382C363.285 542.162 360.675 539.552 357.455 539.552C354.234 539.552 351.624 542.162 351.624 545.382C351.624 548.603 354.234 551.213 357.455 551.213Z" fill="#30302F"/>
<path d="M358.475 557.915H362.148V555.965H358.475C357.825 555.965 357.454 555.639 357.448 555.529L355.751 530.543C355.762 530.499 355.784 530.458 355.816 530.426C356.084 530.199 356.428 530.082 356.778 530.101H362.927V528.151H356.778C356.338 528.138 355.899 528.215 355.489 528.377C355.079 528.539 354.706 528.783 354.393 529.094C354.192 529.303 354.036 529.551 353.934 529.822C353.833 530.094 353.787 530.383 353.801 530.673L355.498 555.659C355.589 556.946 356.85 557.915 358.475 557.915Z" fill="#30302F"/>
<path d="M359.749 544.713L379.515 544.219L364.975 464.523L362.934 376.226L330.616 355.829L357.877 463.716L359.749 544.713Z" fill="#EE465E"/>
<path d="M365.222 383.032H362.96C359.029 383.032 355.26 381.471 352.481 378.691C349.701 375.912 348.14 372.143 348.14 368.212V365.95C348.14 365.433 348.345 364.937 348.711 364.571C349.077 364.205 349.573 364 350.09 364H365.222C365.739 364 366.235 364.205 366.601 364.571C366.967 364.937 367.172 365.433 367.172 365.95V381.082C367.172 381.599 366.967 382.095 366.601 382.461C366.235 382.827 365.739 383.032 365.222 383.032Z" fill="#4E4F50"/>
<path d="M364.279 372.06H365.046C365.326 372.061 365.603 372.006 365.861 371.9C366.119 371.793 366.354 371.637 366.551 371.439C366.749 371.242 366.905 371.007 367.012 370.749C367.118 370.491 367.173 370.214 367.172 369.935V375.05C367.173 375.329 367.118 375.606 367.012 375.864C366.905 376.123 366.749 376.357 366.551 376.555C366.354 376.752 366.119 376.909 365.861 377.015C365.603 377.122 365.326 377.176 365.046 377.176H364.279C362.16 377.176 360.061 376.758 358.103 375.947C356.145 375.136 354.366 373.947 352.867 372.448C351.368 370.95 350.18 369.17 349.369 367.212C348.557 365.254 348.14 363.155 348.14 361.036V360.269C348.142 359.875 348.255 359.49 348.465 359.157C349.211 362.801 351.192 366.075 354.074 368.426C356.955 370.777 360.561 372.061 364.279 372.06Z" fill="#79797A"/>
<path d="M359.755 544.219V565.272H406.25V558.122C406.249 556.827 405.741 555.584 404.834 554.658C403.928 553.733 402.696 553.198 401.401 553.17C394.621 552.988 382.772 551.583 379.522 544.193H359.762L359.755 544.219Z" fill="#C23E56"/>
<path d="M353.204 398.951C353.62 409.507 354.419 420.024 355.348 430.521C355.784 435.773 356.35 441.012 356.857 446.257L358.579 461.968C359.779 472.437 361.138 482.887 362.654 493.318C364.156 503.718 365.794 514.17 367.854 524.518C367.445 513.955 366.645 503.438 365.709 492.94C364.773 482.443 363.707 471.958 362.459 461.493L360.509 445.809C359.794 440.609 359.145 435.357 358.358 430.144C356.85 419.738 355.225 409.318 353.204 398.951Z" fill="#4E4F50"/>
<path d="M359.873 565.273C359.972 563.776 360.65 562.377 361.764 561.373C362.827 560.406 364.229 559.899 365.664 559.962C367.053 560.014 368.364 560.615 369.31 561.632C370.234 562.619 370.734 563.928 370.702 565.279H372.216C372.259 563.958 372.811 562.705 373.757 561.782C374.69 560.886 375.938 560.392 377.232 560.405C378.526 560.418 379.764 560.938 380.679 561.854C381.58 562.765 382.083 563.997 382.077 565.279H384.027C384.035 564.32 384.324 563.384 384.859 562.587C385.393 561.79 386.149 561.168 387.034 560.797C387.919 560.425 388.893 560.321 389.836 560.497C390.779 560.674 391.649 561.123 392.34 561.788C393.287 562.708 393.84 563.96 393.88 565.279H395.402C395.374 563.929 395.873 562.621 396.793 561.632C397.74 560.617 399.051 560.017 400.439 559.962C401.873 559.905 403.273 560.411 404.339 561.373C405.446 562.382 406.123 563.778 406.23 565.273C406.278 564.493 406.169 563.712 405.91 562.975C405.651 562.238 405.248 561.561 404.723 560.982C404.171 560.392 403.508 559.915 402.771 559.581C402.035 559.246 401.241 559.06 400.432 559.032C399.598 559.006 398.767 559.145 397.986 559.44C397.205 559.736 396.49 560.183 395.882 560.755C395.263 561.343 394.767 562.048 394.422 562.829C394.078 563.61 393.891 564.451 393.874 565.305H395.395C395.415 564.438 395.262 563.575 394.944 562.768C394.626 561.961 394.149 561.226 393.543 560.605C392.929 559.971 392.195 559.466 391.384 559.119C390.573 558.771 389.701 558.589 388.819 558.582C387.937 558.576 387.062 558.745 386.246 559.08C385.43 559.415 384.689 559.909 384.066 560.534C382.797 561.799 382.079 563.514 382.07 565.305H384.02C384.01 563.512 383.29 561.797 382.018 560.534C381.394 559.912 380.653 559.42 379.838 559.086C379.022 558.753 378.149 558.585 377.268 558.591C376.387 558.598 375.516 558.779 374.706 559.125C373.895 559.471 373.162 559.974 372.548 560.605C371.941 561.226 371.464 561.961 371.146 562.768C370.828 563.575 370.675 564.438 370.695 565.305H372.21C372.193 564.452 372.008 563.61 371.665 562.829C371.321 562.048 370.826 561.343 370.207 560.755C368.979 559.6 367.343 558.981 365.657 559.032C364.849 559.06 364.055 559.246 363.319 559.581C362.582 559.915 361.919 560.392 361.368 560.982C360.843 561.56 360.44 562.238 360.183 562.975C359.926 563.712 359.82 564.494 359.873 565.273Z" fill="#30302F"/>
<path d="M254.137 533.299C257.357 533.299 259.968 530.689 259.968 527.468C259.968 524.248 257.357 521.638 254.137 521.638C250.917 521.638 248.307 524.248 248.307 527.468C248.307 530.689 250.917 533.299 254.137 533.299Z" fill="#30302F"/>
<path d="M253.402 540.833L254.182 539.045L250.822 537.55C250.224 537.29 250.016 536.848 250.055 536.738L258.505 513.175C258.531 513.137 258.571 513.109 258.615 513.097C258.781 513.043 258.955 513.023 259.128 513.037C259.301 513.052 259.469 513.101 259.623 513.182L265.258 515.652L266.039 513.864L260.409 511.394C260.01 511.205 259.577 511.1 259.135 511.084C258.694 511.068 258.254 511.143 257.842 511.303C257.574 511.413 257.332 511.577 257.131 511.785C256.929 511.993 256.773 512.241 256.672 512.512L248.222 536.081C247.786 537.29 248.567 538.681 250.036 539.331L253.402 540.833Z" fill="#30302F"/>
<path d="M256.503 527.78L274.814 535.262L293.488 456.437L327.067 374.745L305.65 343.09L287.307 452.842L256.503 527.78Z" fill="#EE465E"/>
<path d="M326.44 381.891L324.368 380.982C320.768 379.404 317.943 376.461 316.513 372.8C315.083 369.139 315.166 365.059 316.744 361.459L317.653 359.388C317.86 358.914 318.247 358.542 318.729 358.354C319.211 358.166 319.748 358.177 320.221 358.385L334.08 364.46C334.554 364.667 334.926 365.055 335.114 365.536C335.302 366.018 335.291 366.555 335.083 367.028L329.008 380.888C328.801 381.361 328.414 381.733 327.932 381.921C327.45 382.109 326.913 382.098 326.44 381.891Z" fill="#4E4F50"/>
<path d="M329.973 371.468L330.675 371.774C330.93 371.887 331.204 371.949 331.483 371.955C331.762 371.961 332.04 371.912 332.3 371.811C332.559 371.709 332.797 371.557 332.997 371.363C333.198 371.17 333.359 370.938 333.47 370.682L331.422 375.355C331.195 375.87 330.774 376.274 330.25 376.479C329.726 376.684 329.143 376.672 328.627 376.448L327.925 376.135C324.011 374.416 320.939 371.216 319.382 367.235C317.825 363.254 317.91 358.818 319.618 354.9L319.93 354.198C320.09 353.838 320.346 353.53 320.671 353.307C319.894 356.943 320.395 360.735 322.089 364.044C323.784 367.352 326.568 369.975 329.973 371.468Z" fill="#79797A"/>
<path d="M256.711 527.326L248.261 546.611L290.836 565.273L293.696 558.773C294.22 557.584 294.257 556.237 293.799 555.022C293.341 553.806 292.424 552.819 291.246 552.273C285.11 549.38 274.82 543.335 274.814 535.268L256.711 527.326Z" fill="#C23E56"/>
<path d="M309.029 391.645C305.168 401.486 301.684 411.437 298.324 421.427C296.608 426.413 295.028 431.438 293.384 436.443L288.652 451.523C285.554 461.598 282.603 471.714 279.799 481.871C276.991 492.031 274.306 502.229 271.999 512.545C275.86 502.704 279.351 492.758 282.711 482.768C286.072 472.777 289.302 462.741 292.376 452.666L296.926 437.521C298.369 432.451 299.877 427.408 301.249 422.312C304.031 412.159 306.715 401.96 309.029 391.645Z" fill="#4E4F50"/>
<path d="M248.365 546.65C249.063 545.321 250.245 544.311 251.667 543.829C253.032 543.374 254.522 543.474 255.814 544.109C257.064 544.716 258.022 545.793 258.479 547.105C258.93 548.379 258.862 549.78 258.29 551.005L259.675 551.609C260.244 550.411 261.255 549.479 262.496 549.009C263.397 548.666 264.38 548.597 265.32 548.81C266.26 549.024 267.116 549.511 267.781 550.21C268.445 550.909 268.887 551.788 269.053 552.738C269.218 553.688 269.099 554.666 268.71 555.548L270.491 556.328C270.741 555.742 271.105 555.21 271.561 554.764C272.017 554.317 272.557 553.966 273.15 553.728C274.355 553.26 275.696 553.281 276.885 553.789C278.075 554.297 279.018 555.251 279.513 556.445C280.004 557.67 280.004 559.036 279.513 560.261L280.911 560.872C281.421 559.623 282.401 558.624 283.641 558.09C284.916 557.539 286.358 557.516 287.651 558.025C288.994 558.543 290.078 559.571 290.667 560.885C291.28 562.255 291.338 563.809 290.829 565.22C291.191 564.524 291.407 563.762 291.465 562.98C291.524 562.198 291.422 561.412 291.168 560.67C290.906 559.903 290.496 559.194 289.959 558.586C289.422 557.978 288.77 557.483 288.041 557.128C286.517 556.404 284.768 556.316 283.179 556.881C282.37 557.178 281.628 557.634 280.996 558.221C280.364 558.808 279.856 559.515 279.5 560.3L280.897 560.911C281.265 560.124 281.47 559.272 281.503 558.405C281.535 557.537 281.393 556.672 281.086 555.86C280.779 555.032 280.311 554.274 279.709 553.628C279.106 552.983 278.381 552.463 277.576 552.1C276.771 551.738 275.902 551.538 275.019 551.514C274.137 551.49 273.258 551.642 272.435 551.96C270.763 552.607 269.417 553.891 268.69 555.529L270.471 556.309C270.824 555.495 271.014 554.62 271.028 553.734C271.043 552.847 270.882 551.966 270.556 551.141C270.235 550.321 269.754 549.572 269.142 548.938C268.529 548.305 267.796 547.799 266.986 547.452C266.176 547.104 265.306 546.921 264.424 546.912C263.543 546.904 262.669 547.071 261.853 547.404C261.048 547.729 260.317 548.211 259.702 548.823C259.086 549.435 258.6 550.163 258.271 550.966L259.656 551.57C259.985 550.783 260.155 549.938 260.155 549.084C260.155 548.231 259.985 547.385 259.656 546.598C259.328 545.83 258.852 545.135 258.255 544.552C257.659 543.968 256.953 543.509 256.178 543.198C255.425 542.9 254.619 542.755 253.809 542.77C252.999 542.786 252.2 542.963 251.459 543.289C250.744 543.613 250.102 544.078 249.57 544.655C249.039 545.233 248.629 545.911 248.365 546.65Z" fill="#30302F"/>
<path d="M290.895 465.14C296.2 465.14 300.502 460.839 300.502 455.533C300.502 450.227 296.2 445.926 290.895 445.926C285.589 445.926 281.288 450.227 281.288 455.533C281.288 460.839 285.589 465.14 290.895 465.14Z" fill="#4E4F50"/>
<path d="M290.895 461.026C293.928 461.026 296.387 458.566 296.387 455.533C296.387 452.5 293.928 450.04 290.895 450.04C287.861 450.04 285.402 452.5 285.402 455.533C285.402 458.566 287.861 461.026 290.895 461.026Z" fill="#EE465E"/>
<path d="M360.51 474.351C365.815 474.351 370.116 470.049 370.116 464.743C370.116 459.438 365.815 455.137 360.51 455.137C355.204 455.137 350.902 459.438 350.902 464.743C350.902 470.049 355.204 474.351 360.51 474.351Z" fill="#4E4F50"/>
<path d="M360.51 470.236C363.543 470.236 366.002 467.777 366.002 464.743C366.002 461.71 363.543 459.251 360.51 459.251C357.476 459.251 355.017 461.71 355.017 464.743C355.017 467.777 357.476 470.236 360.51 470.236Z" fill="#EE465E"/>
<path d="M302.971 367.25C321.329 371.632 340.44 371.799 358.871 367.737C358.648 363.815 359.029 359.882 360.002 356.076C361.452 350.528 364.116 345.37 367.802 340.977C367.975 340.771 368.084 340.519 368.118 340.252C368.153 339.986 368.11 339.715 367.995 339.471C367.88 339.228 367.698 339.023 367.471 338.88C367.243 338.736 366.979 338.661 366.71 338.663H295.015C294.757 338.662 294.503 338.733 294.281 338.867C294.06 339.001 293.88 339.193 293.76 339.422C293.641 339.652 293.587 339.91 293.604 340.168C293.621 340.426 293.709 340.674 293.858 340.886C297.154 345.67 299.632 350.968 301.19 356.564C302.16 360.053 302.757 363.635 302.971 367.25Z" fill="#30302F"/>
<path d="M302.971 367.25C321.329 371.632 340.44 371.799 358.871 367.737C358.648 363.815 359.029 359.882 360.002 356.076C361.452 350.528 364.116 345.37 367.802 340.977C367.975 340.771 368.084 340.519 368.118 340.252C368.153 339.986 368.11 339.715 367.995 339.471C367.88 339.228 367.698 339.023 367.471 338.88C367.243 338.736 366.979 338.661 366.71 338.663H295.015C294.757 338.662 294.503 338.733 294.281 338.867C294.06 339.001 293.88 339.193 293.76 339.422C293.641 339.652 293.587 339.91 293.604 340.168C293.621 340.426 293.709 340.674 293.858 340.886C297.154 345.67 299.632 350.968 301.19 356.564C302.16 360.053 302.757 363.635 302.971 367.25Z" fill="#EE465E"/>
<path d="M301.191 356.551C301.08 356.135 300.95 355.745 300.827 355.342C305.799 357.974 311.402 358.137 323.057 357.591C333.691 357.084 342.309 347.132 346.801 338.65H366.516C366.477 340.028 366.425 341.399 366.36 342.777C360.988 349.945 358.329 358.783 358.852 367.724C340.421 371.786 321.309 371.619 302.952 367.237C302.744 363.623 302.153 360.041 301.191 356.551Z" fill="#C23E56"/>
<path d="M319.943 355.401C323.13 352.927 327.02 351.531 331.053 351.415C335.085 351.298 339.05 352.466 342.374 354.751L343.909 355.804C346.187 357.384 348.831 358.358 351.59 358.632C354.349 358.906 357.133 358.472 359.677 357.37C359.554 357.923 359.45 358.475 359.352 359.008C356.68 360.004 353.807 360.339 350.978 359.985C348.148 359.631 345.446 358.597 343.102 356.974L341.568 355.921C338.493 353.8 334.823 352.714 331.089 352.819C327.355 352.924 323.752 354.215 320.801 356.505C318.097 358.596 314.848 359.862 311.443 360.154C308.037 360.446 304.62 359.75 301.6 358.15C301.47 357.617 301.333 357.078 301.177 356.532C301.177 356.421 301.112 356.324 301.086 356.22C303.932 358.039 307.27 358.936 310.644 358.786C314.019 358.636 317.264 357.446 319.936 355.381L319.943 355.401Z" fill="#545554"/>
<path d="M336.193 352.001C338.402 352.55 340.495 353.487 342.374 354.77L343.909 355.823C346.187 357.404 348.831 358.377 351.59 358.651C354.349 358.925 357.133 358.491 359.677 357.39C359.554 357.942 359.45 358.494 359.352 359.027C356.68 360.023 353.807 360.359 350.978 360.004C348.148 359.65 345.446 358.617 343.102 356.993L341.568 355.94C339.518 354.535 337.195 353.579 334.75 353.132C335.231 352.768 335.718 352.391 336.193 352.001ZM309.913 358.8C311.811 358.795 313.693 358.463 315.477 357.818C316.563 357.818 317.72 357.779 318.955 357.74C316.34 359.291 313.37 360.144 310.331 360.215C307.292 360.287 304.285 359.576 301.6 358.15C301.47 357.617 301.333 357.078 301.177 356.532C301.177 356.421 301.112 356.324 301.086 356.22C303.724 357.901 306.786 358.796 309.913 358.8Z" fill="#484748"/>
<path d="M345.15 340.067C339.885 339.009 334.553 338.318 329.193 338C323.889 337.642 318.591 337.545 313.293 337.616C311.993 337.616 310.648 337.655 309.322 337.707C307.996 337.759 306.676 337.792 305.35 337.87C304.024 337.948 302.705 338.006 301.386 338.11L299.396 338.254L298.409 338.338H298.077C297.841 338.358 297.606 338.395 297.375 338.448C296.884 338.562 296.418 338.762 295.997 339.04C295.176 339.584 294.579 340.406 294.314 341.354C294.047 342.286 294.123 343.282 294.528 344.162C294.623 344.372 294.739 344.572 294.872 344.76L294.957 344.884L294.996 344.935L295.074 345.026L295.393 345.397L296.043 346.125C296.868 347.093 297.642 348.023 298.357 349.043C299.806 351.065 301.054 353.463 302.575 355.784C302.68 353.005 302.351 350.226 301.6 347.548C301.186 346.173 300.648 344.837 299.995 343.557L299.52 342.628L299.273 342.179L299.214 342.062L299.182 342.01C299.222 342.06 299.259 342.112 299.293 342.166C299.464 342.433 299.529 342.753 299.475 343.065C299.421 343.377 299.251 343.657 299 343.85C298.861 343.955 298.705 344.034 298.539 344.084C298.47 344.103 298.401 344.118 298.331 344.129C298.272 344.129 298.331 344.129 298.376 344.129H298.5L299.494 344.168L301.483 344.214C302.783 344.246 304.135 344.253 305.461 344.253C306.787 344.253 308.12 344.253 309.446 344.22C310.772 344.188 312.098 344.156 313.424 344.11C318.721 343.915 324.025 343.551 329.316 342.934C334.654 342.346 339.945 341.388 345.15 340.067Z" fill="#EA5F7A"/>
<path d="M330.655 371.943C321.229 371.837 311.844 370.684 302.673 368.504L301.736 368.277L301.678 367.315C301.122 358.094 298.046 349.202 292.786 341.607C292.506 341.2 292.342 340.724 292.312 340.231C292.282 339.737 292.388 339.245 292.617 338.807C292.847 338.369 293.191 338.001 293.614 337.745C294.036 337.488 294.521 337.352 295.016 337.35H366.691C367.207 337.349 367.712 337.495 368.147 337.771C368.583 338.048 368.93 338.442 369.149 338.909C369.368 339.376 369.45 339.895 369.384 340.407C369.318 340.918 369.108 341.4 368.777 341.796C362.694 348.991 359.606 358.247 360.152 367.653L360.21 368.758L359.132 368.992C350.21 370.956 341.103 371.948 331.968 371.949L330.655 371.943ZM358.729 355.738C360.218 350.004 362.969 344.674 366.782 340.138C366.795 340.123 366.803 340.104 366.803 340.083C366.803 340.063 366.795 340.043 366.782 340.028C366.776 340.006 366.762 339.986 366.743 339.973C366.724 339.96 366.701 339.954 366.678 339.957H295.016C294.995 339.955 294.975 339.96 294.957 339.97C294.94 339.981 294.926 339.996 294.918 340.015C294.906 340.035 294.9 340.057 294.9 340.08C294.9 340.103 294.906 340.125 294.918 340.145C300.257 347.855 303.46 356.841 304.2 366.191C321.719 370.229 339.909 370.398 357.5 366.685C357.395 362.996 357.808 359.312 358.729 355.738Z" fill="#EE465E"/>
<path d="M337.955 245.668H324.864V262.489H337.955V245.668Z" fill="#474748"/>
<path d="M348.133 253.851H314.678C314.452 253.852 314.228 253.803 314.023 253.71C313.817 253.616 313.634 253.479 313.486 253.308C313.338 253.137 313.228 252.936 313.165 252.719C313.101 252.502 313.085 252.274 313.118 252.05L320.528 201.936C320.581 201.562 320.768 201.22 321.053 200.972C321.339 200.725 321.704 200.589 322.081 200.59H340.73C341.108 200.59 341.473 200.727 341.76 200.973C342.046 201.22 342.234 201.562 342.29 201.936L349.7 252.05C349.733 252.275 349.717 252.503 349.653 252.721C349.589 252.938 349.479 253.14 349.33 253.311C349.181 253.482 348.998 253.618 348.791 253.712C348.584 253.805 348.36 253.852 348.133 253.851Z" fill="#EE465E"/>
<path d="M348.133 253.851C348.36 253.852 348.583 253.803 348.789 253.71C348.995 253.616 349.178 253.479 349.326 253.308C349.474 253.137 349.583 252.936 349.647 252.719C349.71 252.502 349.726 252.274 349.693 252.05L348.146 241.592C339.215 238.4 332.241 229.034 328.815 221.637C327.073 217.867 324.551 208.273 322.588 200.59H322.081C321.704 200.589 321.339 200.725 321.053 200.972C320.768 201.22 320.581 201.562 320.528 201.936L313.118 252.05C313.085 252.274 313.101 252.502 313.165 252.719C313.228 252.936 313.338 253.137 313.486 253.308C313.634 253.479 313.817 253.616 314.023 253.71C314.228 253.803 314.452 253.852 314.678 253.851H348.133Z" fill="#D13F5B"/>
<path d="M348.601 244.68C346.269 244.155 344.077 243.131 342.179 241.677C338.994 239.203 335.104 237.807 331.073 237.69C327.042 237.573 323.078 238.742 319.754 241.027L318.221 242.073C317.016 242.908 315.704 243.577 314.321 244.062L314.093 245.629C315.857 245.094 317.528 244.289 319.046 243.243L320.58 242.19C323.655 240.073 327.324 238.989 331.056 239.094C334.788 239.199 338.39 240.488 341.341 242.775C343.548 244.467 346.118 245.622 348.849 246.149L348.601 244.68Z" fill="#4E4F50"/>
<path opacity="0.51" d="M239.85 431.002L292.468 417.092C293.311 416.868 294.21 416.988 294.965 417.425C295.721 417.863 296.272 418.582 296.497 419.425L305.643 453.7C305.867 454.544 305.747 455.442 305.31 456.198C304.872 456.953 304.153 457.504 303.309 457.73L244.257 471.016C244.112 471.054 243.964 471.082 243.815 471.1C243.332 471.139 242.846 471.068 242.395 470.891C241.944 470.715 241.539 470.438 241.211 470.081C240.882 469.725 240.64 469.298 240.501 468.834C240.362 468.37 240.33 467.88 240.409 467.402L237.504 435.006C237.288 434.164 237.413 433.271 237.852 432.521C238.292 431.771 239.01 431.225 239.85 431.002Z" fill="url(#paint13_linear_1_85)"/>
<path d="M244.836 429.273L299.156 414.771C300 414.547 300.898 414.667 301.654 415.105C302.409 415.542 302.96 416.262 303.186 417.105L313.3 455C313.412 455.418 313.44 455.854 313.384 456.282C313.327 456.711 313.186 457.125 312.969 457.499C312.753 457.873 312.464 458.201 312.12 458.464C311.777 458.727 311.385 458.919 310.967 459.03L292.903 463.853C292.393 463.989 291.858 464.001 291.342 463.888C290.826 463.775 290.345 463.54 289.939 463.203L282.289 456.787C281.885 456.446 281.404 456.209 280.887 456.095C280.371 455.982 279.834 455.997 279.325 456.137L253.825 462.943C252.981 463.167 252.083 463.047 251.327 462.61C250.572 462.172 250.021 461.453 249.795 460.609L242.509 433.309C242.395 432.892 242.366 432.456 242.422 432.026C242.478 431.597 242.618 431.183 242.834 430.808C243.05 430.433 243.338 430.104 243.682 429.841C244.025 429.578 244.417 429.385 244.836 429.273Z" fill="#C4CEE5"/>
<path opacity="0.47" d="M296.803 423.111L304.98 451.73" stroke="url(#paint14_linear_1_85)" stroke-width="5" stroke-miterlimit="10"/>
<path opacity="0.47" d="M289.568 425.347L297.739 453.966" stroke="url(#paint15_linear_1_85)" stroke-width="5" stroke-miterlimit="10"/>
<path opacity="0.47" d="M282.055 427.583L290.225 456.202" stroke="url(#paint16_linear_1_85)" stroke-width="5" stroke-miterlimit="10"/>
<path d="M257.029 343.038C260.587 343.038 263.471 340.154 263.471 336.596C263.471 333.038 260.587 330.154 257.029 330.154C253.472 330.154 250.588 333.038 250.588 336.596C250.588 340.154 253.472 343.038 257.029 343.038Z" fill="#30302F"/>
<path d="M253.857 363.103C259.163 363.103 263.464 358.802 263.464 353.496C263.464 348.19 259.163 343.889 253.857 343.889C248.552 343.889 244.25 348.19 244.25 353.496C244.25 358.802 248.552 363.103 253.857 363.103Z" fill="#30302F"/>
<path d="M257.01 376.831C260.568 376.831 263.452 373.947 263.452 370.39C263.452 366.832 260.568 363.948 257.01 363.948C253.452 363.948 250.568 366.832 250.568 370.39C250.568 373.947 253.452 376.831 257.01 376.831Z" fill="#30302F"/>
<path d="M344.676 326.554H316.855V337.382H344.676V326.554Z" fill="#4E4F50"/>
<path d="M363.103 329.914L358.189 330.519C339.975 332.748 321.556 332.748 303.342 330.519L298.428 329.914C297.81 329.838 297.234 329.56 296.791 329.122C296.348 328.685 296.062 328.113 295.978 327.496L295.419 323.382C293.177 306.872 292.772 290.165 294.21 273.566L294.658 268.398C294.716 267.731 295.01 267.107 295.486 266.636C295.962 266.166 296.59 265.88 297.258 265.831L313.138 264.589C324.88 263.666 336.677 263.666 348.42 264.589L364.286 265.85C364.954 265.899 365.583 266.184 366.059 266.654C366.536 267.125 366.829 267.75 366.886 268.418L367.335 273.585C368.772 290.184 368.367 306.891 366.126 323.401L365.566 327.516C365.478 328.131 365.188 328.7 364.742 329.133C364.297 329.567 363.721 329.842 363.103 329.914Z" fill="#F6BE1D"/>
<path d="M365.554 327.496L366.112 323.382C366.758 318.615 367.248 313.859 367.582 309.114C358.482 318.143 354.92 318.994 336.915 318.149C325.377 317.603 316.199 305.929 312.104 297.082C309.153 290.699 303.966 267.605 303.043 265.375L297.245 265.831C296.577 265.88 295.949 266.166 295.473 266.636C294.997 267.107 294.703 267.731 294.645 268.398L294.196 273.565C292.759 290.165 293.164 306.872 295.405 323.382L295.964 327.496C296.049 328.113 296.335 328.685 296.778 329.122C297.221 329.56 297.797 329.838 298.415 329.914L303.329 330.518C321.543 332.748 339.962 332.748 358.176 330.518L363.09 329.914C363.71 329.841 364.289 329.563 364.735 329.126C365.181 328.688 365.469 328.115 365.554 327.496Z" fill="#EE9E23"/>
<path d="M392.152 306.495C395.709 306.495 398.593 303.611 398.593 300.053C398.593 296.495 395.709 293.611 392.152 293.611C388.594 293.611 385.71 296.495 385.71 300.053C385.71 303.611 388.594 306.495 392.152 306.495Z" fill="#30302F"/>
<path d="M408.207 315.562C413.512 315.562 417.813 311.261 417.813 305.955C417.813 300.649 413.512 296.348 408.207 296.348C402.901 296.348 398.599 300.649 398.599 305.955C398.599 311.261 402.901 315.562 408.207 315.562Z" fill="#30302F"/>
<path d="M414.778 298.045C418.336 298.045 421.22 295.161 421.22 291.603C421.22 288.045 418.336 285.161 414.778 285.161C411.22 285.161 408.337 288.045 408.337 291.603C408.337 295.161 411.22 298.045 414.778 298.045Z" fill="#30302F"/>
<path d="M339.762 271.635L412.198 312.968L423.273 243.815" stroke="#F6BE1D" stroke-width="16" stroke-linejoin="round"/>
<path d="M410.001 319.274C415.306 319.274 419.607 314.972 419.607 309.667C419.607 304.361 415.306 300.06 410.001 300.06C404.695 300.06 400.393 304.361 400.393 309.667C400.393 314.972 404.695 319.274 410.001 319.274Z" fill="#4E4F50"/>
<path d="M410.001 315.159C413.034 315.159 415.493 312.7 415.493 309.667C415.493 306.633 413.034 304.174 410.001 304.174C406.967 304.174 404.508 306.633 404.508 309.667C404.508 312.7 406.967 315.159 410.001 315.159Z" fill="#30302F"/>
<path d="M391.566 310.609C395.124 310.609 398.008 307.725 398.008 304.168C398.008 300.61 395.124 297.726 391.566 297.726C388.009 297.726 385.125 300.61 385.125 304.168C385.125 307.725 388.009 310.609 391.566 310.609Z" fill="#4E4F50"/>
<path d="M391.566 307.424C393.365 307.424 394.823 305.966 394.823 304.168C394.823 302.369 393.365 300.911 391.566 300.911C389.768 300.911 388.31 302.369 388.31 304.168C388.31 305.966 389.768 307.424 391.566 307.424Z" fill="#30302F"/>
<path d="M417.449 298.987C421.007 298.987 423.891 296.103 423.891 292.546C423.891 288.988 421.007 286.104 417.449 286.104C413.892 286.104 411.008 288.988 411.008 292.546C411.008 296.103 413.892 298.987 417.449 298.987Z" fill="#4E4F50"/>
<path d="M417.449 295.802C419.248 295.802 420.706 294.344 420.706 292.546C420.706 290.747 419.248 289.289 417.449 289.289C415.651 289.289 414.193 290.747 414.193 292.546C414.193 294.344 415.651 295.802 417.449 295.802Z" fill="#30302F"/>
<path d="M444.288 245.492L440.128 241.689C439.227 242.676 438.141 243.476 436.932 244.043C435.722 244.61 434.413 244.933 433.078 244.994C431.744 245.055 430.41 244.853 429.154 244.398C427.898 243.944 426.743 243.247 425.757 242.346C424.77 241.445 423.97 240.359 423.403 239.15C422.836 237.94 422.513 236.631 422.452 235.296C422.391 233.962 422.593 232.628 423.048 231.372C423.502 230.116 424.199 228.961 425.1 227.975L420.94 224.172C418.197 227.278 416.783 231.337 417.004 235.475C417.225 239.614 419.063 243.499 422.122 246.295C425.18 249.092 429.215 250.574 433.356 250.424C437.498 250.274 441.414 248.502 444.262 245.492H444.288Z" fill="#EE9E23"/>
<path d="M423.274 251.868C426.831 251.868 429.715 248.985 429.715 245.427C429.715 241.869 426.831 238.986 423.274 238.986C419.716 238.986 416.832 241.869 416.832 245.427C416.832 248.985 419.716 251.868 423.274 251.868Z" fill="#4E4F50"/>
<path d="M423.274 248.683C425.072 248.683 426.53 247.226 426.53 245.427C426.53 243.628 425.072 242.171 423.274 242.171C421.475 242.171 420.017 243.628 420.017 245.427C420.017 247.226 421.475 248.683 423.274 248.683Z" fill="#EE9E23"/>
<path d="M307.093 291.61C307.537 291.61 307.977 291.522 308.387 291.352C308.798 291.181 309.171 290.932 309.485 290.617C309.799 290.303 310.048 289.929 310.217 289.518C310.387 289.108 310.473 288.667 310.472 288.223V264.823L297.245 265.85C296.577 265.9 295.949 266.186 295.473 266.656C294.997 267.126 294.703 267.751 294.645 268.418L294.196 273.585C293.676 279.591 293.399 285.606 293.364 291.629L307.093 291.61ZM364.37 319.364C364.815 319.364 365.255 319.277 365.665 319.107C366.076 318.936 366.449 318.687 366.763 318.372C367.077 318.058 367.326 317.684 367.495 317.273C367.665 316.863 367.751 316.422 367.751 315.978V292.546L354.516 293.586C353.849 293.637 353.222 293.923 352.746 294.393C352.27 294.863 351.976 295.487 351.916 296.153L351.468 301.321C350.948 307.327 350.673 313.341 350.643 319.364H364.37Z" stroke="#F8E782" stroke-miterlimit="10"/>
<path d="M348.855 264.621V282.048C348.857 282.795 349.155 283.511 349.684 284.039C350.212 284.566 350.929 284.863 351.676 284.862H359.99C360.737 284.863 361.453 284.566 361.982 284.039C362.511 283.511 362.809 282.795 362.81 282.048V265.714L348.855 264.621ZM347.62 316.55C347.25 316.549 346.883 316.621 346.541 316.762C346.199 316.903 345.888 317.111 345.626 317.372C345.364 317.633 345.156 317.944 345.014 318.286C344.872 318.628 344.799 318.994 344.799 319.364V331.754C349.271 331.476 353.734 331.064 358.189 330.518L363.103 329.914C363.721 329.838 364.297 329.56 364.74 329.122C365.183 328.685 365.469 328.113 365.554 327.496L366.112 323.382C366.418 321.107 366.684 318.831 366.925 316.55H347.62Z" fill="#EE9E23"/>
<path d="M357.793 316.55C354.478 317.973 350.688 318.428 344.981 318.396C344.864 318.706 344.803 319.034 344.799 319.364V331.754C349.236 331.476 353.663 331.069 358.079 330.532H358.189L363.103 329.927C363.488 329.883 363.86 329.759 364.196 329.565C364.531 329.37 364.823 329.108 365.053 328.796C365.334 328.414 365.513 327.967 365.573 327.496L366.132 323.382C366.438 321.107 366.704 318.831 366.945 316.55H357.793ZM303.797 305.389H293.715C294.045 311.404 294.612 317.402 295.418 323.382L295.978 327.496C296.062 328.113 296.348 328.685 296.791 329.122C297.234 329.56 297.81 329.838 298.428 329.914L303.342 330.518C304.902 330.707 306.462 330.863 308.022 331.019V309.614C308.022 308.494 307.577 307.419 306.785 306.627C305.992 305.835 304.918 305.389 303.797 305.389Z" fill="#E77B26"/>
<path d="M345.761 264.407C345.303 262.336 344.151 260.484 342.496 259.157C340.841 257.831 338.782 257.11 336.661 257.114H326.033C323.932 257.115 321.892 257.828 320.247 259.137C318.603 260.446 317.451 262.274 316.979 264.322C326.565 263.733 336.179 263.761 345.761 264.407Z" fill="#4E4F50"/>
<path d="M293.371 301.327L287.45 293.462C279 277.212 283.959 274.255 292.617 269.516L294.658 268.398L293.371 301.327ZM367.965 301.327L373.88 293.462C382.33 277.212 377.377 274.255 368.68 269.516L366.646 268.398L367.965 301.327Z" fill="#EE9E23"/>
<path d="M330.765 333.599C321.542 333.601 312.328 333.039 303.173 331.916L298.259 331.318C297.332 331.204 296.469 330.787 295.804 330.131C295.14 329.474 294.712 328.616 294.586 327.691L294.021 323.57C291.771 306.956 291.363 290.145 292.805 273.442L293.254 268.275C293.338 267.273 293.778 266.335 294.493 265.63C295.208 264.924 296.152 264.497 297.154 264.426L313.033 263.179C324.85 262.256 336.72 262.256 348.537 263.179L364.416 264.426C365.419 264.496 366.363 264.922 367.079 265.628C367.794 266.334 368.233 267.273 368.316 268.275L368.765 273.442C370.207 290.145 369.799 306.956 367.549 323.57L366.99 327.691C366.861 328.616 366.431 329.473 365.766 330.129C365.101 330.784 364.238 331.202 363.311 331.318L358.397 331.916C349.229 333.04 340.002 333.603 330.765 333.599ZM330.765 265.304C324.915 265.304 319.065 265.532 313.215 265.993L297.336 267.235C297 267.26 296.684 267.405 296.445 267.644C296.207 267.882 296.061 268.198 296.036 268.535L295.587 273.702C294.161 290.195 294.564 306.795 296.79 323.2L297.349 327.321C297.391 327.629 297.535 327.916 297.757 328.134C297.979 328.353 298.268 328.492 298.577 328.529L303.491 329.134C321.589 331.351 339.89 331.351 357.987 329.134L362.908 328.529C363.217 328.492 363.504 328.353 363.726 328.134C363.947 327.915 364.089 327.629 364.13 327.321L364.689 323.2C366.936 306.793 367.359 290.188 365.95 273.689L365.501 268.521C365.476 268.185 365.331 267.869 365.092 267.631C364.854 267.392 364.538 267.247 364.201 267.221L348.322 265.98C342.478 265.532 336.622 265.304 330.765 265.304Z" fill="#E77B26"/>
<path d="M286.136 290.817C284.978 288.476 284.08 286.015 283.458 283.478C282.854 283.985 267.501 297.446 258.219 320.177C249.678 341.094 244.016 375.18 265.557 418.801L271.875 415.682C255.573 382.675 253.129 351.546 264.615 323.154C272.005 304.85 283.114 293.651 286.136 290.817Z" fill="#F6BE1D"/>
<path d="M249.932 363.103C255.237 363.103 259.539 358.802 259.539 353.496C259.539 348.19 255.237 343.889 249.932 343.889C244.626 343.889 240.325 348.19 240.325 353.496C240.325 358.802 244.626 363.103 249.932 363.103Z" fill="#4E4F50"/>
<path d="M249.932 358.988C252.965 358.988 255.424 356.529 255.424 353.496C255.424 350.463 252.965 348.004 249.932 348.004C246.898 348.004 244.439 350.463 244.439 353.496C244.439 356.529 246.898 358.988 249.932 358.988Z" fill="#30302F"/>
<path d="M253.857 343.038C257.415 343.038 260.299 340.154 260.299 336.596C260.299 333.038 257.415 330.154 253.857 330.154C250.3 330.154 247.416 333.038 247.416 336.596C247.416 340.154 250.3 343.038 253.857 343.038Z" fill="#4E4F50"/>
<path d="M253.857 339.852C255.656 339.852 257.114 338.395 257.114 336.596C257.114 334.797 255.656 333.34 253.857 333.34C252.059 333.34 250.601 334.797 250.601 336.596C250.601 338.395 252.059 339.852 253.857 339.852Z" fill="#30302F"/>
<path d="M253.838 376.831C257.396 376.831 260.279 373.947 260.279 370.39C260.279 366.832 257.396 363.948 253.838 363.948C250.28 363.948 247.396 366.832 247.396 370.39C247.396 373.947 250.28 376.831 253.838 376.831Z" fill="#4E4F50"/>
<path d="M253.838 373.646C255.637 373.646 257.094 372.188 257.094 370.39C257.094 368.591 255.637 367.133 253.838 367.133C252.039 367.133 250.582 368.591 250.582 370.39C250.582 372.188 252.039 373.646 253.838 373.646Z" fill="#30302F"/>
<path d="M260.201 437.749C259.262 435.874 258.704 433.832 258.562 431.739C258.419 429.647 258.695 427.548 259.372 425.563C260.049 423.578 261.115 421.748 262.507 420.18C263.898 418.611 265.588 417.335 267.478 416.426C269.368 415.517 271.42 414.994 273.514 414.886C275.608 414.778 277.703 415.088 279.676 415.798C281.649 416.508 283.462 417.603 285.007 419.021C286.552 420.438 287.8 422.149 288.678 424.054L283.601 426.491C282.398 424.121 280.313 422.317 277.795 421.465C275.277 420.613 272.525 420.782 270.13 421.934C267.734 423.087 265.886 425.132 264.98 427.631C264.074 430.131 264.184 432.885 265.284 435.305L260.201 437.749Z" fill="#EE9E23"/>
<path d="M268.964 424.359C272.521 424.359 275.405 421.475 275.405 417.918C275.405 414.36 272.521 411.476 268.964 411.476C265.406 411.476 262.522 414.36 262.522 417.918C262.522 421.475 265.406 424.359 268.964 424.359Z" fill="#4E4F50"/>
<path d="M268.964 421.174C270.762 421.174 272.22 419.716 272.22 417.918C272.22 416.119 270.762 414.661 268.964 414.661C267.165 414.661 265.707 416.119 265.707 417.918C265.707 419.716 267.165 421.174 268.964 421.174Z" fill="#EE9E23"/>
<path d="M305.045 309.732C305.716 309.732 306.261 309.187 306.261 308.516C306.261 307.845 305.716 307.3 305.045 307.3C304.374 307.3 303.829 307.845 303.829 308.516C303.829 309.187 304.374 309.732 305.045 309.732Z" fill="#020202"/>
<path d="M351.871 282.587C352.542 282.587 353.087 282.043 353.087 281.372C353.087 280.701 352.542 280.157 351.871 280.157C351.2 280.157 350.655 280.701 350.655 281.372C350.655 282.043 351.2 282.587 351.871 282.587Z" fill="#020202"/>
<path d="M360.418 282.587C361.09 282.587 361.634 282.043 361.634 281.372C361.634 280.701 361.09 280.157 360.418 280.157C359.747 280.157 359.203 280.701 359.203 281.372C359.203 282.043 359.747 282.587 360.418 282.587Z" fill="#020202"/>
<path d="M360.418 270.829C361.09 270.829 361.634 270.285 361.634 269.614C361.634 268.942 361.09 268.398 360.418 268.398C359.747 268.398 359.203 268.942 359.203 269.614C359.203 270.285 359.747 270.829 360.418 270.829Z" fill="#020202"/>
<path d="M351.871 269.614C352.542 269.614 353.087 269.069 353.087 268.398C353.087 267.727 352.542 267.182 351.871 267.182C351.2 267.182 350.655 267.727 350.655 268.398C350.655 269.069 351.2 269.614 351.871 269.614Z" fill="#020202"/>
<path d="M347.64 320.639C348.311 320.639 348.855 320.094 348.855 319.423C348.855 318.752 348.311 318.207 347.64 318.207C346.968 318.207 346.424 318.752 346.424 319.423C346.424 320.094 346.968 320.639 347.64 320.639Z" fill="#020202"/>
<path d="M362.81 320.58C363.482 320.58 364.026 320.036 364.026 319.364C364.026 318.693 363.482 318.149 362.81 318.149C362.139 318.149 361.595 318.693 361.595 319.364C361.595 320.036 362.139 320.58 362.81 320.58Z" fill="#020202"/>
<path d="M297.499 309.732C298.17 309.732 298.714 309.187 298.714 308.516C298.714 307.845 298.17 307.3 297.499 307.3C296.827 307.3 296.283 307.845 296.283 308.516C296.283 309.187 296.827 309.732 297.499 309.732Z" fill="#020202"/>
<path d="M305.617 328.341C306.288 328.341 306.832 327.797 306.832 327.126C306.832 326.454 306.288 325.91 305.617 325.91C304.946 325.91 304.401 326.454 304.401 327.126C304.401 327.797 304.946 328.341 305.617 328.341Z" fill="#020202"/>
<path d="M347.64 328.985C348.311 328.985 348.855 328.44 348.855 327.769C348.855 327.098 348.311 326.554 347.64 326.554C346.968 326.554 346.424 327.098 346.424 327.769C346.424 328.44 346.968 328.985 347.64 328.985Z" fill="#020202"/>
<path d="M257.517 425.887L275.197 421.168L268.574 432.705L266.357 435.942L262.529 438.126L258.239 437.749L257.517 425.887Z" fill="#C4CEE5"/>
<path d="M654.855 307.157V385.905" stroke="#3E5FAB" stroke-width="3" stroke-miterlimit="10"/>
<path d="M687.486 272.883H622.219C620.571 272.883 619.235 274.219 619.235 275.867V320.014C619.235 321.662 620.571 322.998 622.219 322.998H687.486C689.133 322.998 690.469 321.662 690.469 320.014V275.867C690.469 274.219 689.133 272.883 687.486 272.883Z" fill="#F9BF1F"/>
<path d="M654.855 399.412C666.124 399.412 675.259 390.277 675.259 379.009C675.259 367.74 666.124 358.605 654.855 358.605C643.587 358.605 634.452 367.74 634.452 379.009C634.452 390.277 643.587 399.412 654.855 399.412Z" fill="#3E5FAB"/>
<path d="M654.855 399.412C666.124 399.412 675.259 390.277 675.259 379.009C675.259 367.74 666.124 358.605 654.855 358.605C643.587 358.605 634.452 367.74 634.452 379.009C634.452 390.277 643.587 399.412 654.855 399.412Z" fill="#3E5FAB"/>
<path d="M654.855 352.97C661.676 352.97 667.205 347.44 667.205 340.62C667.205 333.799 661.676 328.27 654.855 328.27C648.035 328.27 642.505 333.799 642.505 340.62C642.505 347.44 648.035 352.97 654.855 352.97Z" fill="#3E5FAB"/>
<path opacity="0.25" d="M646.288 272.883L632.047 322.998H622.219C621.827 322.998 621.439 322.921 621.077 322.771C620.715 322.621 620.386 322.401 620.109 322.124C619.832 321.847 619.613 321.518 619.463 321.156C619.313 320.794 619.235 320.406 619.235 320.014V318.357L632.164 272.857L646.288 272.883Z" fill="white"/>
<path opacity="0.25" d="M675.955 272.883L661.713 322.998H638.085L652.346 272.883H675.955Z" fill="white"/>
<path d="M658.846 328.946C657.151 328.373 655.351 328.175 653.572 328.366C651.792 328.558 650.076 329.134 648.541 330.054C647.006 330.975 645.689 332.218 644.683 333.698C643.676 335.177 643.002 336.858 642.709 338.624C642.416 340.389 642.511 342.198 642.986 343.923C643.461 345.649 644.305 347.25 645.46 348.617C646.616 349.984 648.054 351.084 649.676 351.84C651.299 352.596 653.066 352.99 654.855 352.996C655.291 352.996 655.72 352.995 656.155 352.93C652.665 350.012 648.017 347.945 648.017 342.452C648.004 335.27 655.902 333.931 658.846 328.946ZM634.452 379.009C634.452 384.42 636.602 389.61 640.428 393.436C644.254 397.262 649.444 399.412 654.855 399.412C656.262 399.412 657.664 399.268 659.041 398.983C659.641 397.834 659.949 396.555 659.938 395.259C659.938 386.451 648.004 386.451 648.004 377.643C648.004 368.836 659.938 368.843 659.938 360.035C659.938 359.762 659.893 359.515 659.873 359.255C656.863 358.475 653.714 358.397 650.668 359.026C647.622 359.654 644.762 360.973 642.306 362.882C639.85 364.79 637.865 367.236 636.504 370.032C635.142 372.828 634.44 375.899 634.452 379.009Z" fill="#8EB8E2"/>
<defs>
<linearGradient id="paint0_linear_1_85" x1="199.953" y1="574.594" x2="198.126" y2="524.628" gradientUnits="userSpaceOnUse">
<stop stop-color="white" stop-opacity="0"/>
<stop offset="0.01" stop-color="#FCFDFE" stop-opacity="0.02"/>
<stop offset="0.14" stop-color="#D1DDEF" stop-opacity="0.27"/>
<stop offset="0.28" stop-color="#ACC2E1" stop-opacity="0.5"/>
<stop offset="0.43" stop-color="#8EACD6" stop-opacity="0.68"/>
<stop offset="0.57" stop-color="#769ACE" stop-opacity="0.82"/>
<stop offset="0.71" stop-color="#658EC8" stop-opacity="0.92"/>
<stop offset="0.85" stop-color="#5B86C4" stop-opacity="0.98"/>
<stop offset="1" stop-color="#5884C3"/>
</linearGradient>
<linearGradient id="paint1_linear_1_85" x1="463.768" y1="539.207" x2="463.768" y2="318.39" gradientUnits="userSpaceOnUse">
<stop stop-color="white" stop-opacity="0"/>
<stop offset="0.01" stop-color="#FCFDFE" stop-opacity="0.02"/>
<stop offset="0.14" stop-color="#D1DDEF" stop-opacity="0.27"/>
<stop offset="0.28" stop-color="#ACC2E1" stop-opacity="0.5"/>
<stop offset="0.43" stop-color="#8EACD6" stop-opacity="0.68"/>
<stop offset="0.57" stop-color="#769ACE" stop-opacity="0.82"/>
<stop offset="0.71" stop-color="#658EC8" stop-opacity="0.92"/>
<stop offset="0.85" stop-color="#5B86C4" stop-opacity="0.98"/>
<stop offset="1" stop-color="#5884C3"/>
</linearGradient>
<linearGradient id="paint2_linear_1_85" x1="nan" y1="nan" x2="nan" y2="nan" gradientUnits="userSpaceOnUse">
<stop stop-color="#4058A6"/>
<stop offset="0.25" stop-color="#415AA8" stop-opacity="0.97"/>
<stop offset="0.49" stop-color="#4562AD" stop-opacity="0.89"/>
<stop offset="0.72" stop-color="#4C6FB5" stop-opacity="0.74"/>
<stop offset="0.96" stop-color="#5680C0" stop-opacity="0.54"/>
<stop offset="1" stop-color="#5884C3" stop-opacity="0.5"/>
</linearGradient>
<linearGradient id="paint3_linear_1_85" x1="nan" y1="nan" x2="nan" y2="nan" gradientUnits="userSpaceOnUse">
<stop stop-color="#4058A6"/>
<stop offset="0.25" stop-color="#415AA8" stop-opacity="0.97"/>
<stop offset="0.49" stop-color="#4562AD" stop-opacity="0.89"/>
<stop offset="0.72" stop-color="#4C6FB5" stop-opacity="0.74"/>
<stop offset="0.96" stop-color="#5680C0" stop-opacity="0.54"/>
<stop offset="1" stop-color="#5884C3" stop-opacity="0.5"/>
</linearGradient>
<linearGradient id="paint4_linear_1_85" x1="nan" y1="nan" x2="nan" y2="nan" gradientUnits="userSpaceOnUse">
<stop stop-color="#4058A6"/>
<stop offset="0.25" stop-color="#415AA8" stop-opacity="0.97"/>
<stop offset="0.49" stop-color="#4562AD" stop-opacity="0.89"/>
<stop offset="0.72" stop-color="#4C6FB5" stop-opacity="0.74"/>
<stop offset="0.96" stop-color="#5680C0" stop-opacity="0.54"/>
<stop offset="1" stop-color="#5884C3" stop-opacity="0.5"/>
</linearGradient>
<linearGradient id="paint5_linear_1_85" x1="nan" y1="nan" x2="nan" y2="nan" gradientUnits="userSpaceOnUse">
<stop stop-color="#4058A6"/>
<stop offset="0.25" stop-color="#415AA8" stop-opacity="0.97"/>
<stop offset="0.49" stop-color="#4562AD" stop-opacity="0.89"/>
<stop offset="0.72" stop-color="#4C6FB5" stop-opacity="0.74"/>
<stop offset="0.96" stop-color="#5680C0" stop-opacity="0.54"/>
<stop offset="1" stop-color="#5884C3" stop-opacity="0.5"/>
</linearGradient>
<linearGradient id="paint6_linear_1_85" x1="nan" y1="nan" x2="nan" y2="nan" gradientUnits="userSpaceOnUse">
<stop stop-color="#4058A6"/>
<stop offset="0.25" stop-color="#415AA8" stop-opacity="0.97"/>
<stop offset="0.49" stop-color="#4562AD" stop-opacity="0.89"/>
<stop offset="0.72" stop-color="#4C6FB5" stop-opacity="0.74"/>
<stop offset="0.96" stop-color="#5680C0" stop-opacity="0.54"/>
<stop offset="1" stop-color="#5884C3" stop-opacity="0.5"/>
</linearGradient>
<linearGradient id="paint7_linear_1_85" x1="nan" y1="nan" x2="nan" y2="nan" gradientUnits="userSpaceOnUse">
<stop stop-color="#4058A6"/>
<stop offset="0.25" stop-color="#415AA8" stop-opacity="0.97"/>
<stop offset="0.49" stop-color="#4562AD" stop-opacity="0.89"/>
<stop offset="0.72" stop-color="#4C6FB5" stop-opacity="0.74"/>
<stop offset="0.96" stop-color="#5680C0" stop-opacity="0.54"/>
<stop offset="1" stop-color="#5884C3" stop-opacity="0.5"/>
</linearGradient>
<linearGradient id="paint8_linear_1_85" x1="nan" y1="nan" x2="nan" y2="nan" gradientUnits="userSpaceOnUse">
<stop stop-color="#4058A6"/>
<stop offset="0.25" stop-color="#415AA8" stop-opacity="0.97"/>
<stop offset="0.49" stop-color="#4562AD" stop-opacity="0.89"/>
<stop offset="0.72" stop-color="#4C6FB5" stop-opacity="0.74"/>
<stop offset="0.96" stop-color="#5680C0" stop-opacity="0.54"/>
<stop offset="1" stop-color="#5884C3" stop-opacity="0.5"/>
</linearGradient>
<linearGradient id="paint9_linear_1_85" x1="190.749" y1="164.593" x2="293.326" y2="164.593" gradientUnits="userSpaceOnUse">
<stop stop-color="white" stop-opacity="0"/>
<stop offset="0.1" stop-color="#FDE6E6" stop-opacity="0.15"/>
<stop offset="0.28" stop-color="#FABBBA" stop-opacity="0.4"/>
<stop offset="0.46" stop-color="#F79796" stop-opacity="0.62"/>
<stop offset="0.63" stop-color="#F57B79" stop-opacity="0.78"/>
<stop offset="0.78" stop-color="#F36765" stop-opacity="0.9"/>
<stop offset="0.91" stop-color="#F25A58" stop-opacity="0.97"/>
<stop offset="1" stop-color="#F25654"/>
</linearGradient>
<linearGradient id="paint10_linear_1_85" x1="612.957" y1="218.829" x2="815.776" y2="218.829" gradientUnits="userSpaceOnUse">
<stop stop-color="#4058A6"/>
<stop offset="1" stop-color="#5884C3" stop-opacity="0.1"/>
</linearGradient>
<linearGradient id="paint11_linear_1_85" x1="nan" y1="nan" x2="nan" y2="nan" gradientUnits="userSpaceOnUse">
<stop stop-color="#4058A6"/>
<stop offset="0.25" stop-color="#415AA8" stop-opacity="0.97"/>
<stop offset="0.49" stop-color="#4562AD" stop-opacity="0.89"/>
<stop offset="0.72" stop-color="#4C6FB5" stop-opacity="0.74"/>
<stop offset="0.96" stop-color="#5680C0" stop-opacity="0.54"/>
<stop offset="1" stop-color="#5884C3" stop-opacity="0.5"/>
</linearGradient>
<linearGradient id="paint12_linear_1_85" x1="nan" y1="nan" x2="nan" y2="nan" gradientUnits="userSpaceOnUse">
<stop stop-color="#4058A6"/>
<stop offset="0.25" stop-color="#415AA8" stop-opacity="0.97"/>
<stop offset="0.49" stop-color="#4562AD" stop-opacity="0.89"/>
<stop offset="0.72" stop-color="#4C6FB5" stop-opacity="0.74"/>
<stop offset="0.96" stop-color="#5680C0" stop-opacity="0.54"/>
<stop offset="1" stop-color="#5884C3" stop-opacity="0.5"/>
</linearGradient>
<linearGradient id="paint13_linear_1_85" x1="237.393" y1="444.067" x2="305.753" y2="444.067" gradientUnits="userSpaceOnUse">
<stop stop-color="#4059A6"/>
<stop offset="1" stop-color="#5883C2" stop-opacity="0.1"/>
</linearGradient>
<linearGradient id="paint14_linear_1_85" x1="295.243" y1="437.424" x2="306.54" y2="437.424" gradientUnits="userSpaceOnUse">
<stop stop-color="#4059A6"/>
<stop offset="0.25" stop-color="#415BA8" stop-opacity="0.97"/>
<stop offset="0.48" stop-color="#4562AC" stop-opacity="0.89"/>
<stop offset="0.72" stop-color="#4C6EB4" stop-opacity="0.75"/>
<stop offset="0.95" stop-color="#567FBF" stop-opacity="0.55"/>
<stop offset="1" stop-color="#5883C2" stop-opacity="0.5"/>
</linearGradient>
<linearGradient id="paint15_linear_1_85" x1="288.008" y1="439.653" x2="299.299" y2="439.653" gradientUnits="userSpaceOnUse">
<stop stop-color="#4059A6"/>
<stop offset="0.25" stop-color="#415BA8" stop-opacity="0.97"/>
<stop offset="0.48" stop-color="#4562AC" stop-opacity="0.89"/>
<stop offset="0.72" stop-color="#4C6EB4" stop-opacity="0.75"/>
<stop offset="0.95" stop-color="#567FBF" stop-opacity="0.55"/>
<stop offset="1" stop-color="#5883C2" stop-opacity="0.5"/>
</linearGradient>
<linearGradient id="paint16_linear_1_85" x1="280.488" y1="441.896" x2="291.785" y2="441.896" gradientUnits="userSpaceOnUse">
<stop stop-color="#4059A6"/>
<stop offset="0.25" stop-color="#415BA8" stop-opacity="0.97"/>
<stop offset="0.48" stop-color="#4562AC" stop-opacity="0.89"/>
<stop offset="0.72" stop-color="#4C6EB4" stop-opacity="0.75"/>
<stop offset="0.95" stop-color="#567FBF" stop-opacity="0.55"/>
<stop offset="1" stop-color="#5883C2" stop-opacity="0.5"/>
</linearGradient>
</defs>
</svg>
