<svg width="25" height="25" viewBox="0 0 25 25" fill="none" xmlns="http://www.w3.org/2000/svg">
<path d="M10.219 18.8396C5.46551 18.8396 1.59827 14.9724 1.59827 10.219C1.59827 5.46551 5.46551 1.59827 10.219 1.59827C14.9724 1.59827 18.8396 5.46551 18.8396 10.219C18.8396 14.9724 14.9724 18.8396 10.219 18.8396ZM10.219 3.3224C6.41637 3.3224 3.3224 6.41637 3.3224 10.219C3.3224 14.0215 6.41637 17.1155 10.219 17.1155C14.0215 17.1155 17.1155 14.0215 17.1155 10.219C17.1155 6.41637 14.0224 3.3224 10.219 3.3224Z" fill="black"/>
<path d="M22.5396 23.4018C22.4264 23.4019 22.3143 23.3796 22.2097 23.3363C22.1051 23.2929 22.0101 23.2293 21.9301 23.1492L15.2974 16.5164C15.2173 16.4364 15.1538 16.3413 15.1105 16.2368C15.0672 16.1322 15.0449 16.0201 15.0449 15.9069C15.0449 15.7937 15.0672 15.6816 15.1105 15.5771C15.1538 15.4725 15.2173 15.3775 15.2974 15.2974C15.3774 15.2174 15.4724 15.1539 15.577 15.1106C15.6816 15.0673 15.7937 15.045 15.9069 15.045C16.0201 15.045 16.1321 15.0673 16.2367 15.1106C16.3413 15.1539 16.4363 15.2174 16.5163 15.2974L23.1491 21.9302C23.2701 22.0506 23.3525 22.2042 23.386 22.3716C23.4195 22.5389 23.4025 22.7124 23.3372 22.8701C23.2719 23.0278 23.1612 23.1625 23.0192 23.2571C22.8772 23.3518 22.7103 23.4021 22.5396 23.4018Z" fill="black"/>
</svg>
